<svg width="23" height="24" viewBox="0 0 23 24" fill="none" xmlns="http://www.w3.org/2000/svg">
<path d="M22.9647 12.2592C22.9647 11.2964 22.8867 10.5938 22.7178 9.86523H11.7339V14.2108H18.1812C18.0512 15.2907 17.3493 16.917 15.7894 18.0099L15.7676 18.1554L19.2405 20.8483L19.4811 20.8723C21.6908 18.8296 22.9647 15.8241 22.9647 12.2592Z" fill="#4285F4"/>
<path d="M11.7339 23.7092C14.8926 23.7092 17.5443 22.6682 19.4811 20.8728L15.7895 18.0104C14.8016 18.7 13.4757 19.1814 11.7339 19.1814C8.64026 19.1814 6.01455 17.1387 5.07855 14.3154L4.94136 14.3271L1.33018 17.1244L1.28296 17.2558C3.20674 21.0809 7.15835 23.7092 11.7339 23.7092Z" fill="#34A853"/>
<path d="M5.07859 14.3158C4.83162 13.5872 4.68869 12.8065 4.68869 11.9999C4.68869 11.1931 4.83162 10.4125 5.0656 9.68394L5.05906 9.52877L1.40263 6.68652L1.283 6.74348C0.490115 8.33081 0.0351562 10.1133 0.0351562 11.9999C0.0351562 13.8864 0.490115 15.6688 1.283 17.2561L5.07859 14.3158Z" fill="#FBBC05"/>
<path d="M11.7339 4.81774C13.9307 4.81774 15.4125 5.76751 16.2574 6.56122L19.5591 3.33454C17.5313 1.448 14.8926 0.290039 11.7339 0.290039C7.15835 0.290039 3.20674 2.91818 1.28296 6.7433L5.06556 9.68376C6.01454 6.86044 8.64026 4.81774 11.7339 4.81774Z" fill="#EB4335"/>
</svg>
