<svg width="116" height="35" viewBox="0 0 116 35" fill="none" xmlns="http://www.w3.org/2000/svg">
<g clip-path="url(#clip0_8648_52801)">
<path d="M39.5473 22.6244L39.3271 24.1834H39.0769L38.8168 22.6244L35.4545 9.83502H30.511L27.1787 22.5859L26.9686 23.6926L26.7184 23.6445L26.5883 22.6244L23.9065 9.83502H17.8523L23.266 30.3327H29.7805L32.8527 19.1408H33.1028L36.1749 30.3327H42.9997L48.4534 9.83502H42.3592L39.5473 22.6244ZM58.1201 11.9714L57.8699 11.8848V9.83502H51.9458V30.3712H57.8699V16.4751C59.1504 15.3215 60.8385 14.6783 62.5932 14.6755H63.4538V9.43084H62.9434C61.9903 9.46856 61.0591 9.71746 60.2225 10.1581C59.3858 10.5988 58.6664 11.2194 58.1201 11.9714ZM78.284 11.1438L78.0238 11.2304C77.3864 10.6264 76.6266 10.155 75.7917 9.84539C74.9567 9.5358 74.0645 9.3947 73.1705 9.43084C67.9268 9.43084 64.7246 14.1366 64.7246 20.0839C64.7246 26.0311 67.7968 30.7369 72.7302 30.7369C73.7542 30.7762 74.773 30.5771 75.6998 30.1566C76.6267 29.736 77.4343 29.1065 78.0538 28.3214L78.314 28.3984V30.3231H84.2381V9.83502H78.284V11.1438ZM78.284 23.2788C77.9555 24.1356 77.3537 24.8706 76.5647 25.3787C75.7757 25.8868 74.8399 26.1421 73.891 26.108C71.6294 26.108 70.6487 23.5675 70.6487 20.0839C70.6487 16.6002 71.6494 14.0981 73.891 14.0981C75.4857 14.0607 77.0424 14.5688 78.284 15.532V23.2788ZM99.2084 4.67692C100.191 4.67465 101.167 4.82411 102.1 5.11959L102.831 0.856464C101.45 0.26361 99.9499 -0.0288371 98.4379 -1.14905e-05C93.7046 -1.14905e-05 90.6825 3.15644 90.6825 7.98734V9.83502H87.7405V14.1848H90.6825V30.3327H96.6066V14.1848H100.609V9.83502H96.6066V7.98734C96.6066 5.69699 97.4972 4.67692 99.2084 4.67692ZM115.269 25.2035C114.583 25.4848 113.844 25.6257 113.098 25.6173C111.817 25.6173 110.926 24.7512 110.926 22.7303V14.1848H115.229V9.83502H110.926V3.28154H105.072V9.83502H102.431V14.1848H105.072V22.9901C105.072 27.8017 108.014 30.5348 112.017 30.5348C113.405 30.5688 114.781 30.2713 116.02 29.6687L115.269 25.2035ZM0 30.4867H16.8416V35H0V30.4867Z" fill="#363E49"/>
</g>
<defs>
<clipPath id="clip0_8648_52801">
<rect width="116" height="35" fill="white"/>
</clipPath>
</defs>
</svg>
