<svg width="24" height="24" viewBox="0 0 24 24" fill="none" xmlns="http://www.w3.org/2000/svg">
<g id="eye-off-outline">
<path id="Vector" d="M20.25 21C20.1515 21.0001 20.0539 20.9808 19.9629 20.9431C19.8719 20.9053 19.7893 20.85 19.7198 20.7801L3.2198 4.28013C3.08509 4.13833 3.01109 3.94952 3.0136 3.75395C3.0161 3.55838 3.0949 3.37152 3.23321 3.23322C3.37151 3.09492 3.55836 3.01612 3.75393 3.01361C3.94951 3.01111 4.13832 3.0851 4.28011 3.21982L20.7801 19.7198C20.8849 19.8247 20.9563 19.9583 20.9852 20.1038C21.0141 20.2492 20.9993 20.3999 20.9425 20.5369C20.8858 20.6739 20.7897 20.791 20.6665 20.8735C20.5432 20.9559 20.3982 20.9999 20.25 21ZM11.984 18C10.0392 18 8.16371 17.4243 6.40965 16.289C4.81261 15.2578 3.37496 13.7808 2.25183 12.0234V12.0197C3.18652 10.6804 4.21027 9.54794 5.30996 8.63482C5.31991 8.6265 5.32802 8.61621 5.33379 8.6046C5.33956 8.59298 5.34285 8.5803 5.34347 8.56735C5.34409 8.5544 5.34201 8.54146 5.33737 8.52935C5.33273 8.51724 5.32563 8.50623 5.31652 8.497L4.38277 7.56466C4.36618 7.54793 4.34389 7.53806 4.32035 7.53702C4.29682 7.53598 4.27375 7.54384 4.25574 7.55903C3.08761 8.54341 2.0034 9.75091 1.01761 11.1647C0.848014 11.4081 0.754608 11.6964 0.749266 11.9931C0.743924 12.2897 0.826888 12.5812 0.987615 12.8306C2.22558 14.7679 3.81886 16.3997 5.59449 17.5486C7.59371 18.8437 9.74527 19.5 11.984 19.5C13.1924 19.4962 14.3923 19.2971 15.5371 18.9103C15.5522 18.9052 15.5658 18.8963 15.5765 18.8845C15.5872 18.8726 15.5947 18.8583 15.5983 18.8427C15.602 18.8272 15.6015 18.811 15.5972 18.7957C15.5928 18.7803 15.5845 18.7664 15.5732 18.7551L14.5617 17.7436C14.5384 17.7208 14.5096 17.7046 14.4781 17.6964C14.4466 17.6881 14.4136 17.6883 14.3821 17.6967C13.5987 17.8984 12.793 18.0003 11.984 18ZM23.0081 11.1843C21.7678 9.26622 20.1586 7.63685 18.3548 6.472C16.3593 5.182 14.1562 4.49997 11.984 4.49997C10.7884 4.50209 9.60169 4.7054 8.47355 5.10138C8.45852 5.10661 8.44507 5.11558 8.43446 5.12745C8.42386 5.13931 8.41645 5.15368 8.41293 5.1692C8.40941 5.18473 8.40991 5.20089 8.41436 5.21616C8.41882 5.23144 8.42709 5.24534 8.4384 5.25653L9.44855 6.26669C9.47207 6.28981 9.50127 6.30631 9.5332 6.31454C9.56513 6.32277 9.59867 6.32244 9.63043 6.31357C10.3978 6.10599 11.1891 6.00055 11.984 5.99997C13.8914 5.99997 15.7612 6.58263 17.5411 7.73435C19.1681 8.78435 20.6226 10.26 21.7486 12C21.7494 12.001 21.7498 12.0024 21.7498 12.0037C21.7498 12.0051 21.7494 12.0064 21.7486 12.0075C20.9312 13.2942 19.917 14.4446 18.7429 15.4167C18.7329 15.425 18.7247 15.4353 18.7188 15.4469C18.7129 15.4585 18.7096 15.4713 18.7089 15.4843C18.7083 15.4973 18.7103 15.5103 18.715 15.5225C18.7196 15.5346 18.7267 15.5457 18.7359 15.555L19.6687 16.4873C19.6852 16.504 19.7074 16.5139 19.7308 16.515C19.7542 16.5161 19.7772 16.5084 19.7953 16.4934C21.0487 15.438 22.1337 14.1975 23.0128 12.8147C23.1682 12.571 23.2503 12.2878 23.2495 11.9988C23.2486 11.7098 23.1649 11.4271 23.0081 11.1843Z" fill="#AFAFAF"/>
<path id="Vector_2" d="M12 7.5C11.6629 7.49982 11.3269 7.53756 10.9983 7.6125C10.9817 7.61595 10.9663 7.62383 10.9538 7.63531C10.9414 7.64679 10.9322 7.66144 10.9274 7.6777C10.9226 7.69395 10.9223 7.71121 10.9265 7.72763C10.9307 7.74405 10.9393 7.75901 10.9514 7.77094L16.229 13.0472C16.241 13.0592 16.2559 13.0678 16.2723 13.0721C16.2888 13.0763 16.306 13.076 16.3223 13.0712C16.3385 13.0663 16.3532 13.0572 16.3647 13.0447C16.3761 13.0323 16.384 13.0169 16.3875 13.0003C16.5377 12.3413 16.5376 11.6568 16.3871 10.9979C16.2365 10.3389 15.9395 9.72228 15.5179 9.19385C15.0964 8.66542 14.5613 8.23874 13.9522 7.9455C13.3432 7.65226 12.6759 7.49999 12 7.5ZM7.77091 10.9528C7.75899 10.9408 7.74402 10.9322 7.7276 10.9279C7.71118 10.9237 7.69392 10.924 7.67767 10.9289C7.66141 10.9337 7.64676 10.9428 7.63528 10.9553C7.6238 10.9677 7.61592 10.9831 7.61247 10.9997C7.44248 11.7424 7.46382 12.516 7.67451 13.2482C7.88519 13.9803 8.27832 14.647 8.81704 15.1857C9.35577 15.7245 10.0224 16.1176 10.7546 16.3283C11.4868 16.539 12.2604 16.5603 13.0031 16.3903C13.0197 16.3869 13.0351 16.379 13.0475 16.3675C13.06 16.356 13.0691 16.3414 13.0739 16.3251C13.0787 16.3089 13.0791 16.2916 13.0748 16.2752C13.0706 16.2588 13.062 16.2438 13.05 16.2319L7.77091 10.9528Z" fill="#AFAFAF"/>
</g>
</svg>
