<svg width="32" height="32" xmlns="http://www.w3.org/2000/svg"><g fill="#000" fill-rule="nonzero"><path d="M16 0C7.18 0 0 7.18 0 16c0 4.644 2.03 9.054 5.502 12.098a16.785 16.785 0 004.02 2.575C11.59 31.532 13.776 32 16 32s4.41-.468 6.439-1.366a16.05 16.05 0 004.02-2.575A15.979 15.979 0 0031.96 15.96C32 7.181 24.82 0 16 0zm9.366 27.98c-.117.118-.234.196-.39.313a4.735 4.735 0 00-.547.39c-.117.078-.234.156-.39.234-.195.117-.43.234-.624.351-.117.078-.235.117-.313.195-.312.157-.663.352-1.014.469A14.826 14.826 0 0116 31.22c-2.107 0-4.176-.43-6.127-1.288-1.327-.586-2.536-1.366-3.668-2.264.936-3.239 3.98-5.502 7.454-5.502h4.682c3.474 0 6.479 2.263 7.415 5.502-.117.078-.234.195-.39.312zm1.054-.897c-1.132-3.395-4.371-5.698-8.079-5.698H13.66c-3.669 0-6.908 2.303-8.079 5.698C2.537 24.195.78 20.215.78 16 .78 7.61 7.61.78 16 .78S31.22 7.61 31.22 16c0 4.215-1.757 8.195-4.8 11.083z"/><path d="M16 5.19a7.678 7.678 0 00-7.688 7.688A7.678 7.678 0 0016 20.566a7.678 7.678 0 007.688-7.688A7.678 7.678 0 0016 5.19zm0 14.595c-3.824 0-6.907-3.122-6.907-6.907S12.215 5.971 16 5.971s6.907 3.122 6.907 6.907-3.083 6.907-6.907 6.907z"/></g></svg>