<svg width="1747" height="435" viewBox="0 0 1747 435" fill="none" xmlns="http://www.w3.org/2000/svg">
<g clip-path="url(#clip0_41_2)">
<path d="M476.19 281.198L473.539 300.572H470.527L467.394 281.198L426.908 122.253H367.384L327.26 280.719L324.73 294.473L321.717 293.875L320.151 281.198L287.859 122.253H214.96L280.147 376.995H358.588L395.58 237.903H398.592L435.584 376.995H517.76L583.429 122.253H510.048L476.19 281.198ZM699.826 148.803L696.813 147.727V122.253H625.481V377.474H696.813V204.775C712.231 190.437 732.558 182.444 753.686 182.41H764.048V117.23H757.903C746.427 117.698 735.215 120.792 725.141 126.268C715.067 131.745 706.403 139.457 699.826 148.803ZM942.62 138.518L939.487 139.594C931.812 132.088 922.663 126.229 912.61 122.382C902.556 118.534 891.813 116.78 881.047 117.23C817.909 117.23 779.351 175.713 779.351 249.624C779.351 323.535 816.343 382.018 875.746 382.018C888.076 382.507 900.343 380.033 911.504 374.807C922.664 369.58 932.388 361.756 939.848 351.999L942.981 352.956V376.876H1014.31V122.253H942.62V138.518ZM942.62 289.33C938.664 299.978 931.418 309.113 921.918 315.428C912.417 321.743 901.149 324.915 889.723 324.492C862.491 324.492 850.683 292.918 850.683 249.624C850.683 206.33 862.732 175.234 889.723 175.234C908.925 174.769 927.67 181.084 942.62 193.054V289.33ZM1194.57 58.1485C1206.4 58.1203 1218.16 59.9778 1229.39 63.65L1238.19 10.6683C1221.56 3.30038 1203.5 -0.334111 1185.29 0.0241304C1128.3 0.0241304 1091.91 39.2521 1091.91 99.29V122.253H1056.49V176.311H1091.91V376.995H1163.24V176.311H1211.44V122.253H1163.24V99.29C1163.24 70.8258 1173.97 58.1485 1194.57 58.1485ZM1387.96 313.25C1379.7 316.747 1370.8 318.498 1361.82 318.393C1346.39 318.393 1335.67 307.629 1335.67 282.513V176.311H1387.48V122.253H1335.67V40.8069H1265.18V122.253H1233.37V176.311H1265.18V285.742C1265.18 345.541 1300.61 379.507 1348.8 379.507C1365.52 379.93 1382.08 376.232 1397 368.743L1387.96 313.25ZM0 378.909H202.79V435H0V378.909Z" fill="#fff"/>
<path d="M1721 164H1447C1432.64 164 1421 175.641 1421 190V272C1421 286.359 1432.64 298 1447 298H1721C1735.36 298 1747 286.359 1747 272V190C1747 175.641 1735.36 164 1721 164Z" fill="#004A0F"/>
<path d="M1482.41 263V200.455H1505.31C1509.75 200.455 1513.42 201.187 1516.34 202.653C1519.25 204.099 1521.43 206.064 1522.87 208.548C1524.32 211.011 1525.04 213.79 1525.04 216.885C1525.04 219.491 1524.56 221.69 1523.6 223.482C1522.65 225.253 1521.36 226.678 1519.76 227.757C1518.17 228.816 1516.42 229.589 1514.5 230.078V230.689C1516.58 230.791 1518.61 231.463 1520.58 232.705C1522.58 233.926 1524.22 235.667 1525.53 237.927C1526.83 240.187 1527.48 242.935 1527.48 246.173C1527.48 249.369 1526.73 252.24 1525.22 254.785C1523.74 257.309 1521.44 259.315 1518.32 260.801C1515.21 262.267 1511.22 263 1506.38 263H1482.41ZM1491.84 254.907H1505.46C1509.98 254.907 1513.22 254.031 1515.17 252.281C1517.13 250.53 1518.11 248.341 1518.11 245.714C1518.11 243.74 1517.61 241.928 1516.61 240.278C1515.61 238.629 1514.19 237.316 1512.33 236.339C1510.5 235.362 1508.32 234.873 1505.8 234.873H1491.84V254.907ZM1491.84 227.513H1504.49C1506.6 227.513 1508.51 227.106 1510.2 226.291C1511.91 225.477 1513.26 224.337 1514.26 222.871C1515.28 221.384 1515.79 219.634 1515.79 217.618C1515.79 215.032 1514.88 212.864 1513.07 211.113C1511.26 209.362 1508.48 208.487 1504.73 208.487H1491.84V227.513ZM1538.68 263V200.455H1577.89V208.578H1548.11V227.635H1575.84V235.728H1548.11V254.876H1578.25V263H1538.68ZM1587.41 208.578V200.455H1635.81V208.578H1616.3V263H1606.89V208.578H1587.41ZM1644.4 263H1634.39L1656.89 200.455H1667.8L1690.31 263H1680.29L1662.61 211.815H1662.12L1644.4 263ZM1646.08 238.507H1678.58V246.447H1646.08V238.507Z" fill="white"/>
</g>
<defs>
<clipPath id="clip0_41_2">
<rect width="1747" height="435" fill="white"/>
</clipPath>
</defs>
</svg>
