<svg width="282" height="154" viewBox="0 0 282 154" fill="none" xmlns="http://www.w3.org/2000/svg">
<path d="M7.936 147.6V58H23.808L24.832 69.776V147.6H7.936ZM44.16 123.536C38.784 123.536 34.2187 122.171 30.464 119.44C26.7947 116.709 23.9787 112.827 22.016 107.792C20.0533 102.757 19.072 96.8267 19.072 90C19.072 83.088 20.0533 77.1573 22.016 72.208C23.9787 67.1733 26.7947 63.2907 30.464 60.56C34.2187 57.8293 38.784 56.464 44.16 56.464C50.048 56.464 55.1253 57.8293 59.392 60.56C63.744 63.2907 67.1147 67.1733 69.504 72.208C71.8933 77.1573 73.088 83.088 73.088 90C73.088 96.8267 71.8933 102.757 69.504 107.792C67.1147 112.827 63.744 116.709 59.392 119.44C55.1253 122.171 50.048 123.536 44.16 123.536ZM39.808 108.048C42.88 108.048 45.568 107.28 47.872 105.744C50.2613 104.208 52.1387 102.075 53.504 99.344C54.8693 96.6133 55.552 93.4987 55.552 90C55.552 86.5013 54.8693 83.3867 53.504 80.656C52.224 77.9253 50.3893 75.8347 48 74.384C45.696 72.848 43.008 72.08 39.936 72.08C37.0347 72.08 34.432 72.848 32.128 74.384C29.824 75.92 28.032 78.0533 26.752 80.784C25.472 83.4293 24.832 86.5013 24.832 90C24.832 93.4987 25.472 96.6133 26.752 99.344C28.032 102.075 29.7813 104.208 32 105.744C34.304 107.28 36.9067 108.048 39.808 108.048ZM80.331 122V32.4H97.227V122H80.331ZM146.647 122L146.135 109.072V89.616C146.135 85.776 145.708 82.4907 144.855 79.76C144.087 77.0293 142.807 74.9387 141.015 73.488C139.308 71.952 136.962 71.184 133.975 71.184C131.244 71.184 128.77 71.7813 126.551 72.976C124.332 74.1707 122.455 76.0053 120.919 78.48L106.071 73.36C107.266 70.6293 109.015 67.984 111.319 65.424C113.623 62.7787 116.61 60.6453 120.279 59.024C124.034 57.3173 128.599 56.464 133.975 56.464C140.46 56.464 145.836 57.7013 150.103 60.176C154.455 62.6507 157.655 66.1493 159.703 70.672C161.836 75.1093 162.86 80.4 162.775 86.544L162.391 122H146.647ZM128.727 123.536C121.047 123.536 115.074 121.829 110.807 118.416C106.626 115.003 104.535 110.181 104.535 103.952C104.535 97.1253 106.796 92.0053 111.319 88.592C115.927 85.0933 122.37 83.344 130.647 83.344H146.903V95.888H136.535C130.988 95.888 127.148 96.5707 125.015 97.936C122.882 99.216 121.815 101.051 121.815 103.44C121.815 105.317 122.668 106.811 124.375 107.92C126.082 108.944 128.471 109.456 131.543 109.456C134.359 109.456 136.834 108.816 138.967 107.536C141.186 106.171 142.935 104.464 144.215 102.416C145.495 100.283 146.135 98.1067 146.135 95.888H150.231C150.231 104.592 148.567 111.376 145.239 116.24C141.996 121.104 136.492 123.536 128.727 123.536ZM197.489 123.536C190.406 123.536 185.03 121.787 181.361 118.288C177.777 114.789 175.985 109.797 175.985 103.312V38.032H192.881V99.6C192.881 102.331 193.478 104.421 194.673 105.872C195.868 107.237 197.617 107.92 199.921 107.92C200.774 107.92 201.713 107.749 202.737 107.408C203.761 106.981 204.828 106.384 205.937 105.616L211.825 118.288C209.777 119.824 207.473 121.061 204.913 122C202.438 123.024 199.964 123.536 197.489 123.536ZM165.617 72.336V58H208.881V72.336H165.617ZM245.304 123.536C238.989 123.536 233.4 122.128 228.536 119.312C223.672 116.411 219.832 112.443 217.016 107.408C214.285 102.373 212.92 96.5707 212.92 90C212.92 83.4293 214.328 77.6267 217.144 72.592C220.045 67.5573 223.971 63.632 228.92 60.816C233.955 57.9147 239.715 56.464 246.2 56.464C251.832 56.464 256.995 57.9573 261.688 60.944C266.467 63.8453 270.264 68.1547 273.08 73.872C275.981 79.504 277.432 86.3733 277.432 94.48H228.92L230.456 92.944C230.456 96.1013 231.224 98.8747 232.76 101.264C234.381 103.568 236.429 105.36 238.904 106.64C241.464 107.835 244.195 108.432 247.096 108.432C250.595 108.432 253.453 107.707 255.672 106.256C257.891 104.72 259.597 102.757 260.792 100.368L275.896 106.256C274.104 109.84 271.757 112.955 268.856 115.6C266.04 118.16 262.669 120.123 258.744 121.488C254.819 122.853 250.339 123.536 245.304 123.536ZM231.352 83.472L229.816 81.936H260.664L259.256 83.472C259.256 80.4 258.531 77.968 257.08 76.176C255.629 74.2987 253.837 72.9333 251.704 72.08C249.656 71.2267 247.651 70.8 245.688 70.8C243.725 70.8 241.635 71.2267 239.416 72.08C237.197 72.9333 235.277 74.2987 233.656 76.176C232.12 77.968 231.352 80.4 231.352 83.472Z" fill="white"/>
</svg>