<svg width="194" height="83" viewBox="0 0 194 83" fill="none" xmlns="http://www.w3.org/2000/svg">
<path d="M0 74V24.2222H8.83427L9.40422 30.7644V74H0ZM20.1621 60.6311C17.1698 60.6311 14.6288 59.8728 12.539 58.3556C10.4966 56.8383 8.92928 54.6817 7.83685 51.8844C6.74442 49.0872 6.19824 45.7926 6.19824 42C6.19824 38.16 6.74442 34.8652 7.83685 32.1156C8.92928 29.3185 10.4966 27.1615 12.539 25.6444C14.6288 24.1274 17.1698 23.3689 20.1621 23.3689C23.4393 23.3689 26.2653 24.1274 28.6401 25.6444C31.0624 27.1615 32.9385 29.3185 34.2684 32.1156C35.5983 34.8652 36.2632 38.16 36.2632 42C36.2632 45.7926 35.5983 49.0872 34.2684 51.8844C32.9385 54.6817 31.0624 56.8383 28.6401 58.3556C26.2653 59.8728 23.4393 60.6311 20.1621 60.6311ZM17.7398 52.0267C19.4496 52.0267 20.9458 51.6 22.2282 50.7467C23.558 49.8933 24.603 48.7083 25.3629 47.1911C26.1228 45.6741 26.5028 43.9437 26.5028 42C26.5028 40.0563 26.1228 38.3259 25.3629 36.8089C24.6505 35.2918 23.6293 34.1304 22.2994 33.3244C21.017 32.4711 19.5209 32.0444 17.811 32.0444C16.1962 32.0444 14.7475 32.4711 13.4651 33.3244C12.1827 34.1778 11.1853 35.3629 10.4729 36.88C9.76044 38.3496 9.40422 40.0563 9.40422 42C9.40422 43.9437 9.76044 45.6741 10.4729 47.1911C11.1853 48.7083 12.159 49.8933 13.3939 50.7467C14.6763 51.6 16.1249 52.0267 17.7398 52.0267ZM40.2947 59.7778V10H49.6989V59.7778H40.2947ZM77.2058 59.7778L76.9208 52.5956V41.7867C76.9208 39.6533 76.6831 37.8282 76.2084 36.3111C75.7809 34.7941 75.0685 33.6326 74.071 32.8267C73.1209 31.9733 71.8152 31.5467 70.1526 31.5467C68.6326 31.5467 67.2555 31.8785 66.0205 32.5422C64.7854 33.2059 63.7407 34.2252 62.8857 35.6L54.6214 32.7556C55.2865 31.2385 56.26 29.7689 57.5424 28.3467C58.8248 26.8771 60.4874 25.6918 62.5295 24.7911C64.6195 23.8429 67.1604 23.3689 70.1526 23.3689C73.7621 23.3689 76.7544 24.0563 79.1294 25.4311C81.5517 26.8059 83.3328 28.7496 84.4727 31.2622C85.6599 33.7274 86.2298 36.6667 86.1825 40.08L85.9688 59.7778H77.2058ZM67.2316 60.6311C62.957 60.6311 59.6324 59.6828 57.2574 57.7867C54.9303 55.8906 53.7665 53.2117 53.7665 49.7511C53.7665 45.9585 55.0249 43.1141 57.5424 41.2178C60.1072 39.2741 63.6933 38.3022 68.3003 38.3022H77.3483V45.2711H71.5775C68.4901 45.2711 66.3528 45.6504 65.1655 46.4089C63.9783 47.12 63.3844 48.1394 63.3844 49.4667C63.3844 50.5094 63.8592 51.3394 64.8093 51.9556C65.7594 52.5244 67.0891 52.8089 68.799 52.8089C70.3664 52.8089 71.7439 52.4533 72.9311 51.7422C74.1662 50.9839 75.1397 50.0356 75.8521 48.8978C76.5646 47.7128 76.9208 46.5037 76.9208 45.2711H79.2006C79.2006 50.1067 78.2744 53.8756 76.4221 56.5778C74.6171 59.28 71.5536 60.6311 67.2316 60.6311ZM105.504 60.6311C101.562 60.6311 98.5695 59.6594 96.5274 57.7156C94.5326 55.7717 93.5352 52.9983 93.5352 49.3956V13.1289H102.939V47.3333C102.939 48.8506 103.272 50.0117 103.937 50.8178C104.602 51.5761 105.575 51.9556 106.858 51.9556C107.333 51.9556 107.855 51.8606 108.425 51.6711C108.995 51.4339 109.589 51.1022 110.206 50.6756L113.484 57.7156C112.344 58.5689 111.061 59.2561 109.636 59.7778C108.259 60.3467 106.882 60.6311 105.504 60.6311ZM87.7644 32.1867V24.2222H111.845V32.1867H87.7644ZM132.118 60.6311C128.603 60.6311 125.492 59.8489 122.785 58.2844C120.077 56.6728 117.94 54.4683 116.373 51.6711C114.853 48.8739 114.093 45.6504 114.093 42C114.093 38.3496 114.877 35.1259 116.444 32.3289C118.059 29.5318 120.244 27.3511 122.998 25.7867C125.801 24.1748 129.007 23.3689 132.616 23.3689C135.751 23.3689 138.625 24.1985 141.237 25.8578C143.897 27.4696 146.01 29.8637 147.578 33.04C149.192 36.1689 150 39.9852 150 44.4889H122.998L123.853 43.6356C123.853 45.3896 124.281 46.9304 125.136 48.2578C126.038 49.5378 127.178 50.5333 128.556 51.2444C129.98 51.9083 131.5 52.24 133.115 52.24C135.063 52.24 136.653 51.8372 137.889 51.0311C139.124 50.1778 140.073 49.0872 140.738 47.76L149.145 51.0311C148.148 53.0222 146.841 54.7528 145.227 56.2222C143.659 57.6444 141.783 58.735 139.598 59.4933C137.414 60.2517 134.92 60.6311 132.118 60.6311ZM124.352 38.3733L123.497 37.52H140.667L139.883 38.3733C139.883 36.6667 139.48 35.3156 138.672 34.32C137.865 33.2771 136.867 32.5185 135.68 32.0444C134.54 31.5704 133.424 31.3333 132.331 31.3333C131.239 31.3333 130.076 31.5704 128.841 32.0444C127.605 32.5185 126.537 33.2771 125.635 34.32C124.78 35.3156 124.352 36.6667 124.352 38.3733Z" fill="white"/>
</svg>