<svg xmlns="http://www.w3.org/2000/svg">
  <path d="M9.858 23l1.984-6.882 1.116-4.216h.093l1.147 4.216L16.182 23h4.805l4.495-16.275h-4.247l-1.581 6.572-1.116 4.96h-.124l-1.333-4.96-1.891-6.572h-4.185l-1.86 6.572-1.302 4.96h-.124l-1.116-4.96-1.581-6.572H.589L5.146 23h4.712zm22.04 0v-9.517c0-.950667.3255-1.601667.9765-1.953.651-.351333 1.648167-.527 2.9915-.527h1.147V6.725h-.806c-.640667 0-1.198667.098167-1.674.2945-.475333.196333-.8835.459833-1.2245.7905-.341.330667-.614833.707833-.8215 1.1315-.206667.423667-.351333.862833-.434 1.3175h-.155V6.725H27.31V23h4.588zm10.57.372c1.24 0 2.283667-.273833 3.131-.8215.847333-.547667 1.395-1.3485 1.643-2.4025h.186c.144667.868.490833 1.560333 1.0385 2.077.547667.516667 1.234833.775 2.0615.775h2.542v-3.565h-1.519v-7.13c0-1.942667-.578667-3.420333-1.736-4.433s-2.893333-1.519-5.208-1.519c-1.715333 0-3.074167.273833-4.0765.8215-1.002333.547667-1.834167 1.307167-2.4955 2.2785l2.728 2.418c.351333-.496.795667-.940333 1.333-1.333s1.260667-.589 2.17-.589c.971333 0 1.663667.2325 2.077.6975.413333.465.62 1.090167.62 1.8755v1.023H44.39c-2.149333 0-3.849167.4185-5.0995 1.2555-1.250333.837-1.8755 2.113167-1.8755 3.8285 0 1.426.434 2.573 1.302 3.441.868.868 2.118333 1.302 3.751 1.302zm1.705-3.193c-.682 0-1.209-.1395-1.581-.4185-.372-.279-.558-.718167-.558-1.3175v-.465c0-1.219333.899-1.829 2.697-1.829h2.232v1.922c0 .744-.273833 1.281333-.8215 1.612-.547667.330667-1.203833.496-1.9685.496zM60.633 23V10.29h3.255V6.725h-3.255v-3.1h3.255V.06h-2.976c-1.591333 0-2.800333.397833-3.627 1.1935-.826667.795667-1.24 1.978833-1.24 3.5495v1.922h-2.294v3.565h2.294V23h4.588zm13.329 0v-3.565h-2.976V10.29h3.224V6.725h-3.224V2.323h-4.123v2.666c0 .558-.113667.986833-.341 1.2865s-.651.4495-1.271.4495h-1.147v3.565h2.294v7.967c0 1.55.408167 2.728 1.2245 3.534.816333.806 2.020167 1.209 3.6115 1.209h2.728zm17.328 5.89v-3.813H75.914v3.813H91.29z" fill="#261EC2" fill-rule="nonzero"/>
</svg>