<svg width="104" height="31" xmlns="http://www.w3.org/2000/svg">
  <path d="M11.697 30l3.318-16.464h.42L18.753 30h7.56l4.116-20.832h-5.292l-2.52 16.464h-.42L18.879 9.168h-7.308L8.253 25.632h-.42L5.313 9.168H.021L4.137 30h7.56zm27.216 0V17.904c0-2.94 1.932-4.368 4.62-4.368h3.108V9.084h-2.184c-2.646 0-4.41.798-5.208 3.024h-.42v-2.94h-5.208V30h5.292zm17.262.588c3.864 0 5.25-2.1 5.628-3.024h.588V30h5.04V16.602c0-5.208-3.444-8.022-8.904-8.022-5.418 0-8.232 2.73-9.24 5.88l4.872 1.638c.378-1.89 1.638-3.318 4.284-3.318 2.688 0 3.864 1.512 3.864 3.444V17.4h-5.712c-4.704 0-8.064 2.226-8.064 6.51s3.36 6.678 7.644 6.678zm1.092-4.284c-2.268 0-3.444-1.05-3.444-2.52 0-1.428 1.176-2.436 3.15-2.436h5.334v.336c0 2.772-2.1 4.62-5.04 4.62zM80.787 30V13.452h5.46V9.168h-5.46V6.144c0-.84.42-1.26 1.176-1.26h3.612V.6h-5.46c-2.772 0-4.62 1.848-4.62 4.704v3.864h-5.292v4.284h5.292V30h5.292zm22.512 0v-4.284h-4.032c-.756 0-1.176-.42-1.176-1.26V13.452h5.712V9.168h-5.712V2.7h-5.292v6.468h-5.208v4.284h5.208v11.844c0 2.856 1.848 4.704 4.62 4.704h5.88z" fill="#202860" fill-rule="nonzero"/>
</svg>