<svg width="295" height="325" viewBox="0 0 295 325" fill="none" xmlns="http://www.w3.org/2000/svg">
<path d="M44.0696 252.455V267H41.4347V252.455H44.0696ZM49.3803 260.608V267H46.8093V256.091H49.2667V257.945H49.3945C49.6455 257.334 50.0456 256.848 50.5948 256.489C51.1488 256.129 51.833 255.949 52.6474 255.949C53.4002 255.949 54.056 256.11 54.6147 256.432C55.1781 256.754 55.6138 257.22 55.9215 257.831C56.234 258.442 56.3879 259.183 56.3832 260.054V267H53.8121V260.452C53.8121 259.723 53.6228 259.152 53.244 258.74C52.8699 258.328 52.3514 258.122 51.6886 258.122C51.2388 258.122 50.8387 258.222 50.4883 258.42C50.1426 258.615 49.8704 258.896 49.6715 259.266C49.4774 259.635 49.3803 260.082 49.3803 260.608ZM64.4442 256.091V258.08H58.1729V256.091H64.4442ZM59.7212 253.477H62.2923V263.719C62.2923 264.064 62.3443 264.33 62.4485 264.514C62.5574 264.694 62.6995 264.817 62.8746 264.884C63.0498 264.95 63.244 264.983 63.457 264.983C63.618 264.983 63.7648 264.971 63.8974 264.947C64.0347 264.924 64.1388 264.902 64.2099 264.884L64.6431 266.893C64.5058 266.941 64.3093 266.993 64.0536 267.05C63.8027 267.107 63.4949 267.14 63.1303 267.149C62.4864 267.168 61.9064 267.071 61.3903 266.858C60.8742 266.64 60.4646 266.304 60.1616 265.849C59.8633 265.395 59.7165 264.827 59.7212 264.145V253.477ZM71.3068 267.213C70.2131 267.213 69.2685 266.986 68.473 266.531C67.6823 266.072 67.0739 265.423 66.6477 264.585C66.2216 263.742 66.0085 262.75 66.0085 261.609C66.0085 260.487 66.2216 259.502 66.6477 258.655C67.0786 257.803 67.6799 257.14 68.4517 256.666C69.2235 256.188 70.1302 255.949 71.1719 255.949C71.8442 255.949 72.4787 256.058 73.0753 256.276C73.6766 256.489 74.2069 256.82 74.6662 257.27C75.1302 257.72 75.4948 258.293 75.7599 258.989C76.0251 259.68 76.1577 260.504 76.1577 261.46V262.249H67.2159V260.516H73.6932C73.6884 260.023 73.5819 259.585 73.3736 259.202C73.1652 258.813 72.8741 258.508 72.5 258.286C72.1307 258.063 71.6998 257.952 71.2074 257.952C70.6818 257.952 70.2202 258.08 69.8224 258.335C69.4247 258.586 69.1146 258.918 68.892 259.33C68.6742 259.737 68.563 260.184 68.5582 260.672V262.185C68.5582 262.819 68.6742 263.364 68.9062 263.818C69.1383 264.268 69.4626 264.614 69.8793 264.855C70.2959 265.092 70.7836 265.21 71.3423 265.21C71.7164 265.21 72.0549 265.158 72.358 265.054C72.661 264.945 72.9238 264.786 73.1463 264.578C73.3688 264.37 73.5369 264.112 73.6506 263.804L76.0511 264.074C75.8996 264.708 75.6108 265.262 75.1847 265.736C74.7633 266.205 74.2235 266.569 73.5653 266.83C72.9072 267.085 72.1544 267.213 71.3068 267.213ZM78.3327 267V256.091H80.8256V257.909H80.9393C81.1381 257.279 81.479 256.794 81.962 256.453C82.4497 256.107 83.006 255.935 83.631 255.935C83.7731 255.935 83.9317 255.942 84.1069 255.956C84.2868 255.965 84.436 255.982 84.5543 256.006V258.371C84.4454 258.333 84.2726 258.3 84.0359 258.271C83.8039 258.238 83.579 258.222 83.3612 258.222C82.8924 258.222 82.471 258.323 82.0969 258.527C81.7276 258.726 81.4364 259.003 81.2234 259.358C81.0103 259.713 80.9038 260.123 80.9038 260.587V267H78.3327ZM88.8335 260.608V267H86.2624V256.091H88.7198V257.945H88.8477C89.0986 257.334 89.4987 256.848 90.0479 256.489C90.6019 256.129 91.2861 255.949 92.1005 255.949C92.8533 255.949 93.5091 256.11 94.0678 256.432C94.6313 256.754 95.0669 257.22 95.3746 257.831C95.6871 258.442 95.841 259.183 95.8363 260.054V267H93.2653V260.452C93.2653 259.723 93.0759 259.152 92.6971 258.74C92.323 258.328 91.8046 258.122 91.1417 258.122C90.6919 258.122 90.2918 258.222 89.9414 258.42C89.5958 258.615 89.3235 258.896 89.1246 259.266C88.9305 259.635 88.8335 260.082 88.8335 260.608ZM101.589 267.22C100.898 267.22 100.275 267.097 99.7212 266.851C99.172 266.6 98.7364 266.231 98.4144 265.743C98.0972 265.255 97.9386 264.654 97.9386 263.939C97.9386 263.323 98.0522 262.814 98.2795 262.412C98.5067 262.009 98.8169 261.688 99.2099 261.446C99.6029 261.205 100.046 261.022 100.538 260.899C101.035 260.771 101.549 260.679 102.079 260.622C102.718 260.556 103.237 260.497 103.635 260.445C104.032 260.388 104.321 260.303 104.501 260.189C104.686 260.071 104.778 259.888 104.778 259.642V259.599C104.778 259.064 104.619 258.65 104.302 258.357C103.985 258.063 103.528 257.916 102.931 257.916C102.302 257.916 101.802 258.054 101.433 258.328C101.068 258.603 100.822 258.927 100.694 259.301L98.2937 258.96C98.4831 258.297 98.7956 257.743 99.2312 257.298C99.6668 256.848 100.199 256.512 100.829 256.29C101.459 256.062 102.155 255.949 102.917 255.949C103.443 255.949 103.966 256.01 104.487 256.134C105.008 256.257 105.484 256.46 105.914 256.744C106.345 257.024 106.691 257.405 106.951 257.888C107.217 258.371 107.349 258.974 107.349 259.699V267H104.877V265.501H104.792C104.636 265.804 104.416 266.089 104.132 266.354C103.852 266.614 103.5 266.825 103.074 266.986C102.652 267.142 102.157 267.22 101.589 267.22ZM102.257 265.331C102.773 265.331 103.22 265.229 103.599 265.026C103.978 264.817 104.269 264.543 104.473 264.202C104.681 263.861 104.785 263.489 104.785 263.087V261.801C104.705 261.867 104.567 261.929 104.373 261.986C104.184 262.043 103.971 262.092 103.734 262.135C103.497 262.178 103.263 262.215 103.031 262.249C102.799 262.282 102.598 262.31 102.427 262.334C102.044 262.386 101.7 262.471 101.397 262.589C101.094 262.708 100.855 262.874 100.68 263.087C100.505 263.295 100.417 263.565 100.417 263.896C100.417 264.37 100.59 264.727 100.936 264.969C101.281 265.21 101.722 265.331 102.257 265.331ZM112.505 252.455V267H109.934V252.455H112.505ZM128.129 256.453C128.062 255.833 127.783 255.35 127.29 255.004C126.803 254.659 126.168 254.486 125.387 254.486C124.838 254.486 124.367 254.569 123.974 254.734C123.581 254.9 123.28 255.125 123.072 255.409C122.863 255.693 122.757 256.018 122.752 256.382C122.752 256.685 122.821 256.948 122.958 257.17C123.1 257.393 123.292 257.582 123.533 257.739C123.775 257.89 124.042 258.018 124.336 258.122C124.629 258.226 124.925 258.314 125.224 258.385L126.587 258.726C127.137 258.854 127.665 259.027 128.171 259.244C128.683 259.462 129.139 259.737 129.542 260.068C129.949 260.4 130.271 260.8 130.508 261.268C130.745 261.737 130.863 262.286 130.863 262.916C130.863 263.768 130.645 264.519 130.21 265.168C129.774 265.812 129.144 266.316 128.32 266.68C127.501 267.04 126.509 267.22 125.344 267.22C124.213 267.22 123.23 267.045 122.397 266.695C121.568 266.344 120.92 265.833 120.451 265.161C119.987 264.488 119.736 263.669 119.698 262.703H122.29C122.328 263.21 122.485 263.631 122.759 263.967C123.034 264.304 123.391 264.554 123.832 264.72C124.277 264.886 124.774 264.969 125.323 264.969C125.896 264.969 126.398 264.884 126.829 264.713C127.264 264.538 127.605 264.296 127.852 263.989C128.098 263.676 128.223 263.312 128.228 262.895C128.223 262.516 128.112 262.204 127.894 261.957C127.676 261.706 127.371 261.498 126.978 261.332C126.59 261.162 126.135 261.01 125.614 260.878L123.96 260.452C122.762 260.144 121.815 259.678 121.119 259.053C120.427 258.423 120.082 257.587 120.082 256.545C120.082 255.688 120.314 254.938 120.778 254.294C121.246 253.65 121.883 253.151 122.688 252.795C123.493 252.436 124.405 252.256 125.423 252.256C126.455 252.256 127.359 252.436 128.136 252.795C128.917 253.151 129.53 253.645 129.975 254.28C130.42 254.91 130.65 255.634 130.664 256.453H128.129ZM137.928 267.213C136.834 267.213 135.89 266.986 135.094 266.531C134.303 266.072 133.695 265.423 133.269 264.585C132.843 263.742 132.63 262.75 132.63 261.609C132.63 260.487 132.843 259.502 133.269 258.655C133.7 257.803 134.301 257.14 135.073 256.666C135.845 256.188 136.751 255.949 137.793 255.949C138.465 255.949 139.1 256.058 139.696 256.276C140.298 256.489 140.828 256.82 141.287 257.27C141.751 257.72 142.116 258.293 142.381 258.989C142.646 259.68 142.779 260.504 142.779 261.46V262.249H133.837V260.516H140.314C140.31 260.023 140.203 259.585 139.995 259.202C139.786 258.813 139.495 258.508 139.121 258.286C138.752 258.063 138.321 257.952 137.828 257.952C137.303 257.952 136.841 258.08 136.444 258.335C136.046 258.586 135.736 258.918 135.513 259.33C135.295 259.737 135.184 260.184 135.179 260.672V262.185C135.179 262.819 135.295 263.364 135.527 263.818C135.759 264.268 136.084 264.614 136.5 264.855C136.917 265.092 137.405 265.21 137.963 265.21C138.337 265.21 138.676 265.158 138.979 265.054C139.282 264.945 139.545 264.786 139.767 264.578C139.99 264.37 140.158 264.112 140.272 263.804L142.672 264.074C142.521 264.708 142.232 265.262 141.806 265.736C141.384 266.205 140.845 266.569 140.186 266.83C139.528 267.085 138.775 267.213 137.928 267.213ZM144.954 267V256.091H147.447V257.909H147.56C147.759 257.279 148.1 256.794 148.583 256.453C149.071 256.107 149.627 255.935 150.252 255.935C150.394 255.935 150.553 255.942 150.728 255.956C150.908 255.965 151.057 255.982 151.175 256.006V258.371C151.067 258.333 150.894 258.3 150.657 258.271C150.425 258.238 150.2 258.222 149.982 258.222C149.513 258.222 149.092 258.323 148.718 258.527C148.349 258.726 148.058 259.003 147.844 259.358C147.631 259.713 147.525 260.123 147.525 260.587V267H144.954ZM162.96 256.091L159.075 267H156.234L152.349 256.091H155.091L157.598 264.195H157.711L160.225 256.091H162.96ZM169.197 267.213C168.104 267.213 167.159 266.986 166.364 266.531C165.573 266.072 164.964 265.423 164.538 264.585C164.112 263.742 163.899 262.75 163.899 261.609C163.899 260.487 164.112 259.502 164.538 258.655C164.969 257.803 165.571 257.14 166.342 256.666C167.114 256.188 168.021 255.949 169.062 255.949C169.735 255.949 170.369 256.058 170.966 256.276C171.567 256.489 172.098 256.82 172.557 257.27C173.021 257.72 173.385 258.293 173.651 258.989C173.916 259.68 174.048 260.504 174.048 261.46V262.249H165.107V260.516H171.584C171.579 260.023 171.473 259.585 171.264 259.202C171.056 258.813 170.765 258.508 170.391 258.286C170.021 258.063 169.59 257.952 169.098 257.952C168.572 257.952 168.111 258.08 167.713 258.335C167.315 258.586 167.005 258.918 166.783 259.33C166.565 259.737 166.454 260.184 166.449 260.672V262.185C166.449 262.819 166.565 263.364 166.797 263.818C167.029 264.268 167.353 264.614 167.77 264.855C168.187 265.092 168.674 265.21 169.233 265.21C169.607 265.21 169.946 265.158 170.249 265.054C170.552 264.945 170.814 264.786 171.037 264.578C171.259 264.37 171.428 264.112 171.541 263.804L173.942 264.074C173.79 264.708 173.501 265.262 173.075 265.736C172.654 266.205 172.114 266.569 171.456 266.83C170.798 267.085 170.045 267.213 169.197 267.213ZM176.223 267V256.091H178.716V257.909H178.83C179.029 257.279 179.37 256.794 179.853 256.453C180.34 256.107 180.897 255.935 181.522 255.935C181.664 255.935 181.822 255.942 181.998 255.956C182.177 255.965 182.327 255.982 182.445 256.006V258.371C182.336 258.333 182.163 258.3 181.926 258.271C181.694 258.238 181.47 258.222 181.252 258.222C180.783 258.222 180.362 258.323 179.988 258.527C179.618 258.726 179.327 259.003 179.114 259.358C178.901 259.713 178.794 260.123 178.794 260.587V267H176.223ZM189.228 267V252.455H198.688V254.663H191.863V258.612H198.198V260.821H191.863V264.791H198.745V267H189.228ZM201.262 267V256.091H203.755V257.909H203.869C204.068 257.279 204.409 256.794 204.892 256.453C205.379 256.107 205.936 255.935 206.561 255.935C206.703 255.935 206.861 255.942 207.037 255.956C207.217 255.965 207.366 255.982 207.484 256.006V258.371C207.375 258.333 207.202 258.3 206.966 258.271C206.734 258.238 206.509 258.222 206.291 258.222C205.822 258.222 205.401 258.323 205.027 258.527C204.657 258.726 204.366 259.003 204.153 259.358C203.94 259.713 203.833 260.123 203.833 260.587V267H201.262ZM209.192 267V256.091H211.685V257.909H211.799C211.998 257.279 212.338 256.794 212.821 256.453C213.309 256.107 213.865 255.935 214.49 255.935C214.632 255.935 214.791 255.942 214.966 255.956C215.146 255.965 215.295 255.982 215.414 256.006V258.371C215.305 258.333 215.132 258.3 214.895 258.271C214.663 258.238 214.438 258.222 214.221 258.222C213.752 258.222 213.33 258.323 212.956 258.527C212.587 258.726 212.296 259.003 212.083 259.358C211.87 259.713 211.763 260.123 211.763 260.587V267H209.192ZM221.431 267.213C220.366 267.213 219.442 266.979 218.661 266.51C217.88 266.041 217.274 265.385 216.843 264.543C216.417 263.7 216.204 262.715 216.204 261.588C216.204 260.461 216.417 259.474 216.843 258.626C217.274 257.779 217.88 257.121 218.661 256.652C219.442 256.183 220.366 255.949 221.431 255.949C222.496 255.949 223.42 256.183 224.201 256.652C224.982 257.121 225.586 257.779 226.012 258.626C226.443 259.474 226.658 260.461 226.658 261.588C226.658 262.715 226.443 263.7 226.012 264.543C225.586 265.385 224.982 266.041 224.201 266.51C223.42 266.979 222.496 267.213 221.431 267.213ZM221.445 265.153C222.023 265.153 222.506 264.995 222.894 264.678C223.282 264.356 223.571 263.925 223.761 263.385C223.955 262.845 224.052 262.244 224.052 261.581C224.052 260.913 223.955 260.31 223.761 259.77C223.571 259.225 223.282 258.792 222.894 258.47C222.506 258.148 222.023 257.987 221.445 257.987C220.853 257.987 220.361 258.148 219.968 258.47C219.58 258.792 219.289 259.225 219.094 259.77C218.905 260.31 218.81 260.913 218.81 261.581C218.81 262.244 218.905 262.845 219.094 263.385C219.289 263.925 219.58 264.356 219.968 264.678C220.361 264.995 220.853 265.153 221.445 265.153ZM228.841 267V256.091H231.333V257.909H231.447C231.646 257.279 231.987 256.794 232.47 256.453C232.958 256.107 233.514 255.935 234.139 255.935C234.281 255.935 234.44 255.942 234.615 255.956C234.795 255.965 234.944 255.982 235.062 256.006V258.371C234.953 258.333 234.78 258.3 234.544 258.271C234.312 258.238 234.087 258.222 233.869 258.222C233.4 258.222 232.979 258.323 232.605 258.527C232.235 258.726 231.944 259.003 231.731 259.358C231.518 259.713 231.412 260.123 231.412 260.587V267H228.841Z" fill="#465551"/>
<path d="M2.17232 297V286.818H5.80158C6.59041 286.818 7.245 286.954 7.76536 287.226C8.28903 287.498 8.68013 287.874 8.93865 288.354C9.19718 288.832 9.32644 289.384 9.32644 290.01C9.32644 290.633 9.19552 291.182 8.93368 291.656C8.67516 292.126 8.28406 292.492 7.76039 292.754C7.24003 293.016 6.58543 293.147 5.79661 293.147H3.04732V291.825H5.6574C6.15456 291.825 6.55892 291.753 6.87047 291.611C7.18534 291.468 7.41569 291.261 7.56152 290.989C7.70736 290.718 7.78027 290.391 7.78027 290.01C7.78027 289.625 7.7057 289.292 7.55655 289.011C7.41072 288.729 7.18037 288.513 6.8655 288.364C6.55395 288.212 6.14462 288.136 5.63752 288.136H3.70854V297H2.17232ZM7.1986 292.406L9.71422 297H7.96422L5.49831 292.406H7.1986ZM14.2719 297.154C13.5196 297.154 12.8716 296.993 12.328 296.672C11.7878 296.347 11.3702 295.891 11.0752 295.305C10.7835 294.715 10.6377 294.024 10.6377 293.232C10.6377 292.449 10.7835 291.76 11.0752 291.163C11.3702 290.567 11.7812 290.101 12.3081 289.766C12.8385 289.432 13.4582 289.264 14.1675 289.264C14.5984 289.264 15.016 289.335 15.4204 289.478C15.8247 289.621 16.1876 289.844 16.5091 290.149C16.8306 290.454 17.0842 290.85 17.2698 291.337C17.4554 291.821 17.5482 292.41 17.5482 293.102V293.629H11.4779V292.516H16.0915C16.0915 292.125 16.012 291.778 15.8529 291.477C15.6938 291.172 15.4701 290.931 15.1817 290.756C14.8967 290.58 14.5619 290.492 14.1775 290.492C13.7599 290.492 13.3953 290.595 13.0837 290.8C12.7755 291.003 12.5368 291.268 12.3678 291.596C12.2021 291.921 12.1192 292.274 12.1192 292.655V293.525C12.1192 294.035 12.2087 294.469 12.3877 294.827C12.57 295.185 12.8235 295.459 13.1483 295.648C13.4732 295.833 13.8527 295.926 14.2868 295.926C14.5686 295.926 14.8254 295.886 15.0574 295.807C15.2894 295.724 15.49 295.601 15.659 295.439C15.828 295.277 15.9573 295.076 16.0468 294.837L17.4537 295.091C17.3411 295.505 17.1389 295.868 16.8472 296.18C16.5589 296.488 16.1959 296.728 15.7584 296.901C15.3242 297.07 14.8287 297.154 14.2719 297.154ZM24.9198 291.228L23.5725 291.467C23.5162 291.294 23.4267 291.13 23.3041 290.974C23.1847 290.819 23.0223 290.691 22.8169 290.592C22.6114 290.492 22.3545 290.442 22.0463 290.442C21.6253 290.442 21.274 290.537 20.9923 290.726C20.7106 290.911 20.5697 291.152 20.5697 291.447C20.5697 291.702 20.6642 291.907 20.8531 292.063C21.042 292.219 21.3469 292.347 21.7678 292.446L22.9809 292.724C23.6836 292.887 24.2072 293.137 24.5519 293.475C24.8966 293.813 25.069 294.252 25.069 294.793C25.069 295.25 24.9364 295.658 24.6713 296.016C24.4094 296.37 24.0432 296.649 23.5725 296.851C23.1052 297.053 22.5633 297.154 21.9468 297.154C21.0917 297.154 20.394 296.972 19.8538 296.607C19.3135 296.239 18.9821 295.717 18.8595 295.041L20.2963 294.822C20.3857 295.197 20.5697 295.48 20.8481 295.673C21.1265 295.862 21.4894 295.956 21.9369 295.956C22.4241 295.956 22.8135 295.855 23.1052 295.653C23.3969 295.447 23.5427 295.197 23.5427 294.902C23.5427 294.663 23.4532 294.463 23.2742 294.3C23.0986 294.138 22.8285 294.015 22.4639 293.933L21.1713 293.649C20.4587 293.487 19.9317 293.228 19.5903 292.874C19.2522 292.519 19.0832 292.07 19.0832 291.526C19.0832 291.076 19.2091 290.681 19.461 290.343C19.7129 290.005 20.0609 289.741 20.5051 289.553C20.9492 289.36 21.4579 289.264 22.0313 289.264C22.8566 289.264 23.5062 289.443 23.9802 289.801C24.4542 290.156 24.7674 290.631 24.9198 291.228ZM30.268 289.364V290.557H26.0969V289.364H30.268ZM27.2155 287.534H28.702V294.758C28.702 295.046 28.7451 295.263 28.8312 295.409C28.9174 295.552 29.0284 295.649 29.1643 295.702C29.3035 295.752 29.4543 295.777 29.6167 295.777C29.7361 295.777 29.8405 295.769 29.93 295.752C30.0194 295.736 30.089 295.722 30.1388 295.712L30.4072 296.94C30.3211 296.973 30.1984 297.007 30.0393 297.04C29.8802 297.076 29.6814 297.096 29.4427 297.099C29.0516 297.106 28.6871 297.036 28.349 296.891C28.0109 296.745 27.7375 296.519 27.5287 296.214C27.3199 295.91 27.2155 295.527 27.2155 295.066V287.534ZM34.1347 297.169C33.6508 297.169 33.2133 297.08 32.8222 296.901C32.4311 296.718 32.1212 296.455 31.8925 296.11C31.6671 295.765 31.5544 295.343 31.5544 294.842C31.5544 294.411 31.6373 294.057 31.803 293.778C31.9687 293.5 32.1924 293.28 32.4742 293.117C32.7559 292.955 33.0708 292.832 33.4188 292.749C33.7668 292.666 34.1214 292.603 34.4827 292.56C34.9401 292.507 35.3113 292.464 35.5963 292.431C35.8814 292.395 36.0885 292.337 36.2178 292.257C36.347 292.178 36.4117 292.048 36.4117 291.869V291.835C36.4117 291.4 36.289 291.064 36.0438 290.825C35.8018 290.587 35.4405 290.467 34.96 290.467C34.4595 290.467 34.0651 290.578 33.7767 290.8C33.4917 291.019 33.2945 291.263 33.1851 291.531L31.7881 291.213C31.9538 290.749 32.1958 290.375 32.5139 290.089C32.8354 289.801 33.205 289.592 33.6226 289.463C34.0402 289.33 34.4794 289.264 34.9401 289.264C35.245 289.264 35.5682 289.301 35.9095 289.374C36.2542 289.443 36.5757 289.572 36.874 289.761C37.1756 289.95 37.4226 290.22 37.6148 290.572C37.807 290.92 37.9031 291.372 37.9031 291.929V297H36.4514V295.956H36.3918C36.2957 296.148 36.1515 296.337 35.9593 296.523C35.767 296.708 35.5201 296.862 35.2185 296.985C34.9169 297.108 34.5556 297.169 34.1347 297.169ZM34.4578 295.976C34.8688 295.976 35.2201 295.895 35.5118 295.732C35.8068 295.57 36.0305 295.358 36.183 295.096C36.3387 294.831 36.4166 294.547 36.4166 294.246V293.261C36.3636 293.314 36.2609 293.364 36.1084 293.411C35.9593 293.454 35.7886 293.492 35.5963 293.525C35.4041 293.555 35.2168 293.583 35.0345 293.609C34.8522 293.633 34.6998 293.652 34.5771 293.669C34.2888 293.705 34.0253 293.767 33.7867 293.853C33.5513 293.939 33.3624 294.063 33.2199 294.226C33.0807 294.385 33.0111 294.597 33.0111 294.862C33.0111 295.23 33.147 295.509 33.4188 295.697C33.6905 295.883 34.0369 295.976 34.4578 295.976ZM39.8831 297V289.364H41.3199V290.577H41.3994C41.5386 290.166 41.7839 289.843 42.1352 289.607C42.4898 289.369 42.8909 289.249 43.3383 289.249C43.4311 289.249 43.5405 289.253 43.6665 289.259C43.7957 289.266 43.8968 289.274 43.9697 289.284V290.706C43.9101 290.689 43.804 290.671 43.6515 290.651C43.4991 290.628 43.3466 290.616 43.1942 290.616C42.8428 290.616 42.5296 290.691 42.2545 290.84C41.9827 290.986 41.7673 291.19 41.6082 291.452C41.4491 291.71 41.3696 292.005 41.3696 292.337V297H39.8831ZM49.2719 289.364V290.557H45.1008V289.364H49.2719ZM46.2194 287.534H47.7059V294.758C47.7059 295.046 47.749 295.263 47.8351 295.409C47.9213 295.552 48.0323 295.649 48.1682 295.702C48.3074 295.752 48.4582 295.777 48.6206 295.777C48.74 295.777 48.8444 295.769 48.9339 295.752C49.0233 295.736 49.093 295.722 49.1427 295.712L49.4111 296.94C49.325 296.973 49.2023 297.007 49.0432 297.04C48.8841 297.076 48.6853 297.096 48.4466 297.099C48.0555 297.106 47.691 297.036 47.3529 296.891C47.0148 296.745 46.7414 296.519 46.5326 296.214C46.3238 295.91 46.2194 295.527 46.2194 295.066V287.534ZM54.2385 288.141V286.818H62.1185V288.141H58.9417V297H57.4104V288.141H54.2385ZM65.227 292.466V297H63.7405V286.818H65.2071V290.607H65.3016C65.4806 290.196 65.754 289.869 66.1219 289.627C66.4898 289.385 66.9704 289.264 67.5637 289.264C68.0873 289.264 68.5447 289.372 68.9358 289.587C69.3302 289.803 69.6352 290.124 69.8506 290.552C70.0693 290.976 70.1787 291.506 70.1787 292.143V297H68.6922V292.322C68.6922 291.762 68.548 291.327 68.2597 291.019C67.9713 290.708 67.5703 290.552 67.0566 290.552C66.7052 290.552 66.3904 290.626 66.1119 290.776C65.8369 290.925 65.6198 291.143 65.4607 291.432C65.3049 291.717 65.227 292.062 65.227 292.466ZM75.4536 297.154C74.7012 297.154 74.0532 296.993 73.5097 296.672C72.9694 296.347 72.5518 295.891 72.2568 295.305C71.9652 294.715 71.8193 294.024 71.8193 293.232C71.8193 292.449 71.9652 291.76 72.2568 291.163C72.5518 290.567 72.9628 290.101 73.4898 289.766C74.0201 289.432 74.6399 289.264 75.3492 289.264C75.78 289.264 76.1977 289.335 76.602 289.478C77.0064 289.621 77.3693 289.844 77.6908 290.149C78.0123 290.454 78.2658 290.85 78.4514 291.337C78.637 291.821 78.7298 292.41 78.7298 293.102V293.629H72.6595V292.516H77.2732C77.2732 292.125 77.1936 291.778 77.0345 291.477C76.8754 291.172 76.6517 290.931 76.3634 290.756C76.0783 290.58 75.7436 290.492 75.3591 290.492C74.9415 290.492 74.5769 290.595 74.2654 290.8C73.9571 291.003 73.7185 291.268 73.5494 291.596C73.3837 291.921 73.3009 292.274 73.3009 292.655V293.525C73.3009 294.035 73.3904 294.469 73.5693 294.827C73.7516 295.185 74.0052 295.459 74.33 295.648C74.6548 295.833 75.0343 295.926 75.4685 295.926C75.7502 295.926 76.0071 295.886 76.2391 295.807C76.4711 295.724 76.6716 295.601 76.8406 295.439C77.0097 295.277 77.1389 295.076 77.2284 294.837L78.6354 295.091C78.5227 295.505 78.3205 295.868 78.0289 296.18C77.7405 296.488 77.3776 296.728 76.9401 296.901C76.5059 297.07 76.0104 297.154 75.4536 297.154ZM89.7568 289.493C89.7038 289.022 89.4851 288.658 89.1006 288.399C88.7161 288.137 88.2322 288.006 87.6489 288.006C87.2313 288.006 86.87 288.073 86.5651 288.205C86.2602 288.335 86.0232 288.513 85.8541 288.742C85.6884 288.968 85.6056 289.224 85.6056 289.513C85.6056 289.755 85.6619 289.964 85.7746 290.139C85.8906 290.315 86.0414 290.462 86.227 290.582C86.4159 290.698 86.6181 290.795 86.8335 290.875C87.049 290.951 87.2561 291.014 87.455 291.064L88.4493 291.322C88.7741 291.402 89.1072 291.51 89.4486 291.646C89.79 291.781 90.1065 291.96 90.3982 292.183C90.6898 292.405 90.9252 292.68 91.1041 293.008C91.2864 293.336 91.3776 293.729 91.3776 294.186C91.3776 294.763 91.2284 295.275 90.9301 295.722C90.6352 296.17 90.2059 296.523 89.6425 296.781C89.0824 297.04 88.4046 297.169 87.6091 297.169C86.8468 297.169 86.1872 297.048 85.6304 296.806C85.0736 296.564 84.6378 296.221 84.3229 295.777C84.008 295.33 83.834 294.799 83.8009 294.186H85.3421C85.3719 294.554 85.4912 294.861 85.7 295.106C85.9121 295.348 86.1823 295.528 86.5104 295.648C86.8418 295.764 87.2048 295.822 87.5992 295.822C88.0334 295.822 88.4195 295.754 88.7575 295.618C89.0989 295.479 89.3674 295.286 89.5629 295.041C89.7585 294.793 89.8563 294.503 89.8563 294.171C89.8563 293.87 89.7701 293.623 89.5977 293.43C89.4287 293.238 89.1984 293.079 88.9067 292.953C88.6183 292.827 88.2919 292.716 87.9273 292.62L86.7242 292.292C85.9088 292.07 85.2625 291.743 84.7852 291.312C84.3113 290.882 84.0743 290.312 84.0743 289.602C84.0743 289.016 84.2334 288.504 84.5516 288.066C84.8698 287.629 85.3006 287.289 85.8442 287.047C86.3878 286.802 87.0009 286.679 87.6837 286.679C88.3731 286.679 88.9813 286.8 89.5083 287.042C90.0386 287.284 90.4562 287.617 90.7611 288.041C91.066 288.462 91.2251 288.946 91.2384 289.493H89.7568ZM96.3852 297.154C95.6328 297.154 94.9849 296.993 94.4413 296.672C93.9011 296.347 93.4835 295.891 93.1885 295.305C92.8968 294.715 92.751 294.024 92.751 293.232C92.751 292.449 92.8968 291.76 93.1885 291.163C93.4835 290.567 93.8944 290.101 94.4214 289.766C94.9517 289.432 95.5715 289.264 96.2808 289.264C96.7117 289.264 97.1293 289.335 97.5336 289.478C97.938 289.621 98.3009 289.844 98.6224 290.149C98.9439 290.454 99.1975 290.85 99.3831 291.337C99.5687 291.821 99.6615 292.41 99.6615 293.102V293.629H93.5912V292.516H98.2048C98.2048 292.125 98.1253 291.778 97.9662 291.477C97.8071 291.172 97.5834 290.931 97.295 290.756C97.01 290.58 96.6752 290.492 96.2907 290.492C95.8731 290.492 95.5086 290.595 95.197 290.8C94.8888 291.003 94.6501 291.268 94.4811 291.596C94.3154 291.921 94.2325 292.274 94.2325 292.655V293.525C94.2325 294.035 94.322 294.469 94.501 294.827C94.6833 295.185 94.9368 295.459 95.2616 295.648C95.5864 295.833 95.9659 295.926 96.4001 295.926C96.6818 295.926 96.9387 295.886 97.1707 295.807C97.4027 295.724 97.6032 295.601 97.7723 295.439C97.9413 295.277 98.0706 295.076 98.1601 294.837L99.567 295.091C99.4543 295.505 99.2522 295.868 98.9605 296.18C98.6721 296.488 98.3092 296.728 97.8717 296.901C97.4375 297.07 96.942 297.154 96.3852 297.154ZM101.311 297V289.364H102.748V290.577H102.827C102.966 290.166 103.212 289.843 103.563 289.607C103.918 289.369 104.319 289.249 104.766 289.249C104.859 289.249 104.968 289.253 105.094 289.259C105.223 289.266 105.325 289.274 105.397 289.284V290.706C105.338 290.689 105.232 290.671 105.079 290.651C104.927 290.628 104.774 290.616 104.622 290.616C104.271 290.616 103.957 290.691 103.682 290.84C103.41 290.986 103.195 291.19 103.036 291.452C102.877 291.71 102.797 292.005 102.797 292.337V297H101.311ZM113.449 289.364L110.68 297H109.089L106.315 289.364H107.911L109.845 295.24H109.924L111.853 289.364H113.449ZM117.877 297.154C117.125 297.154 116.477 296.993 115.934 296.672C115.393 296.347 114.976 295.891 114.681 295.305C114.389 294.715 114.243 294.024 114.243 293.232C114.243 292.449 114.389 291.76 114.681 291.163C114.976 290.567 115.387 290.101 115.914 289.766C116.444 289.432 117.064 289.264 117.773 289.264C118.204 289.264 118.621 289.335 119.026 289.478C119.43 289.621 119.793 289.844 120.115 290.149C120.436 290.454 120.69 290.85 120.875 291.337C121.061 291.821 121.154 292.41 121.154 293.102V293.629H115.083V292.516H119.697C119.697 292.125 119.617 291.778 119.458 291.477C119.299 291.172 119.076 290.931 118.787 290.756C118.502 290.58 118.167 290.492 117.783 290.492C117.365 290.492 117.001 290.595 116.689 290.8C116.381 291.003 116.142 291.268 115.973 291.596C115.808 291.921 115.725 292.274 115.725 292.655V293.525C115.725 294.035 115.814 294.469 115.993 294.827C116.175 295.185 116.429 295.459 116.754 295.648C117.079 295.833 117.458 295.926 117.892 295.926C118.174 295.926 118.431 295.886 118.663 295.807C118.895 295.724 119.095 295.601 119.264 295.439C119.434 295.277 119.563 295.076 119.652 294.837L121.059 295.091C120.947 295.505 120.744 295.868 120.453 296.18C120.164 296.488 119.801 296.728 119.364 296.901C118.93 297.07 118.434 297.154 117.877 297.154ZM122.803 297V289.364H124.24V290.577H124.319C124.459 290.166 124.704 289.843 125.055 289.607C125.41 289.369 125.811 289.249 126.258 289.249C126.351 289.249 126.46 289.253 126.586 289.259C126.716 289.266 126.817 289.274 126.89 289.284V290.706C126.83 290.689 126.724 290.671 126.571 290.651C126.419 290.628 126.267 290.616 126.114 290.616C125.763 290.616 125.45 290.691 125.174 290.84C124.903 290.986 124.687 291.19 124.528 291.452C124.369 291.71 124.29 292.005 124.29 292.337V297H122.803ZM140.845 291.909C140.845 292.996 140.646 293.931 140.248 294.713C139.851 295.492 139.305 296.092 138.613 296.513C137.923 296.93 137.139 297.139 136.261 297.139C135.379 297.139 134.592 296.93 133.9 296.513C133.21 296.092 132.667 295.49 132.269 294.708C131.871 293.926 131.672 292.993 131.672 291.909C131.672 290.822 131.871 289.889 132.269 289.11C132.667 288.328 133.21 287.728 133.9 287.31C134.592 286.889 135.379 286.679 136.261 286.679C137.139 286.679 137.923 286.889 138.613 287.31C139.305 287.728 139.851 288.328 140.248 289.11C140.646 289.889 140.845 290.822 140.845 291.909ZM139.324 291.909C139.324 291.08 139.189 290.383 138.921 289.816C138.656 289.246 138.291 288.815 137.827 288.523C137.366 288.228 136.844 288.081 136.261 288.081C135.674 288.081 135.151 288.228 134.69 288.523C134.229 288.815 133.865 289.246 133.596 289.816C133.331 290.383 133.199 291.08 133.199 291.909C133.199 292.738 133.331 293.437 133.596 294.007C133.865 294.574 134.229 295.005 134.69 295.3C135.151 295.591 135.674 295.737 136.261 295.737C136.844 295.737 137.366 295.591 137.827 295.3C138.291 295.005 138.656 294.574 138.921 294.007C139.189 293.437 139.324 292.738 139.324 291.909ZM142.641 297V289.364H144.078V290.577H144.157C144.296 290.166 144.542 289.843 144.893 289.607C145.248 289.369 145.649 289.249 146.096 289.249C146.189 289.249 146.298 289.253 146.424 289.259C146.554 289.266 146.655 289.274 146.728 289.284V290.706C146.668 290.689 146.562 290.671 146.409 290.651C146.257 290.628 146.104 290.616 145.952 290.616C145.601 290.616 145.287 290.691 145.012 290.84C144.741 290.986 144.525 291.19 144.366 291.452C144.207 291.71 144.127 292.005 144.127 292.337V297H142.641ZM153.832 297L151.008 286.818H152.624L154.608 294.703H154.702L156.765 286.818H158.366L160.429 294.708H160.524L162.502 286.818H164.123L161.294 297H159.748L157.605 289.374H157.526L155.383 297H153.832ZM167.944 297.154C167.191 297.154 166.543 296.993 166 296.672C165.46 296.347 165.042 295.891 164.747 295.305C164.455 294.715 164.31 294.024 164.31 293.232C164.31 292.449 164.455 291.76 164.747 291.163C165.042 290.567 165.453 290.101 165.98 289.766C166.51 289.432 167.13 289.264 167.839 289.264C168.27 289.264 168.688 289.335 169.092 289.478C169.497 289.621 169.86 289.844 170.181 290.149C170.503 290.454 170.756 290.85 170.942 291.337C171.127 291.821 171.22 292.41 171.22 293.102V293.629H165.15V292.516H169.763C169.763 292.125 169.684 291.778 169.525 291.477C169.366 291.172 169.142 290.931 168.854 290.756C168.569 290.58 168.234 290.492 167.849 290.492C167.432 290.492 167.067 290.595 166.756 290.8C166.447 291.003 166.209 291.268 166.04 291.596C165.874 291.921 165.791 292.274 165.791 292.655V293.525C165.791 294.035 165.881 294.469 166.06 294.827C166.242 295.185 166.495 295.459 166.82 295.648C167.145 295.833 167.525 295.926 167.959 295.926C168.24 295.926 168.497 295.886 168.729 295.807C168.961 295.724 169.162 295.601 169.331 295.439C169.5 295.277 169.629 295.076 169.719 294.837L171.126 295.091C171.013 295.505 170.811 295.868 170.519 296.18C170.231 296.488 169.868 296.728 169.43 296.901C168.996 297.07 168.501 297.154 167.944 297.154ZM172.989 297V286.818H174.475V290.602H174.565C174.651 290.442 174.775 290.259 174.938 290.05C175.1 289.841 175.325 289.659 175.614 289.503C175.902 289.344 176.283 289.264 176.757 289.264C177.374 289.264 177.924 289.42 178.408 289.732C178.892 290.043 179.271 290.492 179.546 291.079C179.825 291.665 179.964 292.371 179.964 293.197C179.964 294.022 179.826 294.73 179.551 295.32C179.276 295.906 178.898 296.359 178.418 296.677C177.937 296.992 177.389 297.149 176.772 297.149C176.308 297.149 175.929 297.071 175.634 296.915C175.342 296.76 175.113 296.577 174.948 296.369C174.782 296.16 174.654 295.974 174.565 295.812H174.44V297H172.989ZM174.445 293.182C174.445 293.719 174.523 294.189 174.679 294.594C174.835 294.998 175.06 295.315 175.355 295.543C175.65 295.769 176.011 295.881 176.439 295.881C176.883 295.881 177.254 295.764 177.553 295.528C177.851 295.29 178.076 294.967 178.229 294.559C178.385 294.151 178.462 293.692 178.462 293.182C178.462 292.678 178.386 292.226 178.234 291.825C178.085 291.424 177.859 291.107 177.558 290.875C177.259 290.643 176.886 290.527 176.439 290.527C176.008 290.527 175.644 290.638 175.345 290.86C175.05 291.082 174.827 291.392 174.674 291.79C174.522 292.187 174.445 292.652 174.445 293.182ZM191.011 289.493C190.958 289.022 190.739 288.658 190.354 288.399C189.97 288.137 189.486 288.006 188.903 288.006C188.485 288.006 188.124 288.073 187.819 288.205C187.514 288.335 187.277 288.513 187.108 288.742C186.942 288.968 186.859 289.224 186.859 289.513C186.859 289.755 186.916 289.964 187.028 290.139C187.145 290.315 187.295 290.462 187.481 290.582C187.67 290.698 187.872 290.795 188.087 290.875C188.303 290.951 188.51 291.014 188.709 291.064L189.703 291.322C190.028 291.402 190.361 291.51 190.703 291.646C191.044 291.781 191.36 291.96 191.652 292.183C191.944 292.405 192.179 292.68 192.358 293.008C192.54 293.336 192.631 293.729 192.631 294.186C192.631 294.763 192.482 295.275 192.184 295.722C191.889 296.17 191.46 296.523 190.896 296.781C190.336 297.04 189.658 297.169 188.863 297.169C188.101 297.169 187.441 297.048 186.884 296.806C186.328 296.564 185.892 296.221 185.577 295.777C185.262 295.33 185.088 294.799 185.055 294.186H186.596C186.626 294.554 186.745 294.861 186.954 295.106C187.166 295.348 187.436 295.528 187.764 295.648C188.096 295.764 188.459 295.822 188.853 295.822C189.287 295.822 189.673 295.754 190.011 295.618C190.353 295.479 190.621 295.286 190.817 295.041C191.012 294.793 191.11 294.503 191.11 294.171C191.11 293.87 191.024 293.623 190.852 293.43C190.683 293.238 190.452 293.079 190.161 292.953C189.872 292.827 189.546 292.716 189.181 292.62L187.978 292.292C187.163 292.07 186.516 291.743 186.039 291.312C185.565 290.882 185.328 290.312 185.328 289.602C185.328 289.016 185.487 288.504 185.805 288.066C186.124 287.629 186.555 287.289 187.098 287.047C187.642 286.802 188.255 286.679 188.938 286.679C189.627 286.679 190.235 286.8 190.762 287.042C191.292 287.284 191.71 287.617 192.015 288.041C192.32 288.462 192.479 288.946 192.492 289.493H191.011ZM197.639 297.154C196.887 297.154 196.239 296.993 195.695 296.672C195.155 296.347 194.737 295.891 194.442 295.305C194.151 294.715 194.005 294.024 194.005 293.232C194.005 292.449 194.151 291.76 194.442 291.163C194.737 290.567 195.148 290.101 195.675 289.766C196.206 289.432 196.825 289.264 197.535 289.264C197.966 289.264 198.383 289.335 198.788 289.478C199.192 289.621 199.555 289.844 199.876 290.149C200.198 290.454 200.451 290.85 200.637 291.337C200.823 291.821 200.915 292.41 200.915 293.102V293.629H194.845V292.516H199.459C199.459 292.125 199.379 291.778 199.22 291.477C199.061 291.172 198.837 290.931 198.549 290.756C198.264 290.58 197.929 290.492 197.545 290.492C197.127 290.492 196.762 290.595 196.451 290.8C196.143 291.003 195.904 291.268 195.735 291.596C195.569 291.921 195.486 292.274 195.486 292.655V293.525C195.486 294.035 195.576 294.469 195.755 294.827C195.937 295.185 196.191 295.459 196.516 295.648C196.84 295.833 197.22 295.926 197.654 295.926C197.936 295.926 198.193 295.886 198.425 295.807C198.657 295.724 198.857 295.601 199.026 295.439C199.195 295.277 199.324 295.076 199.414 294.837L200.821 295.091C200.708 295.505 200.506 295.868 200.214 296.18C199.926 296.488 199.563 296.728 199.126 296.901C198.691 297.07 198.196 297.154 197.639 297.154ZM202.565 297V289.364H204.002V290.577H204.081C204.22 290.166 204.466 289.843 204.817 289.607C205.171 289.369 205.573 289.249 206.02 289.249C206.113 289.249 206.222 289.253 206.348 289.259C206.477 289.266 206.578 289.274 206.651 289.284V290.706C206.592 290.689 206.486 290.671 206.333 290.651C206.181 290.628 206.028 290.616 205.876 290.616C205.524 290.616 205.211 290.691 204.936 290.84C204.664 290.986 204.449 291.19 204.29 291.452C204.131 291.71 204.051 292.005 204.051 292.337V297H202.565ZM214.703 289.364L211.934 297H210.343L207.569 289.364H209.165L211.098 295.24H211.178L213.107 289.364H214.703ZM216.1 297V289.364H217.586V297H216.1ZM216.851 288.185C216.592 288.185 216.37 288.099 216.184 287.927C216.002 287.751 215.911 287.542 215.911 287.3C215.911 287.055 216.002 286.846 216.184 286.674C216.37 286.498 216.592 286.411 216.851 286.411C217.109 286.411 217.33 286.498 217.512 286.674C217.697 286.846 217.79 287.055 217.79 287.3C217.79 287.542 217.697 287.751 217.512 287.927C217.33 288.099 217.109 288.185 216.851 288.185ZM222.803 297.154C222.064 297.154 221.427 296.987 220.894 296.652C220.363 296.314 219.956 295.848 219.671 295.255C219.386 294.662 219.243 293.982 219.243 293.217C219.243 292.441 219.389 291.757 219.681 291.163C219.972 290.567 220.383 290.101 220.914 289.766C221.444 289.432 222.069 289.264 222.788 289.264C223.368 289.264 223.885 289.372 224.339 289.587C224.793 289.799 225.159 290.098 225.438 290.482C225.719 290.867 225.887 291.316 225.94 291.83H224.493C224.414 291.472 224.231 291.163 223.946 290.905C223.665 290.646 223.287 290.517 222.813 290.517C222.398 290.517 222.036 290.626 221.724 290.845C221.416 291.061 221.175 291.369 221.003 291.77C220.831 292.168 220.745 292.638 220.745 293.182C220.745 293.739 220.829 294.219 220.998 294.624C221.167 295.028 221.406 295.341 221.714 295.563C222.026 295.785 222.392 295.896 222.813 295.896C223.094 295.896 223.35 295.845 223.578 295.742C223.81 295.636 224.004 295.485 224.16 295.29C224.319 295.094 224.43 294.859 224.493 294.584H225.94C225.887 295.078 225.726 295.518 225.458 295.906C225.189 296.294 224.83 296.599 224.379 296.821C223.931 297.043 223.406 297.154 222.803 297.154ZM230.821 297.154C230.068 297.154 229.42 296.993 228.877 296.672C228.337 296.347 227.919 295.891 227.624 295.305C227.332 294.715 227.187 294.024 227.187 293.232C227.187 292.449 227.332 291.76 227.624 291.163C227.919 290.567 228.33 290.101 228.857 289.766C229.387 289.432 230.007 289.264 230.716 289.264C231.147 289.264 231.565 289.335 231.969 289.478C232.374 289.621 232.736 289.844 233.058 290.149C233.379 290.454 233.633 290.85 233.819 291.337C234.004 291.821 234.097 292.41 234.097 293.102V293.629H228.027V292.516H232.64C232.64 292.125 232.561 291.778 232.402 291.477C232.243 291.172 232.019 290.931 231.731 290.756C231.446 290.58 231.111 290.492 230.726 290.492C230.309 290.492 229.944 290.595 229.633 290.8C229.324 291.003 229.086 291.268 228.917 291.596C228.751 291.921 228.668 292.274 228.668 292.655V293.525C228.668 294.035 228.758 294.469 228.937 294.827C229.119 295.185 229.372 295.459 229.697 295.648C230.022 295.833 230.401 295.926 230.836 295.926C231.117 295.926 231.374 295.886 231.606 295.807C231.838 295.724 232.039 295.601 232.208 295.439C232.377 295.277 232.506 295.076 232.596 294.837L234.003 295.091C233.89 295.505 233.688 295.868 233.396 296.18C233.108 296.488 232.745 296.728 232.307 296.901C231.873 297.07 231.378 297.154 230.821 297.154ZM239.069 288.141V286.818H246.949V288.141H243.772V297H242.241V288.141H239.069ZM250.68 297.154C249.964 297.154 249.339 296.99 248.805 296.662C248.272 296.334 247.858 295.875 247.563 295.285C247.268 294.695 247.12 294.005 247.12 293.217C247.12 292.424 247.268 291.732 247.563 291.138C247.858 290.545 248.272 290.085 248.805 289.756C249.339 289.428 249.964 289.264 250.68 289.264C251.396 289.264 252.02 289.428 252.554 289.756C253.088 290.085 253.502 290.545 253.797 291.138C254.092 291.732 254.239 292.424 254.239 293.217C254.239 294.005 254.092 294.695 253.797 295.285C253.502 295.875 253.088 296.334 252.554 296.662C252.02 296.99 251.396 297.154 250.68 297.154ZM250.685 295.906C251.149 295.906 251.533 295.784 251.838 295.538C252.143 295.293 252.368 294.967 252.514 294.559C252.663 294.151 252.738 293.702 252.738 293.212C252.738 292.724 252.663 292.277 252.514 291.869C252.368 291.458 252.143 291.129 251.838 290.88C251.533 290.631 251.149 290.507 250.685 290.507C250.217 290.507 249.83 290.631 249.521 290.88C249.216 291.129 248.989 291.458 248.84 291.869C248.694 292.277 248.622 292.724 248.622 293.212C248.622 293.702 248.694 294.151 248.84 294.559C248.989 294.967 249.216 295.293 249.521 295.538C249.83 295.784 250.217 295.906 250.685 295.906ZM268.18 290.129H266.629C266.569 289.798 266.458 289.506 266.296 289.254C266.133 289.002 265.934 288.789 265.699 288.613C265.464 288.437 265.2 288.305 264.908 288.215C264.62 288.126 264.314 288.081 263.989 288.081C263.402 288.081 262.877 288.228 262.413 288.523C261.952 288.818 261.587 289.251 261.319 289.821C261.054 290.391 260.921 291.087 260.921 291.909C260.921 292.738 261.054 293.437 261.319 294.007C261.587 294.577 261.954 295.008 262.418 295.3C262.882 295.591 263.404 295.737 263.984 295.737C264.305 295.737 264.61 295.694 264.899 295.608C265.19 295.518 265.454 295.388 265.689 295.215C265.924 295.043 266.123 294.832 266.286 294.584C266.451 294.332 266.566 294.044 266.629 293.719L268.18 293.724C268.097 294.224 267.936 294.685 267.698 295.106C267.462 295.523 267.159 295.885 266.788 296.19C266.42 296.491 265.999 296.725 265.525 296.891C265.051 297.056 264.534 297.139 263.974 297.139C263.092 297.139 262.307 296.93 261.617 296.513C260.928 296.092 260.384 295.49 259.987 294.708C259.592 293.926 259.395 292.993 259.395 291.909C259.395 290.822 259.594 289.889 259.992 289.11C260.389 288.328 260.933 287.728 261.622 287.31C262.312 286.889 263.095 286.679 263.974 286.679C264.514 286.679 265.018 286.757 265.485 286.913C265.956 287.065 266.378 287.29 266.753 287.589C267.127 287.884 267.437 288.245 267.683 288.673C267.928 289.097 268.094 289.582 268.18 290.129ZM271.385 286.818V297H269.899V286.818H271.385ZM276.676 297.154C275.924 297.154 275.276 296.993 274.732 296.672C274.192 296.347 273.774 295.891 273.479 295.305C273.188 294.715 273.042 294.024 273.042 293.232C273.042 292.449 273.188 291.76 273.479 291.163C273.774 290.567 274.185 290.101 274.712 289.766C275.243 289.432 275.863 289.264 276.572 289.264C277.003 289.264 277.42 289.335 277.825 289.478C278.229 289.621 278.592 289.844 278.913 290.149C279.235 290.454 279.488 290.85 279.674 291.337C279.86 291.821 279.953 292.41 279.953 293.102V293.629H273.882V292.516H278.496C278.496 292.125 278.416 291.778 278.257 291.477C278.098 291.172 277.874 290.931 277.586 290.756C277.301 290.58 276.966 290.492 276.582 290.492C276.164 290.492 275.8 290.595 275.488 290.8C275.18 291.003 274.941 291.268 274.772 291.596C274.606 291.921 274.524 292.274 274.524 292.655V293.525C274.524 294.035 274.613 294.469 274.792 294.827C274.974 295.185 275.228 295.459 275.553 295.648C275.877 295.833 276.257 295.926 276.691 295.926C276.973 295.926 277.23 295.886 277.462 295.807C277.694 295.724 277.894 295.601 278.063 295.439C278.232 295.277 278.362 295.076 278.451 294.837L279.858 295.091C279.745 295.505 279.543 295.868 279.252 296.18C278.963 296.488 278.6 296.728 278.163 296.901C277.729 297.07 277.233 297.154 276.676 297.154ZM283.824 297.169C283.34 297.169 282.903 297.08 282.512 296.901C282.121 296.718 281.811 296.455 281.582 296.11C281.357 295.765 281.244 295.343 281.244 294.842C281.244 294.411 281.327 294.057 281.492 293.778C281.658 293.5 281.882 293.28 282.164 293.117C282.445 292.955 282.76 292.832 283.108 292.749C283.456 292.666 283.811 292.603 284.172 292.56C284.63 292.507 285.001 292.464 285.286 292.431C285.571 292.395 285.778 292.337 285.907 292.257C286.036 292.178 286.101 292.048 286.101 291.869V291.835C286.101 291.4 285.978 291.064 285.733 290.825C285.491 290.587 285.13 290.467 284.649 290.467C284.149 290.467 283.755 290.578 283.466 290.8C283.181 291.019 282.984 291.263 282.875 291.531L281.478 291.213C281.643 290.749 281.885 290.375 282.203 290.089C282.525 289.801 282.894 289.592 283.312 289.463C283.73 289.33 284.169 289.264 284.63 289.264C284.934 289.264 285.258 289.301 285.599 289.374C285.944 289.443 286.265 289.572 286.563 289.761C286.865 289.95 287.112 290.22 287.304 290.572C287.496 290.92 287.593 291.372 287.593 291.929V297H286.141V295.956H286.081C285.985 296.148 285.841 296.337 285.649 296.523C285.456 296.708 285.21 296.862 284.908 296.985C284.606 297.108 284.245 297.169 283.824 297.169ZM284.147 295.976C284.558 295.976 284.91 295.895 285.201 295.732C285.496 295.57 285.72 295.358 285.872 295.096C286.028 294.831 286.106 294.547 286.106 294.246V293.261C286.053 293.314 285.95 293.364 285.798 293.411C285.649 293.454 285.478 293.492 285.286 293.525C285.094 293.555 284.906 293.583 284.724 293.609C284.542 293.633 284.389 293.652 284.267 293.669C283.978 293.705 283.715 293.767 283.476 293.853C283.241 293.939 283.052 294.063 282.909 294.226C282.77 294.385 282.701 294.597 282.701 294.862C282.701 295.23 282.836 295.509 283.108 295.697C283.38 295.883 283.726 295.976 284.147 295.976ZM289.573 297V289.364H291.009V290.577H291.089C291.228 290.166 291.473 289.843 291.825 289.607C292.179 289.369 292.58 289.249 293.028 289.249C293.121 289.249 293.23 289.253 293.356 289.259C293.485 289.266 293.586 289.274 293.659 289.284V290.706C293.6 290.689 293.493 290.671 293.341 290.651C293.189 290.628 293.036 290.616 292.884 290.616C292.532 290.616 292.219 290.691 291.944 290.84C291.672 290.986 291.457 291.19 291.298 291.452C291.139 291.71 291.059 292.005 291.059 292.337V297H289.573ZM88.6028 308.141V306.818H96.4828V308.141H93.3059V317H91.7747V308.141H88.6028ZM100.289 317.154C99.5362 317.154 98.8882 316.993 98.3446 316.672C97.8044 316.347 97.3868 315.891 97.0918 315.305C96.8001 314.715 96.6543 314.024 96.6543 313.232C96.6543 312.449 96.8001 311.76 97.0918 311.163C97.3868 310.567 97.7978 310.101 98.3248 309.766C98.8551 309.432 99.4748 309.264 100.184 309.264C100.615 309.264 101.033 309.335 101.437 309.478C101.841 309.621 102.204 309.844 102.526 310.149C102.847 310.454 103.101 310.85 103.286 311.337C103.472 311.821 103.565 312.41 103.565 313.102V313.629H97.4945V312.516H102.108C102.108 312.125 102.029 311.778 101.869 311.477C101.71 311.172 101.487 310.931 101.198 310.756C100.913 310.58 100.579 310.492 100.194 310.492C99.7765 310.492 99.4119 310.595 99.1003 310.8C98.7921 311.003 98.5534 311.268 98.3844 311.596C98.2187 311.921 98.1358 312.274 98.1358 312.655V313.525C98.1358 314.035 98.2253 314.469 98.4043 314.827C98.5866 315.185 98.8401 315.459 99.165 315.648C99.4898 315.833 99.8693 315.926 100.303 315.926C100.585 315.926 100.842 315.886 101.074 315.807C101.306 315.724 101.507 315.601 101.676 315.439C101.845 315.277 101.974 315.076 102.063 314.837L103.47 315.091C103.358 315.505 103.155 315.868 102.864 316.18C102.575 316.488 102.213 316.728 101.775 316.901C101.341 317.07 100.845 317.154 100.289 317.154ZM105.214 317V309.364H106.641V310.607H106.735C106.895 310.186 107.155 309.857 107.516 309.622C107.877 309.384 108.31 309.264 108.814 309.264C109.324 309.264 109.752 309.384 110.096 309.622C110.444 309.861 110.701 310.189 110.867 310.607H110.946C111.129 310.199 111.419 309.874 111.816 309.632C112.214 309.387 112.688 309.264 113.238 309.264C113.931 309.264 114.496 309.481 114.934 309.915C115.374 310.35 115.595 311.004 115.595 311.879V317H114.108V312.018C114.108 311.501 113.967 311.127 113.686 310.895C113.404 310.663 113.068 310.547 112.676 310.547C112.193 310.547 111.816 310.696 111.548 310.994C111.279 311.289 111.145 311.669 111.145 312.133V317H109.664V311.924C109.664 311.51 109.534 311.177 109.276 310.925C109.017 310.673 108.681 310.547 108.267 310.547C107.985 310.547 107.725 310.621 107.486 310.771C107.251 310.916 107.06 311.12 106.914 311.382C106.772 311.644 106.701 311.947 106.701 312.292V317H105.214ZM117.587 319.864V309.364H119.039V310.602H119.163C119.249 310.442 119.374 310.259 119.536 310.05C119.698 309.841 119.924 309.659 120.212 309.503C120.501 309.344 120.882 309.264 121.356 309.264C121.972 309.264 122.522 309.42 123.006 309.732C123.49 310.043 123.87 310.492 124.145 311.079C124.423 311.665 124.562 312.371 124.562 313.197C124.562 314.022 124.425 314.73 124.15 315.32C123.875 315.906 123.497 316.359 123.016 316.677C122.536 316.992 121.987 317.149 121.371 317.149C120.907 317.149 120.527 317.071 120.232 316.915C119.94 316.76 119.712 316.577 119.546 316.369C119.38 316.16 119.253 315.974 119.163 315.812H119.074V319.864H117.587ZM119.044 313.182C119.044 313.719 119.122 314.189 119.278 314.594C119.433 314.998 119.659 315.315 119.954 315.543C120.249 315.769 120.61 315.881 121.037 315.881C121.482 315.881 121.853 315.764 122.151 315.528C122.449 315.29 122.675 314.967 122.827 314.559C122.983 314.151 123.061 313.692 123.061 313.182C123.061 312.678 122.985 312.226 122.832 311.825C122.683 311.424 122.458 311.107 122.156 310.875C121.858 310.643 121.485 310.527 121.037 310.527C120.607 310.527 120.242 310.638 119.944 310.86C119.649 311.082 119.425 311.392 119.273 311.79C119.12 312.187 119.044 312.652 119.044 313.182ZM129.444 317.154C128.729 317.154 128.104 316.99 127.57 316.662C127.037 316.334 126.622 315.875 126.327 315.285C126.032 314.695 125.885 314.005 125.885 313.217C125.885 312.424 126.032 311.732 126.327 311.138C126.622 310.545 127.037 310.085 127.57 309.756C128.104 309.428 128.729 309.264 129.444 309.264C130.16 309.264 130.785 309.428 131.319 309.756C131.852 310.085 132.267 310.545 132.562 311.138C132.857 311.732 133.004 312.424 133.004 313.217C133.004 314.005 132.857 314.695 132.562 315.285C132.267 315.875 131.852 316.334 131.319 316.662C130.785 316.99 130.16 317.154 129.444 317.154ZM129.449 315.906C129.913 315.906 130.298 315.784 130.603 315.538C130.908 315.293 131.133 314.967 131.279 314.559C131.428 314.151 131.503 313.702 131.503 313.212C131.503 312.724 131.428 312.277 131.279 311.869C131.133 311.458 130.908 311.129 130.603 310.88C130.298 310.631 129.913 310.507 129.449 310.507C128.982 310.507 128.594 310.631 128.286 310.88C127.981 311.129 127.754 311.458 127.605 311.869C127.459 312.277 127.386 312.724 127.386 313.212C127.386 313.702 127.459 314.151 127.605 314.559C127.754 314.967 127.981 315.293 128.286 315.538C128.594 315.784 128.982 315.906 129.449 315.906ZM134.663 317V309.364H136.1V310.577H136.18C136.319 310.166 136.564 309.843 136.915 309.607C137.27 309.369 137.671 309.249 138.119 309.249C138.211 309.249 138.321 309.253 138.447 309.259C138.576 309.266 138.677 309.274 138.75 309.284V310.706C138.69 310.689 138.584 310.671 138.432 310.651C138.279 310.628 138.127 310.616 137.974 310.616C137.623 310.616 137.31 310.691 137.035 310.84C136.763 310.986 136.548 311.19 136.388 311.452C136.229 311.71 136.15 312.005 136.15 312.337V317H134.663ZM142.19 317.169C141.706 317.169 141.269 317.08 140.878 316.901C140.487 316.718 140.177 316.455 139.948 316.11C139.723 315.765 139.61 315.343 139.61 314.842C139.61 314.411 139.693 314.057 139.859 313.778C140.024 313.5 140.248 313.28 140.53 313.117C140.812 312.955 141.126 312.832 141.474 312.749C141.822 312.666 142.177 312.603 142.538 312.56C142.996 312.507 143.367 312.464 143.652 312.431C143.937 312.395 144.144 312.337 144.273 312.257C144.403 312.178 144.467 312.048 144.467 311.869V311.835C144.467 311.4 144.345 311.064 144.099 310.825C143.857 310.587 143.496 310.467 143.016 310.467C142.515 310.467 142.121 310.578 141.832 310.8C141.547 311.019 141.35 311.263 141.241 311.531L139.844 311.213C140.009 310.749 140.251 310.375 140.57 310.089C140.891 309.801 141.261 309.592 141.678 309.463C142.096 309.33 142.535 309.264 142.996 309.264C143.301 309.264 143.624 309.301 143.965 309.374C144.31 309.443 144.631 309.572 144.93 309.761C145.231 309.95 145.478 310.22 145.67 310.572C145.863 310.92 145.959 311.372 145.959 311.929V317H144.507V315.956H144.447C144.351 316.148 144.207 316.337 144.015 316.523C143.823 316.708 143.576 316.862 143.274 316.985C142.973 317.108 142.611 317.169 142.19 317.169ZM142.513 315.976C142.924 315.976 143.276 315.895 143.567 315.732C143.862 315.57 144.086 315.358 144.239 315.096C144.394 314.831 144.472 314.547 144.472 314.246V313.261C144.419 313.314 144.317 313.364 144.164 313.411C144.015 313.454 143.844 313.492 143.652 313.525C143.46 313.555 143.272 313.583 143.09 313.609C142.908 313.633 142.755 313.652 142.633 313.669C142.344 313.705 142.081 313.767 141.842 313.853C141.607 313.939 141.418 314.063 141.276 314.226C141.136 314.385 141.067 314.597 141.067 314.862C141.067 315.23 141.203 315.509 141.474 315.697C141.746 315.883 142.093 315.976 142.513 315.976ZM147.939 317V309.364H149.376V310.577H149.455C149.594 310.166 149.84 309.843 150.191 309.607C150.546 309.369 150.947 309.249 151.394 309.249C151.487 309.249 151.596 309.253 151.722 309.259C151.851 309.266 151.952 309.274 152.025 309.284V310.706C151.966 310.689 151.86 310.671 151.707 310.651C151.555 310.628 151.402 310.616 151.25 310.616C150.898 310.616 150.585 310.691 150.31 310.84C150.038 310.986 149.823 311.19 149.664 311.452C149.505 311.71 149.425 312.005 149.425 312.337V317H147.939ZM154.484 319.864C154.262 319.864 154.06 319.845 153.877 319.809C153.695 319.776 153.559 319.739 153.47 319.7L153.828 318.482C154.099 318.554 154.341 318.586 154.553 318.576C154.766 318.566 154.953 318.487 155.115 318.337C155.281 318.188 155.427 317.945 155.553 317.607L155.737 317.099L152.943 309.364H154.534L156.468 315.29H156.547L158.481 309.364H160.077L156.93 318.019C156.784 318.417 156.598 318.753 156.373 319.028C156.148 319.307 155.879 319.516 155.568 319.655C155.256 319.794 154.895 319.864 154.484 319.864ZM166.835 306.818V317H165.298V306.818H166.835ZM174.675 311.228L173.327 311.467C173.271 311.294 173.182 311.13 173.059 310.974C172.94 310.819 172.777 310.691 172.572 310.592C172.366 310.492 172.109 310.442 171.801 310.442C171.38 310.442 171.029 310.537 170.747 310.726C170.465 310.911 170.325 311.152 170.325 311.447C170.325 311.702 170.419 311.907 170.608 312.063C170.797 312.219 171.102 312.347 171.523 312.446L172.736 312.724C173.438 312.887 173.962 313.137 174.307 313.475C174.652 313.813 174.824 314.252 174.824 314.793C174.824 315.25 174.691 315.658 174.426 316.016C174.164 316.37 173.798 316.649 173.327 316.851C172.86 317.053 172.318 317.154 171.702 317.154C170.847 317.154 170.149 316.972 169.609 316.607C169.068 316.239 168.737 315.717 168.614 315.041L170.051 314.822C170.141 315.197 170.325 315.48 170.603 315.673C170.881 315.862 171.244 315.956 171.692 315.956C172.179 315.956 172.568 315.855 172.86 315.653C173.152 315.447 173.298 315.197 173.298 314.902C173.298 314.663 173.208 314.463 173.029 314.3C172.853 314.138 172.583 314.015 172.219 313.933L170.926 313.649C170.214 313.487 169.687 313.228 169.345 312.874C169.007 312.519 168.838 312.07 168.838 311.526C168.838 311.076 168.964 310.681 169.216 310.343C169.468 310.005 169.816 309.741 170.26 309.553C170.704 309.36 171.213 309.264 171.786 309.264C172.612 309.264 173.261 309.443 173.735 309.801C174.209 310.156 174.522 310.631 174.675 311.228ZM182.181 311.228L180.833 311.467C180.777 311.294 180.687 311.13 180.565 310.974C180.445 310.819 180.283 310.691 180.078 310.592C179.872 310.492 179.615 310.442 179.307 310.442C178.886 310.442 178.535 310.537 178.253 310.726C177.971 310.911 177.83 311.152 177.83 311.447C177.83 311.702 177.925 311.907 178.114 312.063C178.303 312.219 178.608 312.347 179.029 312.446L180.242 312.724C180.944 312.887 181.468 313.137 181.813 313.475C182.157 313.813 182.33 314.252 182.33 314.793C182.33 315.25 182.197 315.658 181.932 316.016C181.67 316.37 181.304 316.649 180.833 316.851C180.366 317.053 179.824 317.154 179.208 317.154C178.352 317.154 177.655 316.972 177.115 316.607C176.574 316.239 176.243 315.717 176.12 315.041L177.557 314.822C177.646 315.197 177.83 315.48 178.109 315.673C178.387 315.862 178.75 315.956 179.198 315.956C179.685 315.956 180.074 315.855 180.366 315.653C180.658 315.447 180.803 315.197 180.803 314.902C180.803 314.663 180.714 314.463 180.535 314.3C180.359 314.138 180.089 314.015 179.725 313.933L178.432 313.649C177.719 313.487 177.192 313.228 176.851 312.874C176.513 312.519 176.344 312.07 176.344 311.526C176.344 311.076 176.47 310.681 176.722 310.343C176.974 310.005 177.322 309.741 177.766 309.553C178.21 309.36 178.719 309.264 179.292 309.264C180.117 309.264 180.767 309.443 181.241 309.801C181.715 310.156 182.028 310.631 182.181 311.228ZM188.801 313.833V309.364H190.293V317H188.831V315.678H188.752C188.576 316.085 188.294 316.425 187.907 316.697C187.522 316.965 187.043 317.099 186.47 317.099C185.979 317.099 185.545 316.992 185.167 316.776C184.793 316.558 184.498 316.234 184.282 315.807C184.07 315.379 183.964 314.851 183.964 314.221V309.364H185.451V314.042C185.451 314.562 185.595 314.977 185.883 315.285C186.172 315.593 186.546 315.747 187.007 315.747C187.285 315.747 187.562 315.678 187.837 315.538C188.115 315.399 188.346 315.189 188.528 314.907C188.714 314.625 188.805 314.267 188.801 313.833ZM195.581 317.154C194.829 317.154 194.181 316.993 193.638 316.672C193.097 316.347 192.68 315.891 192.385 315.305C192.093 314.715 191.947 314.024 191.947 313.232C191.947 312.449 192.093 311.76 192.385 311.163C192.68 310.567 193.091 310.101 193.618 309.766C194.148 309.432 194.768 309.264 195.477 309.264C195.908 309.264 196.326 309.335 196.73 309.478C197.134 309.621 197.497 309.844 197.819 310.149C198.14 310.454 198.394 310.85 198.579 311.337C198.765 311.821 198.858 312.41 198.858 313.102V313.629H192.787V312.516H197.401C197.401 312.125 197.322 311.778 197.162 311.477C197.003 311.172 196.78 310.931 196.491 310.756C196.206 310.58 195.872 310.492 195.487 310.492C195.069 310.492 194.705 310.595 194.393 310.8C194.085 311.003 193.846 311.268 193.677 311.596C193.512 311.921 193.429 312.274 193.429 312.655V313.525C193.429 314.035 193.518 314.469 193.697 314.827C193.88 315.185 194.133 315.459 194.458 315.648C194.783 315.833 195.162 315.926 195.596 315.926C195.878 315.926 196.135 315.886 196.367 315.807C196.599 315.724 196.8 315.601 196.969 315.439C197.138 315.277 197.267 315.076 197.356 314.837L198.763 315.091C198.651 315.505 198.448 315.868 198.157 316.18C197.868 316.488 197.506 316.728 197.068 316.901C196.634 317.07 196.138 317.154 195.581 317.154ZM206.229 311.228L204.882 311.467C204.826 311.294 204.736 311.13 204.614 310.974C204.494 310.819 204.332 310.691 204.126 310.592C203.921 310.492 203.664 310.442 203.356 310.442C202.935 310.442 202.584 310.537 202.302 310.726C202.02 310.911 201.879 311.152 201.879 311.447C201.879 311.702 201.974 311.907 202.163 312.063C202.352 312.219 202.656 312.347 203.077 312.446L204.29 312.724C204.993 312.887 205.517 313.137 205.862 313.475C206.206 313.813 206.379 314.252 206.379 314.793C206.379 315.25 206.246 315.658 205.981 316.016C205.719 316.37 205.353 316.649 204.882 316.851C204.415 317.053 203.873 317.154 203.256 317.154C202.401 317.154 201.704 316.972 201.163 316.607C200.623 316.239 200.292 315.717 200.169 315.041L201.606 314.822C201.695 315.197 201.879 315.48 202.158 315.673C202.436 315.862 202.799 315.956 203.246 315.956C203.734 315.956 204.123 315.855 204.415 315.653C204.706 315.447 204.852 315.197 204.852 314.902C204.852 314.663 204.763 314.463 204.584 314.3C204.408 314.138 204.138 314.015 203.773 313.933L202.481 313.649C201.768 313.487 201.241 313.228 200.9 312.874C200.562 312.519 200.393 312.07 200.393 311.526C200.393 311.076 200.519 310.681 200.771 310.343C201.022 310.005 201.371 309.741 201.815 309.553C202.259 309.36 202.768 309.264 203.341 309.264C204.166 309.264 204.816 309.443 205.29 309.801C205.764 310.156 206.077 310.631 206.229 311.228Z" fill="#465551"/>
<path d="M194 84.2955L185.565 78.4167L126.523 38L83 95.3182L146.766 135C164.31 128.019 185.565 100.462 194 84.2955Z" fill="#D1DCD8"/>
<path d="M146.84 125L83 89.0718C109.434 65.6708 130.372 20.6068 137.536 1L211 37.8821C192.009 84.1754 160.313 115.25 146.84 125Z" fill="#E5EDEB" stroke="#B8C6C1"/>
<path d="M74.1591 214.955C69.3409 214.955 65.0455 214.068 61.2727 212.295C57.5227 210.523 54.5455 208.08 52.3409 204.966C50.1364 201.852 48.9886 198.284 48.8977 194.261H63.2159C63.375 196.966 64.5114 199.159 66.625 200.841C68.7386 202.523 71.25 203.364 74.1591 203.364C76.4773 203.364 78.5227 202.852 80.2955 201.83C82.0909 200.784 83.4886 199.341 84.4886 197.5C85.5114 195.636 86.0227 193.5 86.0227 191.091C86.0227 188.636 85.5 186.477 84.4545 184.614C83.4318 182.75 82.0114 181.295 80.1932 180.25C78.375 179.205 76.2955 178.67 73.9545 178.648C71.9091 178.648 69.9205 179.068 67.9886 179.909C66.0795 180.75 64.5909 181.898 63.5227 183.352L50.3977 181L53.7045 144.182H96.3864V156.25H65.875L64.0682 173.739H64.4773C65.7045 172.011 67.5568 170.58 70.0341 169.443C72.5114 168.307 75.2841 167.739 78.3523 167.739C82.5568 167.739 86.3068 168.727 89.6023 170.705C92.8977 172.682 95.5 175.398 97.4091 178.852C99.3182 182.284 100.261 186.239 100.239 190.716C100.261 195.42 99.1705 199.602 96.9659 203.261C94.7841 206.898 91.7273 209.761 87.7955 211.852C83.8864 213.92 79.3409 214.955 74.1591 214.955ZM138.149 215.534C132.285 215.511 127.24 214.068 123.013 211.205C118.808 208.341 115.57 204.193 113.297 198.761C111.047 193.33 109.933 186.795 109.956 179.159C109.956 171.545 111.081 165.057 113.331 159.693C115.604 154.33 118.842 150.25 123.047 147.455C127.274 144.636 132.308 143.227 138.149 143.227C143.99 143.227 149.013 144.636 153.217 147.455C157.445 150.273 160.695 154.364 162.967 159.727C165.24 165.068 166.365 171.545 166.342 179.159C166.342 186.818 165.206 193.364 162.933 198.795C160.683 204.227 157.456 208.375 153.251 211.239C149.047 214.102 144.013 215.534 138.149 215.534ZM138.149 203.295C142.149 203.295 145.342 201.284 147.729 197.261C150.115 193.239 151.297 187.205 151.274 179.159C151.274 173.864 150.729 169.455 149.638 165.932C148.57 162.409 147.047 159.761 145.07 157.989C143.115 156.216 140.808 155.33 138.149 155.33C134.172 155.33 130.99 157.318 128.604 161.295C126.217 165.273 125.013 171.227 124.99 179.159C124.99 184.523 125.524 189 126.592 192.591C127.683 196.159 129.217 198.841 131.195 200.636C133.172 202.409 135.49 203.295 138.149 203.295ZM204.483 215.534C198.619 215.511 193.574 214.068 189.346 211.205C185.142 208.341 181.903 204.193 179.631 198.761C177.381 193.33 176.267 186.795 176.29 179.159C176.29 171.545 177.415 165.057 179.665 159.693C181.937 154.33 185.176 150.25 189.381 147.455C193.608 144.636 198.642 143.227 204.483 143.227C210.324 143.227 215.346 144.636 219.551 147.455C223.778 150.273 227.028 154.364 229.301 159.727C231.574 165.068 232.699 171.545 232.676 179.159C232.676 186.818 231.54 193.364 229.267 198.795C227.017 204.227 223.79 208.375 219.585 211.239C215.381 214.102 210.346 215.534 204.483 215.534ZM204.483 203.295C208.483 203.295 211.676 201.284 214.062 197.261C216.449 193.239 217.631 187.205 217.608 179.159C217.608 173.864 217.062 169.455 215.971 165.932C214.903 162.409 213.381 159.761 211.403 157.989C209.449 156.216 207.142 155.33 204.483 155.33C200.506 155.33 197.324 157.318 194.937 161.295C192.551 165.273 191.346 171.227 191.324 179.159C191.324 184.523 191.858 189 192.926 192.591C194.017 196.159 195.551 198.841 197.528 200.636C199.506 202.409 201.824 203.295 204.483 203.295Z" fill="#556863"/>
<path d="M145 30.1328L151 45.1328" stroke="#B8C6C1" stroke-width="7" stroke-linecap="round"/>
<path d="M171.477 43.2188L173.929 58.9109" stroke="#B8C6C1" stroke-width="7" stroke-linecap="round"/>
<path d="M154.208 33.7734L141.086 42.7214" stroke="#B8C6C1" stroke-width="7" stroke-linecap="round"/>
<path d="M179.58 48.1406L165.057 54.5699" stroke="#B8C6C1" stroke-width="7" stroke-linecap="round"/>
<path d="M126 67C141.5 66.9991 149.5 68.5 154 83.9985" stroke="#B8C6C1" stroke-width="7" stroke-linecap="round"/>
<path d="M44.0696 252.455V267H41.4347V252.455H44.0696ZM49.3803 260.608V267H46.8093V256.091H49.2667V257.945H49.3945C49.6455 257.334 50.0456 256.848 50.5948 256.489C51.1488 256.129 51.833 255.949 52.6474 255.949C53.4002 255.949 54.056 256.11 54.6147 256.432C55.1781 256.754 55.6138 257.22 55.9215 257.831C56.234 258.442 56.3879 259.183 56.3832 260.054V267H53.8121V260.452C53.8121 259.723 53.6228 259.152 53.244 258.74C52.8699 258.328 52.3514 258.122 51.6886 258.122C51.2388 258.122 50.8387 258.222 50.4883 258.42C50.1426 258.615 49.8704 258.896 49.6715 259.266C49.4774 259.635 49.3803 260.082 49.3803 260.608ZM64.4442 256.091V258.08H58.1729V256.091H64.4442ZM59.7212 253.477H62.2923V263.719C62.2923 264.064 62.3443 264.33 62.4485 264.514C62.5574 264.694 62.6995 264.817 62.8746 264.884C63.0498 264.95 63.244 264.983 63.457 264.983C63.618 264.983 63.7648 264.971 63.8974 264.947C64.0347 264.924 64.1388 264.902 64.2099 264.884L64.6431 266.893C64.5058 266.941 64.3093 266.993 64.0536 267.05C63.8027 267.107 63.4949 267.14 63.1303 267.149C62.4864 267.168 61.9064 267.071 61.3903 266.858C60.8742 266.64 60.4646 266.304 60.1616 265.849C59.8633 265.395 59.7165 264.827 59.7212 264.145V253.477ZM71.3068 267.213C70.2131 267.213 69.2685 266.986 68.473 266.531C67.6823 266.072 67.0739 265.423 66.6477 264.585C66.2216 263.742 66.0085 262.75 66.0085 261.609C66.0085 260.487 66.2216 259.502 66.6477 258.655C67.0786 257.803 67.6799 257.14 68.4517 256.666C69.2235 256.188 70.1302 255.949 71.1719 255.949C71.8442 255.949 72.4787 256.058 73.0753 256.276C73.6766 256.489 74.2069 256.82 74.6662 257.27C75.1302 257.72 75.4948 258.293 75.7599 258.989C76.0251 259.68 76.1577 260.504 76.1577 261.46V262.249H67.2159V260.516H73.6932C73.6884 260.023 73.5819 259.585 73.3736 259.202C73.1652 258.813 72.8741 258.508 72.5 258.286C72.1307 258.063 71.6998 257.952 71.2074 257.952C70.6818 257.952 70.2202 258.08 69.8224 258.335C69.4247 258.586 69.1146 258.918 68.892 259.33C68.6742 259.737 68.563 260.184 68.5582 260.672V262.185C68.5582 262.819 68.6742 263.364 68.9062 263.818C69.1383 264.268 69.4626 264.614 69.8793 264.855C70.2959 265.092 70.7836 265.21 71.3423 265.21C71.7164 265.21 72.0549 265.158 72.358 265.054C72.661 264.945 72.9238 264.786 73.1463 264.578C73.3688 264.37 73.5369 264.112 73.6506 263.804L76.0511 264.074C75.8996 264.708 75.6108 265.262 75.1847 265.736C74.7633 266.205 74.2235 266.569 73.5653 266.83C72.9072 267.085 72.1544 267.213 71.3068 267.213ZM78.3327 267V256.091H80.8256V257.909H80.9393C81.1381 257.279 81.479 256.794 81.962 256.453C82.4497 256.107 83.006 255.935 83.631 255.935C83.7731 255.935 83.9317 255.942 84.1069 255.956C84.2868 255.965 84.436 255.982 84.5543 256.006V258.371C84.4454 258.333 84.2726 258.3 84.0359 258.271C83.8039 258.238 83.579 258.222 83.3612 258.222C82.8924 258.222 82.471 258.323 82.0969 258.527C81.7276 258.726 81.4364 259.003 81.2234 259.358C81.0103 259.713 80.9038 260.123 80.9038 260.587V267H78.3327ZM88.8335 260.608V267H86.2624V256.091H88.7198V257.945H88.8477C89.0986 257.334 89.4987 256.848 90.0479 256.489C90.6019 256.129 91.2861 255.949 92.1005 255.949C92.8533 255.949 93.5091 256.11 94.0678 256.432C94.6313 256.754 95.0669 257.22 95.3746 257.831C95.6871 258.442 95.841 259.183 95.8363 260.054V267H93.2653V260.452C93.2653 259.723 93.0759 259.152 92.6971 258.74C92.323 258.328 91.8046 258.122 91.1417 258.122C90.6919 258.122 90.2918 258.222 89.9414 258.42C89.5958 258.615 89.3235 258.896 89.1246 259.266C88.9305 259.635 88.8335 260.082 88.8335 260.608ZM101.589 267.22C100.898 267.22 100.275 267.097 99.7212 266.851C99.172 266.6 98.7364 266.231 98.4144 265.743C98.0972 265.255 97.9386 264.654 97.9386 263.939C97.9386 263.323 98.0522 262.814 98.2795 262.412C98.5067 262.009 98.8169 261.688 99.2099 261.446C99.6029 261.205 100.046 261.022 100.538 260.899C101.035 260.771 101.549 260.679 102.079 260.622C102.718 260.556 103.237 260.497 103.635 260.445C104.032 260.388 104.321 260.303 104.501 260.189C104.686 260.071 104.778 259.888 104.778 259.642V259.599C104.778 259.064 104.619 258.65 104.302 258.357C103.985 258.063 103.528 257.916 102.931 257.916C102.302 257.916 101.802 258.054 101.433 258.328C101.068 258.603 100.822 258.927 100.694 259.301L98.2937 258.96C98.4831 258.297 98.7956 257.743 99.2312 257.298C99.6668 256.848 100.199 256.512 100.829 256.29C101.459 256.062 102.155 255.949 102.917 255.949C103.443 255.949 103.966 256.01 104.487 256.134C105.008 256.257 105.484 256.46 105.914 256.744C106.345 257.024 106.691 257.405 106.951 257.888C107.217 258.371 107.349 258.974 107.349 259.699V267H104.877V265.501H104.792C104.636 265.804 104.416 266.089 104.132 266.354C103.852 266.614 103.5 266.825 103.074 266.986C102.652 267.142 102.157 267.22 101.589 267.22ZM102.257 265.331C102.773 265.331 103.22 265.229 103.599 265.026C103.978 264.817 104.269 264.543 104.473 264.202C104.681 263.861 104.785 263.489 104.785 263.087V261.801C104.705 261.867 104.567 261.929 104.373 261.986C104.184 262.043 103.971 262.092 103.734 262.135C103.497 262.178 103.263 262.215 103.031 262.249C102.799 262.282 102.598 262.31 102.427 262.334C102.044 262.386 101.7 262.471 101.397 262.589C101.094 262.708 100.855 262.874 100.68 263.087C100.505 263.295 100.417 263.565 100.417 263.896C100.417 264.37 100.59 264.727 100.936 264.969C101.281 265.21 101.722 265.331 102.257 265.331ZM112.505 252.455V267H109.934V252.455H112.505ZM128.129 256.453C128.062 255.833 127.783 255.35 127.29 255.004C126.803 254.659 126.168 254.486 125.387 254.486C124.838 254.486 124.367 254.569 123.974 254.734C123.581 254.9 123.28 255.125 123.072 255.409C122.863 255.693 122.757 256.018 122.752 256.382C122.752 256.685 122.821 256.948 122.958 257.17C123.1 257.393 123.292 257.582 123.533 257.739C123.775 257.89 124.042 258.018 124.336 258.122C124.629 258.226 124.925 258.314 125.224 258.385L126.587 258.726C127.137 258.854 127.665 259.027 128.171 259.244C128.683 259.462 129.139 259.737 129.542 260.068C129.949 260.4 130.271 260.8 130.508 261.268C130.745 261.737 130.863 262.286 130.863 262.916C130.863 263.768 130.645 264.519 130.21 265.168C129.774 265.812 129.144 266.316 128.32 266.68C127.501 267.04 126.509 267.22 125.344 267.22C124.213 267.22 123.23 267.045 122.397 266.695C121.568 266.344 120.92 265.833 120.451 265.161C119.987 264.488 119.736 263.669 119.698 262.703H122.29C122.328 263.21 122.485 263.631 122.759 263.967C123.034 264.304 123.391 264.554 123.832 264.72C124.277 264.886 124.774 264.969 125.323 264.969C125.896 264.969 126.398 264.884 126.829 264.713C127.264 264.538 127.605 264.296 127.852 263.989C128.098 263.676 128.223 263.312 128.228 262.895C128.223 262.516 128.112 262.204 127.894 261.957C127.676 261.706 127.371 261.498 126.978 261.332C126.59 261.162 126.135 261.01 125.614 260.878L123.96 260.452C122.762 260.144 121.815 259.678 121.119 259.053C120.427 258.423 120.082 257.587 120.082 256.545C120.082 255.688 120.314 254.938 120.778 254.294C121.246 253.65 121.883 253.151 122.688 252.795C123.493 252.436 124.405 252.256 125.423 252.256C126.455 252.256 127.359 252.436 128.136 252.795C128.917 253.151 129.53 253.645 129.975 254.28C130.42 254.91 130.65 255.634 130.664 256.453H128.129ZM137.928 267.213C136.834 267.213 135.89 266.986 135.094 266.531C134.303 266.072 133.695 265.423 133.269 264.585C132.843 263.742 132.63 262.75 132.63 261.609C132.63 260.487 132.843 259.502 133.269 258.655C133.7 257.803 134.301 257.14 135.073 256.666C135.845 256.188 136.751 255.949 137.793 255.949C138.465 255.949 139.1 256.058 139.696 256.276C140.298 256.489 140.828 256.82 141.287 257.27C141.751 257.72 142.116 258.293 142.381 258.989C142.646 259.68 142.779 260.504 142.779 261.46V262.249H133.837V260.516H140.314C140.31 260.023 140.203 259.585 139.995 259.202C139.786 258.813 139.495 258.508 139.121 258.286C138.752 258.063 138.321 257.952 137.828 257.952C137.303 257.952 136.841 258.08 136.444 258.335C136.046 258.586 135.736 258.918 135.513 259.33C135.295 259.737 135.184 260.184 135.179 260.672V262.185C135.179 262.819 135.295 263.364 135.527 263.818C135.759 264.268 136.084 264.614 136.5 264.855C136.917 265.092 137.405 265.21 137.963 265.21C138.337 265.21 138.676 265.158 138.979 265.054C139.282 264.945 139.545 264.786 139.767 264.578C139.99 264.37 140.158 264.112 140.272 263.804L142.672 264.074C142.521 264.708 142.232 265.262 141.806 265.736C141.384 266.205 140.845 266.569 140.186 266.83C139.528 267.085 138.775 267.213 137.928 267.213ZM144.954 267V256.091H147.447V257.909H147.56C147.759 257.279 148.1 256.794 148.583 256.453C149.071 256.107 149.627 255.935 150.252 255.935C150.394 255.935 150.553 255.942 150.728 255.956C150.908 255.965 151.057 255.982 151.175 256.006V258.371C151.067 258.333 150.894 258.3 150.657 258.271C150.425 258.238 150.2 258.222 149.982 258.222C149.513 258.222 149.092 258.323 148.718 258.527C148.349 258.726 148.058 259.003 147.844 259.358C147.631 259.713 147.525 260.123 147.525 260.587V267H144.954ZM162.96 256.091L159.075 267H156.234L152.349 256.091H155.091L157.598 264.195H157.711L160.225 256.091H162.96ZM169.197 267.213C168.104 267.213 167.159 266.986 166.364 266.531C165.573 266.072 164.964 265.423 164.538 264.585C164.112 263.742 163.899 262.75 163.899 261.609C163.899 260.487 164.112 259.502 164.538 258.655C164.969 257.803 165.571 257.14 166.342 256.666C167.114 256.188 168.021 255.949 169.062 255.949C169.735 255.949 170.369 256.058 170.966 256.276C171.567 256.489 172.098 256.82 172.557 257.27C173.021 257.72 173.385 258.293 173.651 258.989C173.916 259.68 174.048 260.504 174.048 261.46V262.249H165.107V260.516H171.584C171.579 260.023 171.473 259.585 171.264 259.202C171.056 258.813 170.765 258.508 170.391 258.286C170.021 258.063 169.59 257.952 169.098 257.952C168.572 257.952 168.111 258.08 167.713 258.335C167.315 258.586 167.005 258.918 166.783 259.33C166.565 259.737 166.454 260.184 166.449 260.672V262.185C166.449 262.819 166.565 263.364 166.797 263.818C167.029 264.268 167.353 264.614 167.77 264.855C168.187 265.092 168.674 265.21 169.233 265.21C169.607 265.21 169.946 265.158 170.249 265.054C170.552 264.945 170.814 264.786 171.037 264.578C171.259 264.37 171.428 264.112 171.541 263.804L173.942 264.074C173.79 264.708 173.501 265.262 173.075 265.736C172.654 266.205 172.114 266.569 171.456 266.83C170.798 267.085 170.045 267.213 169.197 267.213ZM176.223 267V256.091H178.716V257.909H178.83C179.029 257.279 179.37 256.794 179.853 256.453C180.34 256.107 180.897 255.935 181.522 255.935C181.664 255.935 181.822 255.942 181.998 255.956C182.177 255.965 182.327 255.982 182.445 256.006V258.371C182.336 258.333 182.163 258.3 181.926 258.271C181.694 258.238 181.47 258.222 181.252 258.222C180.783 258.222 180.362 258.323 179.988 258.527C179.618 258.726 179.327 259.003 179.114 259.358C178.901 259.713 178.794 260.123 178.794 260.587V267H176.223ZM189.228 267V252.455H198.688V254.663H191.863V258.612H198.198V260.821H191.863V264.791H198.745V267H189.228ZM201.262 267V256.091H203.755V257.909H203.869C204.068 257.279 204.409 256.794 204.892 256.453C205.379 256.107 205.936 255.935 206.561 255.935C206.703 255.935 206.861 255.942 207.037 255.956C207.217 255.965 207.366 255.982 207.484 256.006V258.371C207.375 258.333 207.202 258.3 206.966 258.271C206.734 258.238 206.509 258.222 206.291 258.222C205.822 258.222 205.401 258.323 205.027 258.527C204.657 258.726 204.366 259.003 204.153 259.358C203.94 259.713 203.833 260.123 203.833 260.587V267H201.262ZM209.192 267V256.091H211.685V257.909H211.799C211.998 257.279 212.338 256.794 212.821 256.453C213.309 256.107 213.865 255.935 214.49 255.935C214.632 255.935 214.791 255.942 214.966 255.956C215.146 255.965 215.295 255.982 215.414 256.006V258.371C215.305 258.333 215.132 258.3 214.895 258.271C214.663 258.238 214.438 258.222 214.221 258.222C213.752 258.222 213.33 258.323 212.956 258.527C212.587 258.726 212.296 259.003 212.083 259.358C211.87 259.713 211.763 260.123 211.763 260.587V267H209.192ZM221.431 267.213C220.366 267.213 219.442 266.979 218.661 266.51C217.88 266.041 217.274 265.385 216.843 264.543C216.417 263.7 216.204 262.715 216.204 261.588C216.204 260.461 216.417 259.474 216.843 258.626C217.274 257.779 217.88 257.121 218.661 256.652C219.442 256.183 220.366 255.949 221.431 255.949C222.496 255.949 223.42 256.183 224.201 256.652C224.982 257.121 225.586 257.779 226.012 258.626C226.443 259.474 226.658 260.461 226.658 261.588C226.658 262.715 226.443 263.7 226.012 264.543C225.586 265.385 224.982 266.041 224.201 266.51C223.42 266.979 222.496 267.213 221.431 267.213ZM221.445 265.153C222.023 265.153 222.506 264.995 222.894 264.678C223.282 264.356 223.571 263.925 223.761 263.385C223.955 262.845 224.052 262.244 224.052 261.581C224.052 260.913 223.955 260.31 223.761 259.77C223.571 259.225 223.282 258.792 222.894 258.47C222.506 258.148 222.023 257.987 221.445 257.987C220.853 257.987 220.361 258.148 219.968 258.47C219.58 258.792 219.289 259.225 219.094 259.77C218.905 260.31 218.81 260.913 218.81 261.581C218.81 262.244 218.905 262.845 219.094 263.385C219.289 263.925 219.58 264.356 219.968 264.678C220.361 264.995 220.853 265.153 221.445 265.153ZM228.841 267V256.091H231.333V257.909H231.447C231.646 257.279 231.987 256.794 232.47 256.453C232.958 256.107 233.514 255.935 234.139 255.935C234.281 255.935 234.44 255.942 234.615 255.956C234.795 255.965 234.944 255.982 235.062 256.006V258.371C234.953 258.333 234.78 258.3 234.544 258.271C234.312 258.238 234.087 258.222 233.869 258.222C233.4 258.222 232.979 258.323 232.605 258.527C232.235 258.726 231.944 259.003 231.731 259.358C231.518 259.713 231.412 260.123 231.412 260.587V267H228.841Z" fill="#465551"/>
<path d="M194 84.2955L185.565 78.4167L126.523 38L83 95.3182L146.766 135C164.31 128.019 185.565 100.462 194 84.2955Z" fill="#D1DCD8"/>
<path d="M146.84 125L83 89.0718C109.434 65.6708 130.372 20.6068 137.536 1L211 37.8821C192.009 84.1754 160.313 115.25 146.84 125Z" fill="#E5EDEB" stroke="#B8C6C1"/>
<path d="M74.1591 214.955C69.3409 214.955 65.0455 214.068 61.2727 212.295C57.5227 210.523 54.5455 208.08 52.3409 204.966C50.1364 201.852 48.9886 198.284 48.8977 194.261H63.2159C63.375 196.966 64.5114 199.159 66.625 200.841C68.7386 202.523 71.25 203.364 74.1591 203.364C76.4773 203.364 78.5227 202.852 80.2955 201.83C82.0909 200.784 83.4886 199.341 84.4886 197.5C85.5114 195.636 86.0227 193.5 86.0227 191.091C86.0227 188.636 85.5 186.477 84.4545 184.614C83.4318 182.75 82.0114 181.295 80.1932 180.25C78.375 179.205 76.2955 178.67 73.9545 178.648C71.9091 178.648 69.9205 179.068 67.9886 179.909C66.0795 180.75 64.5909 181.898 63.5227 183.352L50.3977 181L53.7045 144.182H96.3864V156.25H65.875L64.0682 173.739H64.4773C65.7045 172.011 67.5568 170.58 70.0341 169.443C72.5114 168.307 75.2841 167.739 78.3523 167.739C82.5568 167.739 86.3068 168.727 89.6023 170.705C92.8977 172.682 95.5 175.398 97.4091 178.852C99.3182 182.284 100.261 186.239 100.239 190.716C100.261 195.42 99.1705 199.602 96.9659 203.261C94.7841 206.898 91.7273 209.761 87.7955 211.852C83.8864 213.92 79.3409 214.955 74.1591 214.955ZM138.149 215.534C132.285 215.511 127.24 214.068 123.013 211.205C118.808 208.341 115.57 204.193 113.297 198.761C111.047 193.33 109.933 186.795 109.956 179.159C109.956 171.545 111.081 165.057 113.331 159.693C115.604 154.33 118.842 150.25 123.047 147.455C127.274 144.636 132.308 143.227 138.149 143.227C143.99 143.227 149.013 144.636 153.217 147.455C157.445 150.273 160.695 154.364 162.967 159.727C165.24 165.068 166.365 171.545 166.342 179.159C166.342 186.818 165.206 193.364 162.933 198.795C160.683 204.227 157.456 208.375 153.251 211.239C149.047 214.102 144.013 215.534 138.149 215.534ZM138.149 203.295C142.149 203.295 145.342 201.284 147.729 197.261C150.115 193.239 151.297 187.205 151.274 179.159C151.274 173.864 150.729 169.455 149.638 165.932C148.57 162.409 147.047 159.761 145.07 157.989C143.115 156.216 140.808 155.33 138.149 155.33C134.172 155.33 130.99 157.318 128.604 161.295C126.217 165.273 125.013 171.227 124.99 179.159C124.99 184.523 125.524 189 126.592 192.591C127.683 196.159 129.217 198.841 131.195 200.636C133.172 202.409 135.49 203.295 138.149 203.295ZM204.483 215.534C198.619 215.511 193.574 214.068 189.346 211.205C185.142 208.341 181.903 204.193 179.631 198.761C177.381 193.33 176.267 186.795 176.29 179.159C176.29 171.545 177.415 165.057 179.665 159.693C181.937 154.33 185.176 150.25 189.381 147.455C193.608 144.636 198.642 143.227 204.483 143.227C210.324 143.227 215.346 144.636 219.551 147.455C223.778 150.273 227.028 154.364 229.301 159.727C231.574 165.068 232.699 171.545 232.676 179.159C232.676 186.818 231.54 193.364 229.267 198.795C227.017 204.227 223.79 208.375 219.585 211.239C215.381 214.102 210.346 215.534 204.483 215.534ZM204.483 203.295C208.483 203.295 211.676 201.284 214.062 197.261C216.449 193.239 217.631 187.205 217.608 179.159C217.608 173.864 217.062 169.455 215.971 165.932C214.903 162.409 213.381 159.761 211.403 157.989C209.449 156.216 207.142 155.33 204.483 155.33C200.506 155.33 197.324 157.318 194.937 161.295C192.551 165.273 191.346 171.227 191.324 179.159C191.324 184.523 191.858 189 192.926 192.591C194.017 196.159 195.551 198.841 197.528 200.636C199.506 202.409 201.824 203.295 204.483 203.295Z" fill="#556863"/>
<path d="M145 30.1328L151 45.1328" stroke="#B8C6C1" stroke-width="7" stroke-linecap="round"/>
<path d="M171.477 43.2188L173.929 58.9109" stroke="#B8C6C1" stroke-width="7" stroke-linecap="round"/>
<path d="M154.208 33.7734L141.086 42.7214" stroke="#B8C6C1" stroke-width="7" stroke-linecap="round"/>
<path d="M179.58 48.1406L165.057 54.5699" stroke="#B8C6C1" stroke-width="7" stroke-linecap="round"/>
<path d="M126 67C141.5 66.9991 149.5 68.5 154 83.9985" stroke="#B8C6C1" stroke-width="7" stroke-linecap="round"/>
</svg>
