<svg width="24" height="24" viewBox="0 0 24 24" fill="none" xmlns="http://www.w3.org/2000/svg">
<path d="M15.9784 19.2858L16.7284 19.2896V19.2858H15.9784ZM15.9697 21L15.9645 21.75C16.1636 21.7514 16.3551 21.6735 16.4968 21.5335C16.6385 21.3935 16.7187 21.203 16.7197 21.0038L15.9697 21ZM8.08312 20.9452L8.08833 20.1952C7.7856 20.1931 7.51128 20.3732 7.39287 20.6519L8.08312 20.9452ZM3.06625 20.1435L3.07148 19.3935C2.76874 19.3914 2.49441 19.5715 2.37599 19.8501L3.06625 20.1435ZM21 18.4844L21.75 18.4882V18.4844H21ZM20.9913 20.1983L20.9861 20.9482C21.1853 20.9496 21.3768 20.8717 21.5184 20.7318C21.6601 20.5918 21.7403 20.4012 21.7413 20.2021L20.9913 20.1983ZM12.7193 2.99453C12.7163 2.58033 12.378 2.247 11.9638 2.25002C11.5496 2.25304 11.2163 2.59126 11.2193 3.00547L12.7193 2.99453ZM11.2499 7.20393C11.2529 7.61813 11.5912 7.95146 12.0054 7.94844C12.4196 7.94543 12.7529 7.6072 12.7499 7.193L11.2499 7.20393ZM13.9932 5.84626C14.4074 5.84594 14.7429 5.50989 14.7426 5.09568C14.7423 4.68147 14.4062 4.34594 13.992 4.34626L13.9932 5.84626ZM9.97619 4.34937C9.56198 4.34969 9.22645 4.68573 9.22678 5.09995C9.2271 5.51416 9.56314 5.84969 9.97736 5.84937L9.97619 4.34937ZM11.0889 13.5522C11.0889 13.0405 11.5 12.6335 11.9976 12.6335V11.1335C10.6633 11.1335 9.5889 12.2204 9.5889 13.5522H11.0889ZM11.9976 12.6335C12.495 12.6335 12.9061 13.0403 12.9061 13.5522H14.4061C14.4061 12.2206 13.3321 11.1335 11.9976 11.1335V12.6335ZM12.9061 13.5522C12.9061 14.0637 12.4951 14.4706 11.9976 14.4706V15.9706C13.332 15.9706 14.4061 14.8837 14.4061 13.5522H12.9061ZM11.9976 14.4706C11.4999 14.4706 11.0889 14.0636 11.0889 13.5522H9.5889C9.5889 14.8838 10.6634 15.9706 11.9976 15.9706V14.4706ZM6.0721 12.7505C6.0721 12.2389 6.48311 11.8318 6.98081 11.8318V10.3318C5.64604 10.3318 4.5721 11.4191 4.5721 12.7505H6.0721ZM6.98081 11.8318C7.47815 11.8318 7.88925 12.2388 7.88925 12.7505H9.38925C9.38925 11.4192 8.31539 10.3318 6.98081 10.3318V11.8318ZM7.88925 12.7505C7.88925 13.2622 7.47815 13.6692 6.98081 13.6692V15.1692C8.31539 15.1692 9.38925 14.0817 9.38925 12.7505H7.88925ZM6.98081 13.6692C6.48311 13.6692 6.0721 13.2621 6.0721 12.7505H4.5721C4.5721 14.0818 5.64604 15.1692 6.98081 15.1692V13.6692ZM16.1108 12.7505C16.1108 12.2388 16.5219 11.8318 17.0193 11.8318V10.3318C15.6847 10.3318 14.6108 11.4192 14.6108 12.7505H16.1108ZM17.0193 11.8318C17.5168 11.8318 17.928 12.239 17.928 12.7505H19.428C19.428 11.419 18.3537 10.3318 17.0193 10.3318V11.8318ZM17.928 12.7505C17.928 13.262 17.5168 13.6692 17.0193 13.6692V15.1692C18.3537 15.1692 19.428 14.0819 19.428 12.7505H17.928ZM17.0193 13.6692C16.5219 13.6692 16.1108 13.2622 16.1108 12.7505H14.6108C14.6108 14.0817 15.6847 15.1692 17.0193 15.1692V13.6692ZM8.76687 19.2858C8.76687 17.7272 10.1553 16.3629 11.9976 16.3629V14.8629C9.44287 14.8629 7.26687 16.7874 7.26687 19.2858H8.76687ZM11.9976 16.3629C13.8399 16.3629 15.2284 17.7272 15.2284 19.2858H16.7284C16.7284 16.7874 14.5524 14.8629 11.9976 14.8629V16.3629ZM15.2284 19.282L15.2197 20.9962L16.7197 21.0038L16.7284 19.2896L15.2284 19.282ZM15.9749 20.25L8.08833 20.1952L8.07791 21.6952L15.9645 21.75L15.9749 20.25ZM8.08312 20.9452C7.39287 20.6519 7.39348 20.6504 7.39409 20.649C7.3943 20.6485 7.39493 20.6471 7.39535 20.6461C7.3962 20.6441 7.39709 20.6421 7.398 20.6401C7.39982 20.636 7.40177 20.6317 7.40385 20.6273C7.408 20.6184 7.41283 20.6085 7.41841 20.5979C7.4291 20.5775 7.44479 20.5498 7.4664 20.5187C7.49483 20.4777 7.59906 20.3322 7.80423 20.251C8.08685 20.1391 8.36764 20.2181 8.54857 20.3644C8.68284 20.473 8.74046 20.5975 8.75627 20.6325C8.77889 20.6825 8.78983 20.7226 8.79396 20.7385C8.79887 20.7576 8.80106 20.7702 8.8015 20.7728C8.8023 20.7775 8.80029 20.7666 8.7971 20.7304C8.78374 20.5787 8.76687 20.1934 8.76687 19.2858H7.26687C7.26687 20.1935 7.28314 20.6379 7.3029 20.8621C7.30799 20.9199 7.31426 20.9746 7.32282 21.0248C7.32873 21.0595 7.34472 21.1513 7.38927 21.25C7.40819 21.2918 7.46866 21.4202 7.60545 21.5308C7.78891 21.6792 8.07189 21.7583 8.35633 21.6457C8.56331 21.5638 8.66896 21.4167 8.69836 21.3744C8.72046 21.3426 8.73652 21.3142 8.74746 21.2933C8.75316 21.2824 8.75809 21.2724 8.7623 21.2634C8.76442 21.2589 8.76639 21.2545 8.76823 21.2504C8.76915 21.2483 8.77003 21.2463 8.77089 21.2443C8.77132 21.2434 8.77195 21.2419 8.77215 21.2414C8.77277 21.24 8.77338 21.2386 8.08312 20.9452ZM8.08637 19.4285L3.07148 19.3935L3.06101 20.8935L8.0759 20.9285L8.08637 19.4285ZM3.06625 20.1435C2.37599 19.8501 2.3766 19.8487 2.37721 19.8473C2.37742 19.8468 2.37805 19.8453 2.37847 19.8444C2.37933 19.8424 2.38021 19.8404 2.38112 19.8384C2.38294 19.8343 2.38489 19.83 2.38697 19.8255C2.39112 19.8167 2.39595 19.8068 2.40153 19.7962C2.41221 19.7757 2.42789 19.7481 2.4495 19.717C2.47792 19.676 2.58211 19.5306 2.78718 19.4493C3.06968 19.3374 3.35049 19.4163 3.53154 19.5626C3.66588 19.6711 3.72354 19.7956 3.73936 19.8306C3.762 19.8807 3.77295 19.9208 3.77707 19.9368C3.78198 19.9558 3.78418 19.9684 3.78462 19.9711C3.78542 19.9757 3.78342 19.9649 3.78023 19.9287C3.76686 19.7771 3.75 19.3918 3.75 18.4844H2.25C2.25 19.3919 2.26626 19.8362 2.28602 20.0604C2.29111 20.1182 2.29739 20.1729 2.30595 20.2231C2.31186 20.2578 2.32786 20.3497 2.37243 20.4483C2.39136 20.4902 2.45186 20.6186 2.58873 20.7292C2.7723 20.8776 3.05531 20.9565 3.33962 20.8439C3.54651 20.762 3.65211 20.6149 3.68151 20.5726C3.7036 20.5408 3.71965 20.5125 3.73059 20.4916C3.73629 20.4807 3.74122 20.4706 3.74543 20.4616C3.74754 20.4571 3.74952 20.4528 3.75135 20.4486C3.75227 20.4466 3.75316 20.4446 3.75402 20.4426C3.75444 20.4416 3.75507 20.4402 3.75528 20.4397C3.75589 20.4382 3.7565 20.4368 3.06625 20.1435ZM3.75 18.4844C3.75 16.9258 5.13847 15.5615 6.98075 15.5615V14.0615C4.42599 14.0615 2.25 15.986 2.25 18.4844H3.75ZM6.98075 15.5615C7.9598 15.5615 8.82533 15.9543 9.41195 16.5606L10.4899 15.5175C9.61855 14.6169 8.36304 14.0615 6.98075 14.0615V15.5615ZM14.6307 16.5171C15.216 15.9356 16.0637 15.5615 17.0192 15.5615V14.0615C15.6702 14.0615 14.4417 14.5904 13.5735 15.4531L14.6307 16.5171ZM17.0192 15.5615C18.8615 15.5615 20.25 16.9258 20.25 18.4844H21.75C21.75 15.986 19.574 14.0615 17.0192 14.0615V15.5615ZM20.25 18.4806L20.2413 20.1945L21.7413 20.2021L21.75 18.4882L20.25 18.4806ZM20.9965 19.4483L16.1789 19.415L16.1686 20.9149L20.9861 20.9482L20.9965 19.4483ZM11.2193 3.00547L11.2499 7.20393L12.7499 7.193L12.7193 2.99453L11.2193 3.00547ZM13.992 4.34626L9.97619 4.34937L9.97736 5.84937L13.9932 5.84626L13.992 4.34626Z" fill="#2C3641"/>
</svg>
