   <svg
      width="14"
      height="15"
      viewBox="0 0 14 15"
      fill="none"
      xmlns="http://www.w3.org/2000/svg">
      <rect y="0.5" width="14" height="14" rx="7" fill="currentColor" />
      <path
        d="M9.86256 5.30155C9.82287 5.25876 9.77565 5.22479 9.72362 5.20162C9.6716 5.17844 9.6158 5.1665 9.55944 5.1665C9.50308 5.1665 9.44728 5.17844 9.39525 5.20162C9.34323 5.22479 9.29601 5.25876 9.25632 5.30155L6.0757 8.70741L4.73941 7.27384C4.6982 7.23128 4.64956 7.19781 4.59625 7.17534C4.54295 7.15288 4.48603 7.14186 4.42874 7.14292C4.37146 7.14398 4.31493 7.1571 4.26238 7.18152C4.20983 7.20594 4.1623 7.24119 4.1225 7.28526C4.08269 7.32933 4.05139 7.38135 4.03038 7.43835C4.00938 7.49535 3.99907 7.55622 4.00007 7.61748C4.00106 7.67874 4.01332 7.73919 4.03616 7.79538C4.059 7.85157 4.09196 7.90241 4.13317 7.94497L5.77258 9.69812C5.81227 9.74092 5.85948 9.77488 5.91151 9.79806C5.96353 9.82124 6.01934 9.83317 6.0757 9.83317C6.13206 9.83317 6.18786 9.82124 6.23988 9.79806C6.29191 9.77488 6.33913 9.74092 6.37882 9.69812L9.86256 5.97268C9.90589 5.92993 9.94048 5.87804 9.96413 5.82029C9.98779 5.76253 10 5.70016 10 5.63711C10 5.57406 9.98779 5.5117 9.96413 5.45394C9.94048 5.39619 9.90589 5.3443 9.86256 5.30155Z"
        fill="white"
      />
    </svg>