<svg width="24" height="24" viewBox="0 0 24 24" fill="none" xmlns="http://www.w3.org/2000/svg">
<path d="M11.9842 10.3996L17.6116 10.4353M11.9842 16.9703L17.6116 17.006M12.0113 13.9039L17.6388 13.9398M6.32506 9.6904L7.94719 11.3118L10.2131 9.0483M6.32506 12.9798L7.94719 14.6009L10.2131 12.3374M6.51543 16.1312L8.13756 17.7525L10.4035 15.4891M15.1084 4.98941H19.0019C19.5531 4.98941 20 5.43602 20 5.98686V20.0025C20 20.5534 19.5531 21 19.0019 21H4.99808C4.44664 21 4 20.5534 4 20.0025V5.98686C4 5.43602 4.44664 4.98941 4.99808 4.98941H8.95348M9.0241 3H14.9989V7.06461H9.0241V3Z" stroke="#2C3641" stroke-width="1.5" stroke-miterlimit="10" stroke-linecap="round" stroke-linejoin="round"/>
</svg>
