 <svg
      xmlns="http://www.w3.org/2000/svg"
      width="32"
      height="32"
      viewBox="0 0 32 32"
      fill="none"
      >
      <path
        d="M16.1969 14.342C16.1735 14.3121 16.1436 14.288 16.1095 14.2713C16.0754 14.2547 16.038 14.2461 16 14.2461C15.9621 14.2461 15.9246 14.2547 15.8905 14.2713C15.8564 14.288 15.8265 14.3121 15.8032 14.342L12.3032 18.7701C12.2743 18.807 12.2564 18.8512 12.2515 18.8977C12.2466 18.9443 12.2549 18.9913 12.2754 19.0333C12.296 19.0754 12.3279 19.1108 12.3676 19.1355C12.4074 19.1603 12.4532 19.1734 12.5 19.1733H14.8094V26.7483C14.8094 26.8858 14.9219 26.9983 15.0594 26.9983H16.9344C17.0719 26.9983 17.1844 26.8858 17.1844 26.7483V19.1764H19.5C19.7094 19.1764 19.825 18.9358 19.6969 18.7733L16.1969 14.342Z"
        fill="#6F777F"
      />
      <path
        d="M25.3563 11.4594C23.925 7.68438 20.2781 5 16.0063 5C11.7344 5 8.0875 7.68125 6.65625 11.4563C3.97813 12.1594 2 14.6 2 17.5C2 20.9531 4.79687 23.75 8.24687 23.75H9.5C9.6375 23.75 9.75 23.6375 9.75 23.5V21.625C9.75 21.4875 9.6375 21.375 9.5 21.375H8.24687C7.19375 21.375 6.20312 20.9562 5.46562 20.1969C4.73125 19.4406 4.34063 18.4219 4.375 17.3656C4.40313 16.5406 4.68437 15.7656 5.19375 15.1125C5.71562 14.4469 6.44688 13.9625 7.25938 13.7469L8.44375 13.4375L8.87813 12.2937C9.14688 11.5812 9.52187 10.9156 9.99375 10.3125C10.4596 9.71471 11.0114 9.18922 11.6313 8.75313C12.9156 7.85 14.4281 7.37187 16.0063 7.37187C17.5844 7.37187 19.0969 7.85 20.3813 8.75313C21.0031 9.19063 21.5531 9.71562 22.0187 10.3125C22.4906 10.9156 22.8656 11.5844 23.1344 12.2937L23.5656 13.4344L24.7469 13.7469C26.4406 14.2031 27.625 15.7437 27.625 17.5C27.625 18.5344 27.2219 19.5094 26.4906 20.2406C26.132 20.6013 25.7054 20.8873 25.2355 21.082C24.7656 21.2768 24.2618 21.3763 23.7531 21.375H22.5C22.3625 21.375 22.25 21.4875 22.25 21.625V23.5C22.25 23.6375 22.3625 23.75 22.5 23.75H23.7531C27.2031 23.75 30 20.9531 30 17.5C30 14.6031 28.0281 12.1656 25.3563 11.4594Z"
        fill="#6F777F"
      />
    </svg>