<svg width="24" height="24" viewBox="0 0 24 24" fill="none" xmlns="http://www.w3.org/2000/svg">
<path d="M17.3333 4H5.66667C4.7475 4 4 4.7475 4 5.66667V17.3333C4 18.2525 4.7475 19 5.66667 19H12.3333C12.4428 19.0002 12.5512 18.9787 12.6523 18.9368C12.7534 18.8949 12.8452 18.8334 12.9225 18.7558L18.7558 12.9225C18.8243 12.8515 18.8797 12.7688 18.9192 12.6783C18.9308 12.6533 18.9375 12.6275 18.9467 12.6008C18.9704 12.5311 18.9847 12.4585 18.9892 12.385C18.9908 12.3675 19 12.3508 19 12.3333V5.66667C19 4.7475 18.2525 4 17.3333 4ZM5.66667 5.66667H17.3333V11.5H12.3333C12.1123 11.5 11.9004 11.5878 11.7441 11.7441C11.5878 11.9004 11.5 12.1123 11.5 12.3333V17.3333H5.66667V5.66667ZM13.1667 16.155V13.1667H16.155L13.1667 16.155Z" fill="#2C3641"/>
</svg>