<svg width="24" height="24" viewBox="0 0 24 24" fill="none" xmlns="http://www.w3.org/2000/svg">
<path d="M11.4 5.25C11.4 6.49264 10.415 7.5 9.2 7.5C7.98497 7.5 7 6.49264 7 5.25C7 4.00736 7.98497 3 9.2 3C10.415 3 11.4 4.00736 11.4 5.25Z" fill="#2C3641"/>
<path d="M11.4 12C11.4 13.2426 10.415 14.25 9.2 14.25C7.98497 14.25 7 13.2426 7 12C7 10.7574 7.98497 9.75 9.2 9.75C10.415 9.75 11.4 10.7574 11.4 12Z" fill="#2C3641"/>
<path d="M11.4 18.75C11.4 19.9926 10.415 21 9.2 21C7.98497 21 7 19.9926 7 18.75C7 17.5074 7.98497 16.5 9.2 16.5C10.415 16.5 11.4 17.5074 11.4 18.75Z" fill="#2C3641"/>
<path d="M18 5.25C18 6.49264 17.015 7.5 15.8 7.5C14.585 7.5 13.6 6.49264 13.6 5.25C13.6 4.00736 14.585 3 15.8 3C17.015 3 18 4.00736 18 5.25Z" fill="#2C3641"/>
<path d="M18 12C18 13.2426 17.015 14.25 15.8 14.25C14.585 14.25 13.6 13.2426 13.6 12C13.6 10.7574 14.585 9.75 15.8 9.75C17.015 9.75 18 10.7574 18 12Z" fill="#2C3641"/>
<path d="M18 18.75C18 19.9926 17.015 21 15.8 21C14.585 21 13.6 19.9926 13.6 18.75C13.6 17.5074 14.585 16.5 15.8 16.5C17.015 16.5 18 17.5074 18 18.75Z" fill="#2C3641"/>
</svg>