 <svg
      viewBox="0 0 752 752"
      fill="currentColor"
      height="6rem"
      xmlns="http://www.w3.org/2000/svg"
      >
      <path
        fill="currentColor"
        d="M489.66 281.29v-1.422c-.473-2.367-1.895-3.789-3.79-5.21-4.26-4.735-13.733-14.208-33.624-34.099l-36.465-36.465h-.473c-.472 0-.472-.472-.945-.472h-.473c-.472 0-.472 0-.945-.473H269.453c-3.789 0-7.105 3.316-7.105 7.105v331.51c0 2.84 1.421 5.211 4.261 6.63 2.367.945 5.684.472 7.578-.946l16.574-15.16 16.574 14.68c2.84 2.367 6.63 2.367 9.473 0l16.574-14.68 16.574 14.68c2.84 2.367 6.629 2.367 9.473 0l16.574-14.68 16.574 14.68c2.84 2.367 6.629 2.367 9.472 0l16.578-14.68 16.574 14.68c2.84 2.367 6.63 2.367 9.473 0l16.574-14.68 16.574 14.68c1.422.945 2.84 1.894 4.735 1.894.945 0 1.894 0 2.84-.472 2.367-.945 4.261-3.79 4.261-6.63zm-24.152-7.106h-46.883v-46.883c13.258 13.263 33.621 33.626 46.883 46.884zm.473 243.42c-2.84-2.367-6.63-2.367-9.473 0l-16.574 14.68-16.574-14.68c-2.84-2.367-6.629-2.367-9.473 0l-16.574 14.68-16.574-14.68c-2.84-2.367-6.629-2.367-9.472 0l-16.574 14.68-16.578-14.68c-2.84-2.367-6.63-2.367-9.473 0l-16.574 14.68-16.574-14.68c-1.422-1.421-2.84-1.894-4.735-1.894-1.894 0-3.316.473-4.734 1.895l-9.473 8.523v-308.77h127.87v63.934c0 3.789 3.317 7.105 7.106 7.105h63.93v237.74zm-11.84-32.676c0 3.79-3.317 7.106-7.106 7.106l-142.07-.004c-3.789 0-7.105-3.316-7.105-7.105s3.316-7.106 7.105-7.106h142.07c3.79.004 7.102 3.32 7.102 7.11z"
      />
    </svg>