<svg width="24" height="24" viewBox="0 0 24 24" fill="none" xmlns="http://www.w3.org/2000/svg">
<g id="Icons/24/Eye-closed">
<path id="Vector" d="M10.94 6.08C11.2908 6.02624 11.6451 5.99949 12 6C15.18 6 18.17 8.29 19.91 12C19.6439 12.5646 19.3433 13.1123 19.01 13.64C18.9042 13.8038 18.8486 13.995 18.85 14.19C18.8522 14.4082 18.9258 14.6198 19.0595 14.7923C19.1931 14.9648 19.3796 15.0889 19.5903 15.1455C19.8011 15.2022 20.0246 15.1883 20.2268 15.1061C20.4289 15.0238 20.5986 14.8777 20.71 14.69C21.1759 13.9579 21.5806 13.1887 21.92 12.39C21.9737 12.2652 22.0013 12.1308 22.0013 11.995C22.0013 11.8592 21.9737 11.7248 21.92 11.6C19.9 6.91 16.1 4 12 4C11.5307 3.99764 11.0621 4.0378 10.6 4.12C10.4687 4.14233 10.343 4.1903 10.2303 4.26118C10.1175 4.33206 10.0198 4.42446 9.94269 4.5331C9.86561 4.64175 9.8107 4.76451 9.78107 4.89438C9.75144 5.02425 9.74768 5.15868 9.77 5.29C9.79233 5.42132 9.8403 5.54696 9.91118 5.65975C9.98206 5.77253 10.0745 5.87024 10.1831 5.94732C10.2917 6.02439 10.4145 6.07931 10.5444 6.10894C10.6742 6.13857 10.8087 6.14233 10.94 6.12V6.08ZM3.71 2.29C3.61676 2.19676 3.50607 2.1228 3.38425 2.07234C3.26243 2.02188 3.13186 1.99591 3 1.99591C2.86814 1.99591 2.73758 2.02188 2.61575 2.07234C2.49393 2.1228 2.38324 2.19676 2.29 2.29C2.1017 2.47831 1.99591 2.7337 1.99591 3C1.99591 3.2663 2.1017 3.5217 2.29 3.71L5.39 6.8C3.97558 8.16153 2.84986 9.79399 2.08 11.6C2.02494 11.7262 1.99652 11.8623 1.99652 12C1.99652 12.1377 2.02494 12.2738 2.08 12.4C4.1 17.09 7.9 20 12 20C13.7971 19.9876 15.5518 19.4525 17.05 18.46L20.29 21.71C20.383 21.8037 20.4936 21.8781 20.6154 21.9289C20.7373 21.9797 20.868 22.0058 21 22.0058C21.132 22.0058 21.2627 21.9797 21.3846 21.9289C21.5064 21.8781 21.617 21.8037 21.71 21.71C21.8037 21.617 21.8781 21.5064 21.9289 21.3846C21.9797 21.2627 22.0058 21.132 22.0058 21C22.0058 20.868 21.9797 20.7373 21.9289 20.6154C21.8781 20.4936 21.8037 20.383 21.71 20.29L3.71 2.29ZM10.07 11.48L12.52 13.93C12.351 13.9785 12.1758 14.002 12 14C11.4696 14 10.9609 13.7893 10.5858 13.4142C10.2107 13.0391 10 12.5304 10 12C9.99795 11.8242 10.0215 11.649 10.07 11.48ZM12 18C8.82 18 5.83 15.71 4.1 12C4.74609 10.5738 5.66307 9.28658 6.8 8.21L8.57 10C8.15425 10.7588 7.99574 11.6319 8.11826 12.4885C8.24078 13.345 8.63772 14.1387 9.24953 14.7505C9.86134 15.3623 10.655 15.7592 11.5115 15.8817C12.3681 16.0043 13.2412 15.8458 14 15.43L15.59 17C14.5011 17.6409 13.2634 17.9856 12 18Z" fill="#2C3641"/>
</g>
</svg>
