<svg width="24" height="24" viewBox="0 0 24 24" fill="none" xmlns="http://www.w3.org/2000/svg">
<path d="M5.0783 16.9749H3.42856L7.13545 6.85712H8.93106L12.638 16.9749H10.9882L8.07601 8.69491H7.99553L5.0783 16.9749ZM5.35494 13.0127H10.7065V14.2972H5.35494V13.0127Z" fill="#2C3641"/>
<path d="M16.7589 17.1428C16.2693 17.1428 15.8267 17.0539 15.4311 16.8761C15.0354 16.6949 14.7219 16.4331 14.4905 16.0905C14.2625 15.748 14.1485 15.3281 14.1485 14.8308C14.1485 14.4026 14.2323 14.0502 14.4 13.7735C14.5676 13.4969 14.794 13.2779 15.079 13.1165C15.364 12.9551 15.6825 12.8332 16.0346 12.7509C16.3867 12.6686 16.7455 12.606 17.111 12.5632C17.5737 12.5105 17.9493 12.4677 18.2376 12.4347C18.526 12.3985 18.7356 12.3409 18.8663 12.2618C18.9971 12.1828 19.0625 12.0543 19.0625 11.8765V11.8419C19.0625 11.4104 18.9384 11.0761 18.6903 10.839C18.4455 10.6019 18.08 10.4833 17.5938 10.4833C17.0875 10.4833 16.6885 10.5936 16.3968 10.8143C16.1084 11.0317 15.9089 11.2737 15.7982 11.5405L14.3849 11.2243C14.5525 10.7633 14.7973 10.3911 15.1192 10.1078C15.4445 9.8213 15.8183 9.61381 16.2408 9.48536C16.6633 9.35362 17.1076 9.28775 17.5737 9.28775C17.8822 9.28775 18.2091 9.32398 18.5545 9.39643C18.9032 9.4656 19.2285 9.59405 19.5303 9.78178C19.8354 9.96951 20.0852 10.2379 20.2797 10.587C20.4742 10.9329 20.5714 11.3824 20.5714 11.9357V16.9749H19.1027V15.9374H19.0424C18.9451 16.1284 18.7993 16.3162 18.6048 16.5006C18.4103 16.685 18.1605 16.8382 17.8554 16.96C17.5502 17.0819 17.1847 17.1428 16.7589 17.1428ZM17.0858 15.9572C17.5016 15.9572 17.857 15.8765 18.1521 15.7151C18.4506 15.5537 18.6769 15.3429 18.8311 15.0827C18.9887 14.8192 19.0675 14.5376 19.0675 14.2379V13.2598C19.0139 13.3124 18.9099 13.3619 18.7557 13.408C18.6048 13.4508 18.4321 13.4887 18.2376 13.5216C18.0431 13.5512 17.8537 13.5792 17.6693 13.6056C17.4849 13.6286 17.3306 13.6484 17.2065 13.6649C16.9148 13.7011 16.6482 13.762 16.4068 13.8476C16.1687 13.9333 15.9776 14.0568 15.8334 14.2182C15.6926 14.3763 15.6222 14.587 15.6222 14.8505C15.6222 15.2161 15.7597 15.4928 16.0346 15.6805C16.3096 15.8649 16.66 15.9572 17.0858 15.9572Z" fill="#2C3641"/>
</svg>