<svg width="24" height="24" viewBox="0 0 24 24" fill="none" xmlns="http://www.w3.org/2000/svg">
<path d="M4.344 18H2.296V6.304H4.344V11.136H9.528V6.304H11.576V18H9.528V13.04H4.344V18ZM21.923 17.984L13.811 18V16.464L17.635 13.232C19.219 11.888 19.747 11.12 19.747 10C19.747 8.672 19.027 7.92 17.795 7.92C16.515 7.92 15.715 8.816 15.699 10.32H13.667C13.683 7.76 15.315 6.096 17.795 6.096C20.291 6.096 21.843 7.52 21.843 9.888C21.843 11.52 20.947 12.752 19.171 14.272L17.059 16.08H21.923V17.984Z" fill="#2C3641"/>
</svg>
