<svg width="20" height="12" viewBox="0 0 20 12" fill="none" xmlns="http://www.w3.org/2000/svg">
<path d="M2.344 12H0.296V0.304H2.344V5.136H7.528V0.304H9.576V12H7.528V7.04H2.344V12ZM19.923 11.984L11.811 12V10.464L15.635 7.232C17.219 5.888 17.747 5.12 17.747 4C17.747 2.672 17.027 1.92 15.795 1.92C14.515 1.92 13.715 2.816 13.699 4.32H11.667C11.683 1.76 13.315 0.0959997 15.795 0.0959997C18.291 0.0959997 19.843 1.52 19.843 3.888C19.843 5.52 18.947 6.752 17.171 8.272L15.059 10.08H19.923V11.984Z" fill="#2C3641"/>
</svg>
