<svg width="24" height="24" viewBox="0 0 24 24" fill="none" xmlns="http://www.w3.org/2000/svg">
<path d="M4.344 18H2.296V6.304H4.344V11.136H9.528V6.304H11.576V18H9.528V13.04H4.344V18ZM17.219 12.208H15.795V10.88L18.803 8.112H13.939V6.304H21.363V7.936L18.515 10.56C20.307 10.912 21.699 12.224 21.699 14.288C21.699 16.688 19.827 18.208 17.459 18.208C15.171 18.208 13.395 16.8 13.395 14.272H15.411C15.411 15.616 16.243 16.384 17.491 16.384C18.771 16.384 19.619 15.552 19.619 14.256C19.619 13.072 18.851 12.208 17.219 12.208Z" fill="#2C3641"/>
</svg>
