<svg width="20" height="13" viewBox="0 0 20 13" fill="none" xmlns="http://www.w3.org/2000/svg">
<path d="M2.344 12H0.296V0.304H2.344V5.136H7.528V0.304H9.576V12H7.528V7.04H2.344V12ZM15.219 6.208H13.795V4.88L16.803 2.112H11.939V0.304H19.363V1.936L16.515 4.56C18.307 4.912 19.699 6.224 19.699 8.288C19.699 10.688 17.827 12.208 15.459 12.208C13.171 12.208 11.395 10.8 11.395 8.272H13.411C13.411 9.616 14.243 10.384 15.491 10.384C16.771 10.384 17.619 9.552 17.619 8.256C17.619 7.072 16.851 6.208 15.219 6.208Z" fill="#2C3641"/>
</svg>
