<svg width="170" height="170" viewBox="0 0 170 170" fill="none" xmlns="http://www.w3.org/2000/svg">
<g clip-path="url(#clip0_3364_184601)">
<path d="M95.625 95.625L79.6875 111.562" stroke="#329164" stroke-width="2.5" stroke-linecap="round" stroke-linejoin="round"/>
<path d="M95.625 95.625L79.6875 111.562" stroke="#329164" stroke-width="2.5"/>
<path d="M74.375 74.375L58.4375 90.3125" stroke="#329164" stroke-width="2.5" stroke-linecap="round" stroke-linejoin="round"/>
<path d="M74.375 74.375L58.4375 90.3125" stroke="#329164" stroke-width="2.5"/>
<path d="M38.5555 131.445L15.9375 154.063" stroke="#329164" stroke-width="2.5" stroke-linecap="round" stroke-linejoin="round"/>
<path d="M87.6562 119.531L68.3984 138.789C65.4096 141.778 61.3559 143.457 57.1292 143.457C52.9025 143.457 48.8489 141.778 45.8601 138.789L31.2109 124.12C28.2283 121.132 26.5532 117.083 26.5532 112.861C26.5532 108.639 28.2283 104.59 31.2109 101.602L50.4687 82.3438" fill="white"/>
<path d="M87.6562 119.531L68.3984 138.789C65.4096 141.778 61.3559 143.457 57.1292 143.457C52.9025 143.457 48.8489 141.778 45.8601 138.789L31.2109 124.12C28.2283 121.132 26.5532 117.083 26.5532 112.861C26.5532 108.639 28.2283 104.59 31.2109 101.602L50.4687 82.3438" stroke="#329164" stroke-width="2.5" stroke-linecap="round" stroke-linejoin="round"/>
<path d="M42.5 74.375L95.625 127.5" stroke="#329164" stroke-width="2.5" stroke-linecap="round" stroke-linejoin="round"/>
<path d="M131.445 38.5555L154.063 15.9375" stroke="#329164" stroke-width="2.5" stroke-linecap="round" stroke-linejoin="round"/>
<path d="M119.531 87.6577L138.789 68.3998C141.778 65.411 143.457 61.3574 143.457 57.1307C143.457 52.904 141.778 48.8504 138.789 45.8616L124.12 31.2123C121.132 28.2298 117.083 26.5547 112.861 26.5547C108.639 26.5547 104.59 28.2298 101.602 31.2123L82.3438 50.4702" fill="white"/>
<path d="M119.531 87.6577L138.789 68.3998C141.778 65.411 143.457 61.3574 143.457 57.1307C143.457 52.904 141.778 48.8504 138.789 45.8616L124.12 31.2123C121.132 28.2298 117.083 26.5547 112.861 26.5547C108.639 26.5547 104.59 28.2298 101.602 31.2123L82.3438 50.4702" stroke="#329164" stroke-width="2.5" stroke-linecap="round" stroke-linejoin="round"/>
<path d="M74.375 42.5L127.5 95.625" stroke="#329164" stroke-width="2.5" stroke-linecap="round" stroke-linejoin="round"/>
</g>
<defs>
<clipPath id="clip0_3364_184601">
<rect width="170" height="170" fill="white"/>
</clipPath>
</defs>
</svg>
