<svg width="24" height="24" viewBox="0 0 24 24" fill="none" xmlns="http://www.w3.org/2000/svg">
<path d="M18.6667 4H10.6667C10.313 4 9.97391 4.14048 9.72386 4.39052C9.47381 4.64057 9.33333 4.97971 9.33333 5.33333C9.33333 5.68696 9.47381 6.02609 9.72386 6.27614C9.97391 6.52619 10.313 6.66667 10.6667 6.66667H12.6933L8.42667 17.3333H5.33333C4.97971 17.3333 4.64057 17.4738 4.39052 17.7239C4.14048 17.9739 4 18.313 4 18.6667C4 19.0203 4.14048 19.3594 4.39052 19.6095C4.64057 19.8595 4.97971 20 5.33333 20H13.3333C13.687 20 14.0261 19.8595 14.2761 19.6095C14.5262 19.3594 14.6667 19.0203 14.6667 18.6667C14.6667 18.313 14.5262 17.9739 14.2761 17.7239C14.0261 17.4738 13.687 17.3333 13.3333 17.3333H11.3067L15.5733 6.66667H18.6667C19.0203 6.66667 19.3594 6.52619 19.6095 6.27614C19.8595 6.02609 20 5.68696 20 5.33333C20 4.97971 19.8595 4.64057 19.6095 4.39052C19.3594 4.14048 19.0203 4 18.6667 4Z" fill="#2C3641"/>
</svg>
