<svg width="24" height="24" viewBox="0 0 24 24" fill="none" xmlns="http://www.w3.org/2000/svg">
<path d="M17.9066 6.04376L20.8483 3.11651M17.2785 3L20.9999 3.0202M20.966 6.73664L20.9959 3.0202M17.9066 17.9562L20.8483 20.8835M17.2785 21L20.9999 20.9798M20.966 17.2634L20.9959 20.9798M6.09306 17.9562L3.1513 20.8835M6.72112 21L3 20.9798M3.03397 17.2634L3.0037 20.9798M6.09306 6.04376L3.1513 3.11651M6.72112 3L3 3.0202M3.03397 6.73664L3.0037 3.0202M10.1728 7.65875C10.1728 6.65244 10.9898 5.83664 11.9974 5.83664C13.0049 5.83664 13.8216 6.65244 13.8216 7.65875C13.8216 8.66506 13.0049 9.48086 11.9974 9.48086C10.9898 9.48086 10.1728 8.66506 10.1728 7.65875ZM7.61854 13.9201C7.61854 11.7049 9.579 9.90917 11.9974 9.90917C14.4157 9.90917 16.3762 11.7049 16.3762 13.9201L16.3666 15.7918L7.69141 15.732C7.69141 15.732 7.61854 15.9022 7.61854 13.9201Z" stroke="#2C3641" stroke-width="1.5" stroke-miterlimit="10" stroke-linecap="round" stroke-linejoin="round"/>
</svg>
