<svg width="363" height="279" viewBox="0 0 363 279" fill="none" xmlns="http://www.w3.org/2000/svg">
<path d="M306.001 54.4773L301.593 51.75L270.742 33L248.001 59.5909L281.32 78C290.487 74.7614 301.593 61.9773 306.001 54.4773Z" fill="#D1DCD8"/>
<path d="M44.928 50.3382L50.2236 48.3607L87.2119 34.8921L104.816 69.2707L65.3085 81.7986C56.424 76.1416 47.7785 59.5737 44.928 50.3382Z" fill="#D1DCD8"/>
<path d="M23.8717 141.496L28.2696 143.214L62.565 151.265L50.583 184.575L11.0427 174.031C15.5958 167.8 20.5038 148.833 23.8717 141.496Z" fill="#D1DCD8"/>
<path d="M324.363 124L327.344 128.547L354 153.921L321.86 180L290 145.579C298.561 142.855 316.165 128.547 324.363 124Z" fill="#D1DCD8"/>
<path d="M280.916 73L247.001 53.8769C261.044 41.4215 272.167 17.4359 275.973 7L315.001 26.6308C304.912 51.2708 288.073 67.8103 280.916 73Z" fill="#E5EDEB" stroke="#B8C6C1"/>
<path d="M59.7272 79.3921L101.207 66.4857C90.6612 50.5996 80.9063 30.8028 77.4634 8.70812L32.9923 20.7572C39.8781 48.3043 53.1774 72.0064 59.7272 79.3921Z" fill="#E5EDEB" stroke="#B8C6C1"/>
<path d="M267 40L289 52" stroke="#B8C6C1" stroke-width="4" stroke-linecap="round"/>
<path d="M82.0095 47.625L55.0899 55.2628" stroke="#B8C6C1" stroke-width="4" stroke-linecap="round"/>
<path d="M262 46L275 54" stroke="#B8C6C1" stroke-width="4" stroke-linecap="round"/>
<path d="M84.905 55.8984L70.9815 60.4972" stroke="#B8C6C1" stroke-width="4" stroke-linecap="round"/>
<path d="M274 27L298 40" stroke="#B8C6C1" stroke-width="4" stroke-linecap="round"/>
<path d="M75.9434 32.2109L60.5357 36.1069" stroke="#B8C6C1" stroke-width="4" stroke-linecap="round"/>
<path d="M49.2195 27.9741L44.258 29.495C42.5856 30.0076 41.7047 31.8365 42.3464 33.4638L45.0575 40.3387C45.6646 41.8783 47.4038 42.6354 48.9443 42.0308L53.4778 40.2517C54.9748 39.6641 55.7423 38.0007 55.2177 36.4805L52.9346 29.8639C52.4075 28.336 50.7647 27.5005 49.2195 27.9741Z" fill="#B8C6C1"/>
<path d="M278 20L303 33" stroke="#B8C6C1" stroke-width="4" stroke-linecap="round"/>
<path d="M74.1987 24.1953L58.2404 28.0731" stroke="#B8C6C1" stroke-width="4" stroke-linecap="round"/>
<path d="M270 34L294 46" stroke="#B8C6C1" stroke-width="4" stroke-linecap="round"/>
<path d="M78.6599 40.3672L52.1938 47.0067" stroke="#B8C6C1" stroke-width="4" stroke-linecap="round"/>
<path d="M86.6023 149.727V138.102L115.75 92.1818H125.773V108.273H119.841L101.466 137.352V137.898H142.886V149.727H86.6023ZM120.114 162V146.182L120.386 141.034V92.1818H134.227V162H120.114ZM180.337 163.534C174.473 163.511 169.427 162.068 165.2 159.205C160.996 156.341 157.757 152.193 155.484 146.761C153.234 141.33 152.121 134.795 152.143 127.159C152.143 119.545 153.268 113.057 155.518 107.693C157.791 102.33 161.03 98.25 165.234 95.4545C169.462 92.6364 174.496 91.2273 180.337 91.2273C186.177 91.2273 191.2 92.6364 195.405 95.4545C199.632 98.2727 202.882 102.364 205.155 107.727C207.428 113.068 208.553 119.545 208.53 127.159C208.53 134.818 207.393 141.364 205.121 146.795C202.871 152.227 199.643 156.375 195.439 159.239C191.234 162.102 186.2 163.534 180.337 163.534ZM180.337 151.295C184.337 151.295 187.53 149.284 189.916 145.261C192.302 141.239 193.484 135.205 193.462 127.159C193.462 121.864 192.916 117.455 191.825 113.932C190.757 110.409 189.234 107.761 187.257 105.989C185.302 104.216 182.996 103.33 180.337 103.33C176.359 103.33 173.177 105.318 170.791 109.295C168.405 113.273 167.2 119.227 167.177 127.159C167.177 132.523 167.712 137 168.78 140.591C169.871 144.159 171.405 146.841 173.382 148.636C175.359 150.409 177.677 151.295 180.337 151.295ZM218.239 149.727V138.102L247.386 92.1818H257.409V108.273H251.477L233.102 137.352V137.898H274.523V149.727H218.239ZM251.75 162V146.182L252.023 141.034V92.1818H265.864V162H251.75Z" fill="#556863"/>
<path d="M328.51 115C318.572 130.025 297.362 140.868 288 144.411L320.948 174C337.081 164.929 355.038 145.297 362 136.616L328.51 115Z" fill="#E5EDEB" stroke="#B8C6C1"/>
<path d="M63.2671 132.791C53.2509 133.702 32.1862 127.31 22.9058 124C19.4792 147.833 10.3856 164.318 6.26709 169.581C12.1977 172.577 37.1833 177.775 48.9347 180C56.0515 166.847 61.4549 143.047 63.2671 132.791Z" fill="#E5EDEB" stroke="#B8C6C1"/>
<path d="M28.2671 135C42.3605 138.913 54.2671 141 54.2671 141" stroke="#B8C6C1" stroke-width="4" stroke-linecap="round"/>
<path d="M25.2671 144C39.0298 147 39.2671 147 39.2671 147" stroke="#B8C6C1" stroke-width="4" stroke-linecap="round"/>
<path d="M20.2671 159C34.0298 164 34.2671 164 34.2671 164" stroke="#B8C6C1" stroke-width="4" stroke-linecap="round"/>
<path d="M22.2671 152C36.3448 155.261 47.2671 157 47.2671 157" stroke="#B8C6C1" stroke-width="4" stroke-linecap="round"/>
<path d="M315 137L328 148" stroke="#B8C6C1" stroke-width="4" stroke-linecap="round"/>
<path d="M321 133L341 147" stroke="#B8C6C1" stroke-width="4" stroke-linecap="round"/>
<path d="M327 127L347 141" stroke="#B8C6C1" stroke-width="4" stroke-linecap="round"/>
<path d="M111.435 220V205.455H116.889C118.007 205.455 118.944 205.663 119.702 206.08C120.464 206.496 121.039 207.069 121.428 207.798C121.821 208.523 122.017 209.347 122.017 210.27C122.017 211.203 121.821 212.031 121.428 212.756C121.035 213.48 120.455 214.051 119.688 214.467C118.92 214.879 117.976 215.085 116.854 215.085H113.239V212.919H116.499C117.152 212.919 117.687 212.805 118.104 212.578C118.52 212.351 118.828 212.038 119.027 211.641C119.231 211.243 119.332 210.786 119.332 210.27C119.332 209.754 119.231 209.299 119.027 208.906C118.828 208.513 118.518 208.208 118.097 207.99C117.68 207.768 117.143 207.656 116.484 207.656H114.07V220H111.435ZM127.136 220.22C126.445 220.22 125.822 220.097 125.268 219.851C124.719 219.6 124.283 219.231 123.961 218.743C123.644 218.255 123.485 217.654 123.485 216.939C123.485 216.323 123.599 215.814 123.826 215.412C124.054 215.009 124.364 214.688 124.757 214.446C125.15 214.205 125.592 214.022 126.085 213.899C126.582 213.771 127.096 213.679 127.626 213.622C128.265 213.556 128.784 213.497 129.181 213.445C129.579 213.388 129.868 213.303 130.048 213.189C130.233 213.071 130.325 212.888 130.325 212.642V212.599C130.325 212.064 130.166 211.65 129.849 211.357C129.532 211.063 129.075 210.916 128.478 210.916C127.849 210.916 127.349 211.054 126.98 211.328C126.615 211.603 126.369 211.927 126.241 212.301L123.841 211.96C124.03 211.297 124.342 210.743 124.778 210.298C125.214 209.848 125.746 209.512 126.376 209.29C127.006 209.062 127.702 208.949 128.464 208.949C128.99 208.949 129.513 209.01 130.034 209.134C130.555 209.257 131.03 209.46 131.461 209.744C131.892 210.024 132.238 210.405 132.498 210.888C132.763 211.371 132.896 211.974 132.896 212.699V220H130.424V218.501H130.339C130.183 218.804 129.963 219.089 129.679 219.354C129.399 219.614 129.047 219.825 128.62 219.986C128.199 220.142 127.704 220.22 127.136 220.22ZM127.804 218.331C128.32 218.331 128.767 218.229 129.146 218.026C129.525 217.817 129.816 217.543 130.02 217.202C130.228 216.861 130.332 216.489 130.332 216.087V214.801C130.252 214.867 130.114 214.929 129.92 214.986C129.731 215.043 129.518 215.092 129.281 215.135C129.044 215.178 128.81 215.215 128.578 215.249C128.346 215.282 128.145 215.31 127.974 215.334C127.591 215.386 127.247 215.471 126.944 215.589C126.641 215.708 126.402 215.874 126.227 216.087C126.052 216.295 125.964 216.565 125.964 216.896C125.964 217.37 126.137 217.727 126.483 217.969C126.828 218.21 127.269 218.331 127.804 218.331ZM140.225 224.318C139.302 224.318 138.509 224.193 137.846 223.942C137.183 223.696 136.651 223.364 136.248 222.947C135.846 222.531 135.566 222.069 135.41 221.562L137.725 221.001C137.83 221.214 137.981 221.425 138.18 221.634C138.379 221.847 138.646 222.022 138.983 222.159C139.324 222.301 139.752 222.372 140.268 222.372C140.997 222.372 141.601 222.195 142.079 221.839C142.557 221.489 142.797 220.911 142.797 220.107V218.04H142.669C142.536 218.305 142.342 218.577 142.086 218.857C141.835 219.136 141.502 219.37 141.085 219.56C140.673 219.749 140.154 219.844 139.529 219.844C138.691 219.844 137.931 219.647 137.25 219.254C136.573 218.857 136.033 218.265 135.63 217.479C135.233 216.688 135.034 215.698 135.034 214.51C135.034 213.312 135.233 212.301 135.63 211.477C136.033 210.649 136.575 210.021 137.257 209.595C137.939 209.164 138.699 208.949 139.537 208.949C140.176 208.949 140.701 209.058 141.113 209.276C141.53 209.489 141.861 209.747 142.108 210.05C142.354 210.348 142.541 210.63 142.669 210.895H142.811V209.091H145.346V220.178C145.346 221.11 145.124 221.882 144.679 222.493C144.234 223.104 143.625 223.561 142.853 223.864C142.082 224.167 141.206 224.318 140.225 224.318ZM140.247 217.827C140.791 217.827 141.255 217.694 141.639 217.429C142.022 217.164 142.314 216.783 142.512 216.286C142.711 215.788 142.811 215.192 142.811 214.496C142.811 213.809 142.711 213.208 142.512 212.692C142.318 212.176 142.029 211.776 141.646 211.491C141.267 211.203 140.801 211.058 140.247 211.058C139.674 211.058 139.196 211.207 138.812 211.506C138.429 211.804 138.14 212.214 137.946 212.734C137.752 213.25 137.654 213.838 137.654 214.496C137.654 215.163 137.752 215.748 137.946 216.25C138.145 216.747 138.436 217.135 138.819 217.415C139.208 217.689 139.683 217.827 140.247 217.827ZM152.811 220.213C151.717 220.213 150.772 219.986 149.977 219.531C149.186 219.072 148.578 218.423 148.152 217.585C147.725 216.742 147.512 215.75 147.512 214.609C147.512 213.487 147.725 212.502 148.152 211.655C148.583 210.803 149.184 210.14 149.956 209.666C150.727 209.188 151.634 208.949 152.676 208.949C153.348 208.949 153.983 209.058 154.579 209.276C155.181 209.489 155.711 209.82 156.17 210.27C156.634 210.72 156.999 211.293 157.264 211.989C157.529 212.68 157.662 213.504 157.662 214.46V215.249H148.72V213.516H155.197C155.192 213.023 155.086 212.585 154.877 212.202C154.669 211.813 154.378 211.508 154.004 211.286C153.635 211.063 153.204 210.952 152.711 210.952C152.186 210.952 151.724 211.08 151.326 211.335C150.929 211.586 150.618 211.918 150.396 212.33C150.178 212.737 150.067 213.184 150.062 213.672V215.185C150.062 215.819 150.178 216.364 150.41 216.818C150.642 217.268 150.967 217.614 151.383 217.855C151.8 218.092 152.288 218.21 152.846 218.21C153.22 218.21 153.559 218.158 153.862 218.054C154.165 217.945 154.428 217.786 154.65 217.578C154.873 217.37 155.041 217.112 155.154 216.804L157.555 217.074C157.404 217.708 157.115 218.262 156.689 218.736C156.267 219.205 155.727 219.569 155.069 219.83C154.411 220.085 153.658 220.213 152.811 220.213ZM167.369 213.608V220H164.798V209.091H167.255V210.945H167.383C167.634 210.334 168.034 209.848 168.583 209.489C169.137 209.129 169.821 208.949 170.636 208.949C171.388 208.949 172.044 209.11 172.603 209.432C173.166 209.754 173.602 210.22 173.91 210.831C174.222 211.442 174.376 212.183 174.371 213.054V220H171.8V213.452C171.8 212.723 171.611 212.152 171.232 211.74C170.858 211.328 170.34 211.122 169.677 211.122C169.227 211.122 168.827 211.222 168.477 211.42C168.131 211.615 167.859 211.896 167.66 212.266C167.466 212.635 167.369 213.082 167.369 213.608ZM181.744 220.213C180.678 220.213 179.755 219.979 178.974 219.51C178.192 219.041 177.586 218.385 177.156 217.543C176.729 216.7 176.516 215.715 176.516 214.588C176.516 213.461 176.729 212.474 177.156 211.626C177.586 210.779 178.192 210.121 178.974 209.652C179.755 209.183 180.678 208.949 181.744 208.949C182.809 208.949 183.732 209.183 184.513 209.652C185.295 210.121 185.898 210.779 186.325 211.626C186.755 212.474 186.971 213.461 186.971 214.588C186.971 215.715 186.755 216.7 186.325 217.543C185.898 218.385 185.295 219.041 184.513 219.51C183.732 219.979 182.809 220.213 181.744 220.213ZM181.758 218.153C182.335 218.153 182.818 217.995 183.207 217.678C183.595 217.356 183.884 216.925 184.073 216.385C184.267 215.845 184.364 215.244 184.364 214.581C184.364 213.913 184.267 213.31 184.073 212.77C183.884 212.225 183.595 211.792 183.207 211.47C182.818 211.148 182.335 210.987 181.758 210.987C181.166 210.987 180.674 211.148 180.281 211.47C179.892 211.792 179.601 212.225 179.407 212.77C179.218 213.31 179.123 213.913 179.123 214.581C179.123 215.244 179.218 215.845 179.407 216.385C179.601 216.925 179.892 217.356 180.281 217.678C180.674 217.995 181.166 218.153 181.758 218.153ZM194.6 209.091V211.08H188.329V209.091H194.6ZM189.877 206.477H192.449V216.719C192.449 217.064 192.501 217.33 192.605 217.514C192.714 217.694 192.856 217.817 193.031 217.884C193.206 217.95 193.4 217.983 193.613 217.983C193.774 217.983 193.921 217.971 194.054 217.947C194.191 217.924 194.295 217.902 194.366 217.884L194.799 219.893C194.662 219.941 194.466 219.993 194.21 220.05C193.959 220.107 193.651 220.14 193.287 220.149C192.643 220.168 192.063 220.071 191.547 219.858C191.03 219.64 190.621 219.304 190.318 218.849C190.02 218.395 189.873 217.827 189.877 217.145V206.477ZM207.237 209.091V211.08H200.788V209.091H207.237ZM202.401 220V208.061C202.401 207.327 202.552 206.716 202.855 206.229C203.163 205.741 203.575 205.376 204.091 205.135C204.607 204.893 205.18 204.773 205.81 204.773C206.255 204.773 206.65 204.808 206.996 204.879C207.341 204.95 207.597 205.014 207.763 205.071L207.251 207.06C207.143 207.027 207.005 206.993 206.839 206.96C206.674 206.922 206.489 206.903 206.286 206.903C205.807 206.903 205.469 207.019 205.27 207.251C205.076 207.479 204.979 207.805 204.979 208.232V220H202.401ZM213.599 220.213C212.534 220.213 211.61 219.979 210.829 219.51C210.048 219.041 209.442 218.385 209.011 217.543C208.585 216.7 208.372 215.715 208.372 214.588C208.372 213.461 208.585 212.474 209.011 211.626C209.442 210.779 210.048 210.121 210.829 209.652C211.61 209.183 212.534 208.949 213.599 208.949C214.664 208.949 215.588 209.183 216.369 209.652C217.15 210.121 217.754 210.779 218.18 211.626C218.611 212.474 218.826 213.461 218.826 214.588C218.826 215.715 218.611 216.7 218.18 217.543C217.754 218.385 217.15 219.041 216.369 219.51C215.588 219.979 214.664 220.213 213.599 220.213ZM213.613 218.153C214.191 218.153 214.674 217.995 215.062 217.678C215.45 217.356 215.739 216.925 215.929 216.385C216.123 215.845 216.22 215.244 216.22 214.581C216.22 213.913 216.123 213.31 215.929 212.77C215.739 212.225 215.45 211.792 215.062 211.47C214.674 211.148 214.191 210.987 213.613 210.987C213.021 210.987 212.529 211.148 212.136 211.47C211.748 211.792 211.457 212.225 211.262 212.77C211.073 213.31 210.978 213.913 210.978 214.581C210.978 215.244 211.073 215.845 211.262 216.385C211.457 216.925 211.748 217.356 212.136 217.678C212.529 217.995 213.021 218.153 213.613 218.153ZM227.962 215.412V209.091H230.533V220H228.04V218.061H227.926C227.68 218.672 227.275 219.171 226.712 219.56C226.153 219.948 225.464 220.142 224.645 220.142C223.93 220.142 223.298 219.983 222.749 219.666C222.204 219.344 221.778 218.878 221.47 218.267C221.162 217.652 221.009 216.908 221.009 216.037V209.091H223.58V215.639C223.58 216.33 223.769 216.88 224.148 217.287C224.527 217.694 225.024 217.898 225.639 217.898C226.018 217.898 226.385 217.805 226.74 217.621C227.095 217.436 227.386 217.161 227.614 216.797C227.846 216.428 227.962 215.966 227.962 215.412ZM235.748 213.608V220H233.176V209.091H235.634V210.945H235.762C236.013 210.334 236.413 209.848 236.962 209.489C237.516 209.129 238.2 208.949 239.015 208.949C239.767 208.949 240.423 209.11 240.982 209.432C241.545 209.754 241.981 210.22 242.289 210.831C242.601 211.442 242.755 212.183 242.75 213.054V220H240.179V213.452C240.179 212.723 239.99 212.152 239.611 211.74C239.237 211.328 238.719 211.122 238.056 211.122C237.606 211.122 237.206 211.222 236.855 211.42C236.51 211.615 236.238 211.896 236.039 212.266C235.845 212.635 235.748 213.082 235.748 213.608ZM249.412 220.192C248.555 220.192 247.788 219.972 247.111 219.531C246.434 219.091 245.899 218.452 245.506 217.614C245.113 216.776 244.917 215.758 244.917 214.56C244.917 213.348 245.115 212.325 245.513 211.491C245.916 210.653 246.458 210.021 247.14 209.595C247.821 209.164 248.581 208.949 249.419 208.949C250.059 208.949 250.584 209.058 250.996 209.276C251.408 209.489 251.735 209.747 251.976 210.05C252.218 210.348 252.405 210.63 252.537 210.895H252.644V205.455H255.222V220H252.694V218.281H252.537C252.405 218.546 252.213 218.828 251.962 219.126C251.711 219.42 251.38 219.671 250.968 219.879C250.556 220.088 250.037 220.192 249.412 220.192ZM250.13 218.082C250.674 218.082 251.138 217.936 251.522 217.642C251.905 217.344 252.196 216.929 252.395 216.399C252.594 215.869 252.694 215.251 252.694 214.545C252.694 213.84 252.594 213.227 252.395 212.706C252.201 212.185 251.912 211.78 251.529 211.491C251.15 211.203 250.684 211.058 250.13 211.058C249.557 211.058 249.078 211.207 248.695 211.506C248.311 211.804 248.023 212.216 247.828 212.741C247.634 213.267 247.537 213.868 247.537 214.545C247.537 215.227 247.634 215.836 247.828 216.371C248.027 216.901 248.319 217.32 248.702 217.628C249.09 217.931 249.566 218.082 250.13 218.082Z" fill="#465551"/>
<path d="M53.6663 242.141V240.818H61.5463V242.141H58.3694V251H56.8382V242.141H53.6663ZM64.6547 246.466V251H63.1682V240.818H64.6349V244.607H64.7293C64.9083 244.196 65.1817 243.869 65.5496 243.627C65.9175 243.385 66.3981 243.264 66.9914 243.264C67.5151 243.264 67.9724 243.372 68.3635 243.587C68.758 243.803 69.0629 244.124 69.2783 244.552C69.4971 244.976 69.6064 245.506 69.6064 246.143V251H68.1199V246.322C68.1199 245.762 67.9758 245.327 67.6874 245.019C67.3991 244.708 66.998 244.552 66.4843 244.552C66.133 244.552 65.8181 244.626 65.5397 244.776C65.2646 244.925 65.0475 245.143 64.8884 245.432C64.7326 245.717 64.6547 246.062 64.6547 246.466ZM74.8813 251.154C74.1289 251.154 73.481 250.993 72.9374 250.672C72.3972 250.347 71.9796 249.891 71.6846 249.305C71.3929 248.715 71.2471 248.024 71.2471 247.232C71.2471 246.449 71.3929 245.76 71.6846 245.163C71.9796 244.567 72.3905 244.101 72.9175 243.766C73.4478 243.432 74.0676 243.264 74.7769 243.264C75.2078 243.264 75.6254 243.335 76.0297 243.478C76.4341 243.621 76.797 243.844 77.1185 244.149C77.44 244.454 77.6936 244.85 77.8792 245.337C78.0648 245.821 78.1576 246.41 78.1576 247.102V247.629H72.0873V246.516H76.7009C76.7009 246.125 76.6214 245.778 76.4623 245.477C76.3032 245.172 76.0795 244.931 75.7911 244.756C75.5061 244.58 75.1713 244.492 74.7868 244.492C74.3692 244.492 74.0046 244.595 73.6931 244.8C73.3849 245.003 73.1462 245.268 72.9772 245.596C72.8115 245.921 72.7286 246.274 72.7286 246.655V247.525C72.7286 248.035 72.8181 248.469 72.9971 248.827C73.1794 249.185 73.4329 249.459 73.7577 249.648C74.0825 249.833 74.462 249.926 74.8962 249.926C75.1779 249.926 75.4348 249.886 75.6668 249.807C75.8988 249.724 76.0993 249.601 76.2684 249.439C76.4374 249.277 76.5667 249.076 76.6562 248.837L78.0631 249.091C77.9504 249.505 77.7483 249.868 77.4566 250.18C77.1682 250.488 76.8053 250.728 76.3678 250.901C75.9336 251.07 75.4381 251.154 74.8813 251.154ZM83.6313 251V240.818H87.2606C88.0527 240.818 88.709 240.962 89.2293 241.251C89.7497 241.539 90.1391 241.933 90.3976 242.434C90.6562 242.931 90.7854 243.491 90.7854 244.114C90.7854 244.741 90.6545 245.304 90.3927 245.805C90.1341 246.302 89.743 246.696 89.2194 246.988C88.699 247.276 88.0444 247.42 87.2556 247.42H84.7599V246.118H87.1164C87.6169 246.118 88.0229 246.032 88.3344 245.859C88.646 245.684 88.8747 245.445 89.0205 245.143C89.1663 244.842 89.2393 244.499 89.2393 244.114C89.2393 243.73 89.1663 243.388 89.0205 243.09C88.8747 242.792 88.6443 242.558 88.3295 242.389C88.0179 242.22 87.6069 242.136 87.0965 242.136H85.1675V251H83.6313ZM94.621 251.169C94.1371 251.169 93.6996 251.08 93.3085 250.901C92.9174 250.718 92.6075 250.455 92.3788 250.11C92.1534 249.765 92.0407 249.343 92.0407 248.842C92.0407 248.411 92.1236 248.057 92.2893 247.778C92.455 247.5 92.6788 247.28 92.9605 247.117C93.2422 246.955 93.5571 246.832 93.9051 246.749C94.2531 246.666 94.6077 246.603 94.969 246.56C95.4264 246.507 95.7976 246.464 96.0827 246.431C96.3677 246.395 96.5748 246.337 96.7041 246.257C96.8334 246.178 96.898 246.048 96.898 245.869V245.835C96.898 245.4 96.7754 245.064 96.5301 244.825C96.2881 244.587 95.9269 244.467 95.4463 244.467C94.9458 244.467 94.5514 244.578 94.2631 244.8C93.978 245.019 93.7808 245.263 93.6714 245.531L92.2744 245.213C92.4401 244.749 92.6821 244.375 93.0003 244.089C93.3218 243.801 93.6913 243.592 94.1089 243.463C94.5265 243.33 94.9657 243.264 95.4264 243.264C95.7313 243.264 96.0545 243.301 96.3959 243.374C96.7406 243.443 97.0621 243.572 97.3604 243.761C97.662 243.95 97.9089 244.22 98.1011 244.572C98.2934 244.92 98.3895 245.372 98.3895 245.929V251H96.9378V249.956H96.8781C96.782 250.148 96.6378 250.337 96.4456 250.523C96.2533 250.708 96.0064 250.862 95.7048 250.985C95.4032 251.108 95.0419 251.169 94.621 251.169ZM94.9442 249.976C95.3551 249.976 95.7065 249.895 95.9981 249.732C96.2931 249.57 96.5168 249.358 96.6693 249.096C96.8251 248.831 96.903 248.547 96.903 248.246V247.261C96.8499 247.314 96.7472 247.364 96.5947 247.411C96.4456 247.454 96.2749 247.492 96.0827 247.525C95.8904 247.555 95.7032 247.583 95.5209 247.609C95.3386 247.633 95.1861 247.652 95.0635 247.669C94.7751 247.705 94.5116 247.767 94.273 247.853C94.0377 247.939 93.8488 248.063 93.7062 248.226C93.567 248.385 93.4974 248.597 93.4974 248.862C93.4974 249.23 93.6333 249.509 93.9051 249.697C94.1769 249.883 94.5232 249.976 94.9442 249.976ZM103.571 254.023C102.965 254.023 102.443 253.943 102.005 253.784C101.571 253.625 101.216 253.415 100.941 253.153C100.666 252.891 100.461 252.604 100.325 252.293L101.602 251.766C101.692 251.911 101.811 252.066 101.96 252.228C102.113 252.394 102.318 252.535 102.577 252.651C102.839 252.767 103.175 252.825 103.586 252.825C104.149 252.825 104.615 252.687 104.983 252.412C105.351 252.14 105.535 251.706 105.535 251.109V249.608H105.44C105.351 249.77 105.222 249.951 105.053 250.15C104.887 250.349 104.658 250.521 104.367 250.667C104.075 250.813 103.695 250.886 103.228 250.886C102.625 250.886 102.081 250.745 101.597 250.463C101.117 250.178 100.736 249.759 100.454 249.205C100.176 248.648 100.036 247.964 100.036 247.152C100.036 246.34 100.174 245.644 100.449 245.064C100.727 244.484 101.109 244.04 101.592 243.732C102.076 243.42 102.625 243.264 103.238 243.264C103.712 243.264 104.095 243.344 104.386 243.503C104.678 243.659 104.905 243.841 105.068 244.05C105.233 244.259 105.361 244.442 105.45 244.602H105.56V243.364H107.016V251.169C107.016 251.825 106.864 252.364 106.559 252.785C106.254 253.206 105.841 253.517 105.321 253.719C104.804 253.922 104.221 254.023 103.571 254.023ZM103.556 249.653C103.984 249.653 104.345 249.553 104.64 249.354C104.938 249.152 105.164 248.864 105.316 248.489C105.472 248.112 105.55 247.659 105.55 247.132C105.55 246.618 105.474 246.166 105.321 245.775C105.169 245.384 104.945 245.079 104.65 244.86C104.355 244.638 103.99 244.527 103.556 244.527C103.109 244.527 102.736 244.643 102.438 244.875C102.139 245.104 101.914 245.415 101.761 245.81C101.612 246.204 101.538 246.645 101.538 247.132C101.538 247.633 101.614 248.072 101.766 248.45C101.919 248.827 102.144 249.122 102.443 249.335C102.744 249.547 103.115 249.653 103.556 249.653ZM112.301 251.154C111.549 251.154 110.901 250.993 110.357 250.672C109.817 250.347 109.399 249.891 109.104 249.305C108.813 248.715 108.667 248.024 108.667 247.232C108.667 246.449 108.813 245.76 109.104 245.163C109.399 244.567 109.81 244.101 110.337 243.766C110.868 243.432 111.488 243.264 112.197 243.264C112.628 243.264 113.045 243.335 113.45 243.478C113.854 243.621 114.217 243.844 114.538 244.149C114.86 244.454 115.113 244.85 115.299 245.337C115.485 245.821 115.578 246.41 115.578 247.102V247.629H109.507V246.516H114.121C114.121 246.125 114.041 245.778 113.882 245.477C113.723 245.172 113.499 244.931 113.211 244.756C112.926 244.58 112.591 244.492 112.207 244.492C111.789 244.492 111.425 244.595 111.113 244.8C110.805 245.003 110.566 245.268 110.397 245.596C110.231 245.921 110.149 246.274 110.149 246.655V247.525C110.149 248.035 110.238 248.469 110.417 248.827C110.599 249.185 110.853 249.459 111.178 249.648C111.502 249.833 111.882 249.926 112.316 249.926C112.598 249.926 112.855 249.886 113.087 249.807C113.319 249.724 113.519 249.601 113.688 249.439C113.857 249.277 113.987 249.076 114.076 248.837L115.483 249.091C115.37 249.505 115.168 249.868 114.877 250.18C114.588 250.488 114.225 250.728 113.788 250.901C113.354 251.07 112.858 251.154 112.301 251.154ZM120.266 240.818H122.011L124.671 245.447H124.78L127.44 240.818H129.185L125.491 247.003V251H123.96V247.003L120.266 240.818ZM132.475 251.154C131.759 251.154 131.134 250.99 130.6 250.662C130.067 250.334 129.652 249.875 129.358 249.285C129.063 248.695 128.915 248.005 128.915 247.217C128.915 246.424 129.063 245.732 129.358 245.138C129.652 244.545 130.067 244.085 130.6 243.756C131.134 243.428 131.759 243.264 132.475 243.264C133.191 243.264 133.815 243.428 134.349 243.756C134.883 244.085 135.297 244.545 135.592 245.138C135.887 245.732 136.034 246.424 136.034 247.217C136.034 248.005 135.887 248.695 135.592 249.285C135.297 249.875 134.883 250.334 134.349 250.662C133.815 250.99 133.191 251.154 132.475 251.154ZM132.48 249.906C132.944 249.906 133.328 249.784 133.633 249.538C133.938 249.293 134.163 248.967 134.309 248.559C134.458 248.151 134.533 247.702 134.533 247.212C134.533 246.724 134.458 246.277 134.309 245.869C134.163 245.458 133.938 245.129 133.633 244.88C133.328 244.631 132.944 244.507 132.48 244.507C132.012 244.507 131.625 244.631 131.316 244.88C131.011 245.129 130.784 245.458 130.635 245.869C130.489 246.277 130.416 246.724 130.416 247.212C130.416 247.702 130.489 248.151 130.635 248.559C130.784 248.967 131.011 249.293 131.316 249.538C131.625 249.784 132.012 249.906 132.48 249.906ZM142.531 247.833V243.364H144.022V251H142.561V249.678H142.481C142.306 250.085 142.024 250.425 141.636 250.697C141.252 250.965 140.773 251.099 140.199 251.099C139.709 251.099 139.275 250.992 138.897 250.776C138.522 250.558 138.227 250.234 138.012 249.807C137.8 249.379 137.694 248.851 137.694 248.221V243.364H139.18V248.042C139.18 248.562 139.324 248.977 139.613 249.285C139.901 249.593 140.276 249.747 140.736 249.747C141.015 249.747 141.291 249.678 141.566 249.538C141.845 249.399 142.075 249.189 142.258 248.907C142.443 248.625 142.534 248.267 142.531 247.833ZM147.503 240.818V241.773C147.503 242.054 147.45 242.351 147.343 242.663C147.241 242.971 147.095 243.268 146.906 243.553C146.717 243.838 146.495 244.083 146.24 244.288L145.504 243.761C145.7 243.476 145.869 243.173 146.011 242.852C146.157 242.53 146.23 242.175 146.23 241.788V240.818H147.503ZM148.713 251V243.364H150.15V244.577H150.229C150.369 244.166 150.614 243.843 150.965 243.607C151.32 243.369 151.721 243.249 152.168 243.249C152.261 243.249 152.371 243.253 152.497 243.259C152.626 243.266 152.727 243.274 152.8 243.284V244.706C152.74 244.689 152.634 244.671 152.482 244.651C152.329 244.628 152.177 244.616 152.024 244.616C151.673 244.616 151.36 244.691 151.085 244.84C150.813 244.986 150.597 245.19 150.438 245.452C150.279 245.71 150.2 246.005 150.2 246.337V251H148.713ZM157.104 251.154C156.352 251.154 155.704 250.993 155.16 250.672C154.62 250.347 154.202 249.891 153.907 249.305C153.616 248.715 153.47 248.024 153.47 247.232C153.47 246.449 153.616 245.76 153.907 245.163C154.202 244.567 154.613 244.101 155.14 243.766C155.67 243.432 156.29 243.264 157 243.264C157.43 243.264 157.848 243.335 158.252 243.478C158.657 243.621 159.02 243.844 159.341 244.149C159.663 244.454 159.916 244.85 160.102 245.337C160.287 245.821 160.38 246.41 160.38 247.102V247.629H154.31V246.516H158.924C158.924 246.125 158.844 245.778 158.685 245.477C158.526 245.172 158.302 244.931 158.014 244.756C157.729 244.58 157.394 244.492 157.009 244.492C156.592 244.492 156.227 244.595 155.916 244.8C155.608 245.003 155.369 245.268 155.2 245.596C155.034 245.921 154.951 246.274 154.951 246.655V247.525C154.951 248.035 155.041 248.469 155.22 248.827C155.402 249.185 155.656 249.459 155.98 249.648C156.305 249.833 156.685 249.926 157.119 249.926C157.401 249.926 157.657 249.886 157.889 249.807C158.121 249.724 158.322 249.601 158.491 249.439C158.66 249.277 158.789 249.076 158.879 248.837L160.286 249.091C160.173 249.505 159.971 249.868 159.679 250.18C159.391 250.488 159.028 250.728 158.59 250.901C158.156 251.07 157.661 251.154 157.104 251.154ZM165.854 251V240.818H167.39V249.678H172.004V251H165.854ZM176.854 251.154C176.138 251.154 175.513 250.99 174.979 250.662C174.446 250.334 174.031 249.875 173.736 249.285C173.441 248.695 173.294 248.005 173.294 247.217C173.294 246.424 173.441 245.732 173.736 245.138C174.031 244.545 174.446 244.085 174.979 243.756C175.513 243.428 176.138 243.264 176.854 243.264C177.57 243.264 178.194 243.428 178.728 243.756C179.262 244.085 179.676 244.545 179.971 245.138C180.266 245.732 180.413 246.424 180.413 247.217C180.413 248.005 180.266 248.695 179.971 249.285C179.676 249.875 179.262 250.334 178.728 250.662C178.194 250.99 177.57 251.154 176.854 251.154ZM176.859 249.906C177.323 249.906 177.707 249.784 178.012 249.538C178.317 249.293 178.542 248.967 178.688 248.559C178.837 248.151 178.912 247.702 178.912 247.212C178.912 246.724 178.837 246.277 178.688 245.869C178.542 245.458 178.317 245.129 178.012 244.88C177.707 244.631 177.323 244.507 176.859 244.507C176.391 244.507 176.003 244.631 175.695 244.88C175.39 245.129 175.163 245.458 175.014 245.869C174.868 246.277 174.795 246.724 174.795 247.212C174.795 247.702 174.868 248.151 175.014 248.559C175.163 248.967 175.39 249.293 175.695 249.538C176.003 249.784 176.391 249.906 176.859 249.906ZM185.289 251.154C184.573 251.154 183.948 250.99 183.415 250.662C182.881 250.334 182.467 249.875 182.172 249.285C181.877 248.695 181.729 248.005 181.729 247.217C181.729 246.424 181.877 245.732 182.172 245.138C182.467 244.545 182.881 244.085 183.415 243.756C183.948 243.428 184.573 243.264 185.289 243.264C186.005 243.264 186.63 243.428 187.163 243.756C187.697 244.085 188.111 244.545 188.406 245.138C188.701 245.732 188.849 246.424 188.849 247.217C188.849 248.005 188.701 248.695 188.406 249.285C188.111 249.875 187.697 250.334 187.163 250.662C186.63 250.99 186.005 251.154 185.289 251.154ZM185.294 249.906C185.758 249.906 186.143 249.784 186.448 249.538C186.752 249.293 186.978 248.967 187.124 248.559C187.273 248.151 187.347 247.702 187.347 247.212C187.347 246.724 187.273 246.277 187.124 245.869C186.978 245.458 186.752 245.129 186.448 244.88C186.143 244.631 185.758 244.507 185.294 244.507C184.827 244.507 184.439 244.631 184.131 244.88C183.826 245.129 183.599 245.458 183.45 245.869C183.304 246.277 183.231 246.724 183.231 247.212C183.231 247.702 183.304 248.151 183.45 248.559C183.599 248.967 183.826 249.293 184.131 249.538C184.439 249.784 184.827 249.906 185.294 249.906ZM191.875 248.41L191.865 246.595H192.124L195.166 243.364H196.946L193.476 247.043H193.242L191.875 248.41ZM190.508 251V240.818H191.995V251H190.508ZM195.331 251L192.596 247.371L193.62 246.332L197.155 251H195.331ZM198.301 251V243.364H199.788V251H198.301ZM199.052 242.185C198.793 242.185 198.571 242.099 198.386 241.927C198.203 241.751 198.112 241.542 198.112 241.3C198.112 241.055 198.203 240.846 198.386 240.674C198.571 240.498 198.793 240.411 199.052 240.411C199.31 240.411 199.531 240.498 199.713 240.674C199.899 240.846 199.991 241.055 199.991 241.3C199.991 241.542 199.899 241.751 199.713 241.927C199.531 242.099 199.31 242.185 199.052 242.185ZM203.274 246.466V251H201.787V243.364H203.214V244.607H203.309C203.484 244.202 203.759 243.877 204.134 243.632C204.512 243.387 204.987 243.264 205.561 243.264C206.081 243.264 206.537 243.374 206.928 243.592C207.319 243.808 207.622 244.129 207.838 244.557C208.053 244.984 208.161 245.513 208.161 246.143V251H206.674V246.322C206.674 245.768 206.53 245.336 206.242 245.024C205.954 244.709 205.557 244.552 205.054 244.552C204.709 244.552 204.402 244.626 204.134 244.776C203.869 244.925 203.658 245.143 203.503 245.432C203.35 245.717 203.274 246.062 203.274 246.466ZM213.356 254.023C212.75 254.023 212.228 253.943 211.79 253.784C211.356 253.625 211.001 253.415 210.726 253.153C210.451 252.891 210.246 252.604 210.11 252.293L211.388 251.766C211.477 251.911 211.596 252.066 211.745 252.228C211.898 252.394 212.103 252.535 212.362 252.651C212.624 252.767 212.96 252.825 213.371 252.825C213.935 252.825 214.4 252.687 214.768 252.412C215.136 252.14 215.32 251.706 215.32 251.109V249.608H215.226C215.136 249.77 215.007 249.951 214.838 250.15C214.672 250.349 214.443 250.521 214.152 250.667C213.86 250.813 213.481 250.886 213.013 250.886C212.41 250.886 211.866 250.745 211.383 250.463C210.902 250.178 210.521 249.759 210.239 249.205C209.961 248.648 209.821 247.964 209.821 247.152C209.821 246.34 209.959 245.644 210.234 245.064C210.513 244.484 210.894 244.04 211.378 243.732C211.861 243.42 212.41 243.264 213.023 243.264C213.497 243.264 213.88 243.344 214.172 243.503C214.463 243.659 214.69 243.841 214.853 244.05C215.018 244.259 215.146 244.442 215.236 244.602H215.345V243.364H216.802V251.169C216.802 251.825 216.649 252.364 216.344 252.785C216.039 253.206 215.627 253.517 215.106 253.719C214.589 253.922 214.006 254.023 213.356 254.023ZM213.341 249.653C213.769 249.653 214.13 249.553 214.425 249.354C214.723 249.152 214.949 248.864 215.101 248.489C215.257 248.112 215.335 247.659 215.335 247.132C215.335 246.618 215.259 246.166 215.106 245.775C214.954 245.384 214.73 245.079 214.435 244.86C214.14 244.638 213.776 244.527 213.341 244.527C212.894 244.527 212.521 244.643 212.223 244.875C211.924 245.104 211.699 245.415 211.547 245.81C211.397 246.204 211.323 246.645 211.323 247.132C211.323 247.633 211.399 248.072 211.552 248.45C211.704 248.827 211.929 249.122 212.228 249.335C212.529 249.547 212.901 249.653 213.341 249.653ZM222.62 251V240.818H228.934V242.141H224.156V245.243H228.481V246.56H224.156V251H222.62ZM233.359 251.154C232.644 251.154 232.019 250.99 231.485 250.662C230.952 250.334 230.537 249.875 230.242 249.285C229.947 248.695 229.8 248.005 229.8 247.217C229.8 246.424 229.947 245.732 230.242 245.138C230.537 244.545 230.952 244.085 231.485 243.756C232.019 243.428 232.644 243.264 233.359 243.264C234.075 243.264 234.7 243.428 235.234 243.756C235.767 244.085 236.182 244.545 236.477 245.138C236.772 245.732 236.919 246.424 236.919 247.217C236.919 248.005 236.772 248.695 236.477 249.285C236.182 249.875 235.767 250.334 235.234 250.662C234.7 250.99 234.075 251.154 233.359 251.154ZM233.364 249.906C233.828 249.906 234.213 249.784 234.518 249.538C234.823 249.293 235.048 248.967 235.194 248.559C235.343 248.151 235.418 247.702 235.418 247.212C235.418 246.724 235.343 246.277 235.194 245.869C235.048 245.458 234.823 245.129 234.518 244.88C234.213 244.631 233.828 244.507 233.364 244.507C232.897 244.507 232.509 244.631 232.201 244.88C231.896 245.129 231.669 245.458 231.52 245.869C231.374 246.277 231.301 246.724 231.301 247.212C231.301 247.702 231.374 248.151 231.52 248.559C231.669 248.967 231.896 249.293 232.201 249.538C232.509 249.784 232.897 249.906 233.364 249.906ZM238.578 251V243.364H240.015V244.577H240.095C240.234 244.166 240.479 243.843 240.831 243.607C241.185 243.369 241.586 243.249 242.034 243.249C242.126 243.249 242.236 243.253 242.362 243.259C242.491 243.266 242.592 243.274 242.665 243.284V244.706C242.605 244.689 242.499 244.671 242.347 244.651C242.194 244.628 242.042 244.616 241.889 244.616C241.538 244.616 241.225 244.691 240.95 244.84C240.678 244.986 240.463 245.19 240.304 245.452C240.144 245.71 240.065 246.005 240.065 246.337V251H238.578ZM249.312 240.818V251H247.776V240.818H249.312ZM257.152 245.228L255.805 245.467C255.749 245.294 255.659 245.13 255.536 244.974C255.417 244.819 255.255 244.691 255.049 244.592C254.844 244.492 254.587 244.442 254.279 244.442C253.858 244.442 253.506 244.537 253.225 244.726C252.943 244.911 252.802 245.152 252.802 245.447C252.802 245.702 252.897 245.907 253.085 246.063C253.274 246.219 253.579 246.347 254 246.446L255.213 246.724C255.916 246.887 256.44 247.137 256.784 247.475C257.129 247.813 257.301 248.252 257.301 248.793C257.301 249.25 257.169 249.658 256.904 250.016C256.642 250.37 256.276 250.649 255.805 250.851C255.338 251.053 254.796 251.154 254.179 251.154C253.324 251.154 252.626 250.972 252.086 250.607C251.546 250.239 251.215 249.717 251.092 249.041L252.529 248.822C252.618 249.197 252.802 249.48 253.081 249.673C253.359 249.862 253.722 249.956 254.169 249.956C254.657 249.956 255.046 249.855 255.338 249.653C255.629 249.447 255.775 249.197 255.775 248.902C255.775 248.663 255.686 248.463 255.507 248.3C255.331 248.138 255.061 248.015 254.696 247.933L253.404 247.649C252.691 247.487 252.164 247.228 251.823 246.874C251.485 246.519 251.316 246.07 251.316 245.526C251.316 245.076 251.442 244.681 251.693 244.343C251.945 244.005 252.293 243.741 252.737 243.553C253.182 243.36 253.69 243.264 254.264 243.264C255.089 243.264 255.739 243.443 256.213 243.801C256.687 244.156 257 244.631 257.152 245.228ZM260.422 246.466V251H258.936V243.364H260.363V244.607H260.457C260.633 244.202 260.908 243.877 261.282 243.632C261.66 243.387 262.136 243.264 262.709 243.264C263.23 243.264 263.685 243.374 264.076 243.592C264.468 243.808 264.771 244.129 264.986 244.557C265.202 244.984 265.309 245.513 265.309 246.143V251H263.823V246.322C263.823 245.768 263.679 245.336 263.39 245.024C263.102 244.709 262.706 244.552 262.202 244.552C261.857 244.552 261.551 244.626 261.282 244.776C261.017 244.925 260.807 245.143 260.651 245.432C260.499 245.717 260.422 246.062 260.422 246.466ZM268.581 240.818V241.773C268.581 242.054 268.528 242.351 268.422 242.663C268.319 242.971 268.173 243.268 267.984 243.553C267.795 243.838 267.573 244.083 267.318 244.288L266.582 243.761C266.778 243.476 266.947 243.173 267.089 242.852C267.235 242.53 267.308 242.175 267.308 241.788V240.818H268.581ZM273.875 243.364V244.557H269.704V243.364H273.875ZM270.823 241.534H272.309V248.758C272.309 249.046 272.352 249.263 272.439 249.409C272.525 249.552 272.636 249.649 272.772 249.702C272.911 249.752 273.062 249.777 273.224 249.777C273.343 249.777 273.448 249.769 273.537 249.752C273.627 249.736 273.696 249.722 273.746 249.712L274.015 250.94C273.928 250.973 273.806 251.007 273.647 251.04C273.488 251.076 273.289 251.096 273.05 251.099C272.659 251.106 272.294 251.036 271.956 250.891C271.618 250.745 271.345 250.519 271.136 250.214C270.927 249.91 270.823 249.527 270.823 249.066V241.534ZM279.344 251V240.818H280.88V245.243H285.956V240.818H287.498V251H285.956V246.56H280.88V251H279.344ZM292.907 251.154C292.154 251.154 291.506 250.993 290.963 250.672C290.423 250.347 290.005 249.891 289.71 249.305C289.418 248.715 289.272 248.024 289.272 247.232C289.272 246.449 289.418 245.76 289.71 245.163C290.005 244.567 290.416 244.101 290.943 243.766C291.473 243.432 292.093 243.264 292.802 243.264C293.233 243.264 293.651 243.335 294.055 243.478C294.459 243.621 294.822 243.844 295.144 244.149C295.465 244.454 295.719 244.85 295.905 245.337C296.09 245.821 296.183 246.41 296.183 247.102V247.629H290.113V246.516H294.726C294.726 246.125 294.647 245.778 294.488 245.477C294.329 245.172 294.105 244.931 293.816 244.756C293.531 244.58 293.197 244.492 292.812 244.492C292.395 244.492 292.03 244.595 291.718 244.8C291.41 245.003 291.172 245.268 291.003 245.596C290.837 245.921 290.754 246.274 290.754 246.655V247.525C290.754 248.035 290.843 248.469 291.022 248.827C291.205 249.185 291.458 249.459 291.783 249.648C292.108 249.833 292.487 249.926 292.922 249.926C293.203 249.926 293.46 249.886 293.692 249.807C293.924 249.724 294.125 249.601 294.294 249.439C294.463 249.277 294.592 249.076 294.682 248.837L296.089 249.091C295.976 249.505 295.774 249.868 295.482 250.18C295.194 250.488 294.831 250.728 294.393 250.901C293.959 251.07 293.464 251.154 292.907 251.154ZM297.832 251V243.364H299.269V244.577H299.349C299.488 244.166 299.733 243.843 300.084 243.607C300.439 243.369 300.84 243.249 301.288 243.249C301.38 243.249 301.49 243.253 301.616 243.259C301.745 243.266 301.846 243.274 301.919 243.284V244.706C301.859 244.689 301.753 244.671 301.601 244.651C301.448 244.628 301.296 244.616 301.143 244.616C300.792 244.616 300.479 244.691 300.204 244.84C299.932 244.986 299.717 245.19 299.557 245.452C299.398 245.71 299.319 246.005 299.319 246.337V251H297.832ZM306.223 251.154C305.471 251.154 304.823 250.993 304.279 250.672C303.739 250.347 303.321 249.891 303.026 249.305C302.735 248.715 302.589 248.024 302.589 247.232C302.589 246.449 302.735 245.76 303.026 245.163C303.321 244.567 303.732 244.101 304.259 243.766C304.79 243.432 305.409 243.264 306.119 243.264C306.55 243.264 306.967 243.335 307.372 243.478C307.776 243.621 308.139 243.844 308.46 244.149C308.782 244.454 309.035 244.85 309.221 245.337C309.407 245.821 309.499 246.41 309.499 247.102V247.629H303.429V246.516H308.043C308.043 246.125 307.963 245.778 307.804 245.477C307.645 245.172 307.421 244.931 307.133 244.756C306.848 244.58 306.513 244.492 306.129 244.492C305.711 244.492 305.346 244.595 305.035 244.8C304.727 245.003 304.488 245.268 304.319 245.596C304.153 245.921 304.07 246.274 304.07 246.655V247.525C304.07 248.035 304.16 248.469 304.339 248.827C304.521 249.185 304.775 249.459 305.1 249.648C305.424 249.833 305.804 249.926 306.238 249.926C306.52 249.926 306.777 249.886 307.009 249.807C307.241 249.724 307.441 249.601 307.61 249.439C307.779 249.277 307.908 249.076 307.998 248.837L309.405 249.091C309.292 249.505 309.09 249.868 308.798 250.18C308.51 250.488 308.147 250.728 307.71 250.901C307.275 251.07 306.78 251.154 306.223 251.154ZM312.128 251.094C311.856 251.094 311.623 250.998 311.427 250.806C311.232 250.611 311.134 250.375 311.134 250.1C311.134 249.828 311.232 249.596 311.427 249.404C311.623 249.209 311.856 249.111 312.128 249.111C312.4 249.111 312.634 249.209 312.829 249.404C313.025 249.596 313.122 249.828 313.122 250.1C313.122 250.282 313.076 250.45 312.983 250.602C312.894 250.751 312.774 250.871 312.625 250.96C312.476 251.05 312.31 251.094 312.128 251.094ZM101.083 271V260.818H102.62V269.678H107.233V271H101.083ZM112.158 271.154C111.405 271.154 110.757 270.993 110.214 270.672C109.674 270.347 109.256 269.891 108.961 269.305C108.669 268.715 108.523 268.024 108.523 267.232C108.523 266.449 108.669 265.76 108.961 265.163C109.256 264.567 109.667 264.101 110.194 263.766C110.724 263.432 111.344 263.264 112.053 263.264C112.484 263.264 112.902 263.335 113.306 263.478C113.71 263.621 114.073 263.844 114.395 264.149C114.716 264.454 114.97 264.85 115.156 265.337C115.341 265.821 115.434 266.41 115.434 267.102V267.629H109.364V266.516H113.977C113.977 266.125 113.898 265.778 113.739 265.477C113.58 265.172 113.356 264.931 113.067 264.756C112.782 264.58 112.448 264.492 112.063 264.492C111.646 264.492 111.281 264.595 110.969 264.8C110.661 265.003 110.423 265.268 110.254 265.596C110.088 265.921 110.005 266.274 110.005 266.655V267.525C110.005 268.035 110.094 268.469 110.273 268.827C110.456 269.185 110.709 269.459 111.034 269.648C111.359 269.833 111.738 269.926 112.173 269.926C112.454 269.926 112.711 269.886 112.943 269.807C113.175 269.724 113.376 269.601 113.545 269.439C113.714 269.277 113.843 269.076 113.933 268.837L115.339 269.091C115.227 269.505 115.025 269.868 114.733 270.18C114.445 270.488 114.082 270.728 113.644 270.901C113.21 271.07 112.714 271.154 112.158 271.154ZM120.648 263.364V264.557H116.477V263.364H120.648ZM117.595 261.534H119.082V268.758C119.082 269.046 119.125 269.263 119.211 269.409C119.297 269.552 119.408 269.649 119.544 269.702C119.683 269.752 119.834 269.777 119.997 269.777C120.116 269.777 120.22 269.769 120.31 269.752C120.399 269.736 120.469 269.722 120.519 269.712L120.787 270.94C120.701 270.973 120.578 271.007 120.419 271.04C120.26 271.076 120.061 271.096 119.823 271.099C119.432 271.106 119.067 271.036 118.729 270.891C118.391 270.745 118.117 270.519 117.909 270.214C117.7 269.91 117.595 269.527 117.595 269.066V261.534ZM123.953 260.818V261.773C123.953 262.054 123.9 262.351 123.794 262.663C123.691 262.971 123.545 263.268 123.356 263.553C123.167 263.838 122.945 264.083 122.69 264.288L121.954 263.761C122.15 263.476 122.319 263.173 122.461 262.852C122.607 262.53 122.68 262.175 122.68 261.788V260.818H123.953ZM130.147 265.228L128.8 265.467C128.744 265.294 128.654 265.13 128.532 264.974C128.412 264.819 128.25 264.691 128.044 264.592C127.839 264.492 127.582 264.442 127.274 264.442C126.853 264.442 126.502 264.537 126.22 264.726C125.938 264.911 125.797 265.152 125.797 265.447C125.797 265.702 125.892 265.907 126.081 266.063C126.27 266.219 126.574 266.347 126.995 266.446L128.208 266.724C128.911 266.887 129.435 267.137 129.779 267.475C130.124 267.813 130.297 268.252 130.297 268.793C130.297 269.25 130.164 269.658 129.899 270.016C129.637 270.37 129.271 270.649 128.8 270.851C128.333 271.053 127.791 271.154 127.174 271.154C126.319 271.154 125.622 270.972 125.081 270.607C124.541 270.239 124.21 269.717 124.087 269.041L125.524 268.822C125.613 269.197 125.797 269.48 126.076 269.673C126.354 269.862 126.717 269.956 127.164 269.956C127.652 269.956 128.041 269.855 128.333 269.653C128.624 269.447 128.77 269.197 128.77 268.902C128.77 268.663 128.681 268.463 128.502 268.3C128.326 268.138 128.056 268.015 127.691 267.933L126.399 267.649C125.686 267.487 125.159 267.228 124.818 266.874C124.48 266.519 124.311 266.07 124.311 265.526C124.311 265.076 124.437 264.681 124.689 264.343C124.94 264.005 125.288 263.741 125.733 263.553C126.177 263.36 126.685 263.264 127.259 263.264C128.084 263.264 128.734 263.443 129.208 263.801C129.682 264.156 129.995 264.631 130.147 265.228ZM142.646 264.035C142.55 263.733 142.421 263.463 142.258 263.224C142.099 262.982 141.908 262.777 141.686 262.608C141.464 262.436 141.211 262.305 140.926 262.215C140.644 262.126 140.334 262.081 139.996 262.081C139.423 262.081 138.906 262.228 138.445 262.523C137.984 262.818 137.62 263.251 137.351 263.821C137.086 264.388 136.953 265.082 136.953 265.904C136.953 266.729 137.088 267.427 137.356 267.997C137.625 268.567 137.993 269 138.46 269.295C138.927 269.59 139.459 269.737 140.056 269.737C140.609 269.737 141.092 269.625 141.502 269.399C141.917 269.174 142.237 268.856 142.462 268.445C142.691 268.03 142.805 267.543 142.805 266.983L143.203 267.058H140.289V265.79H144.292V266.948C144.292 267.803 144.109 268.546 143.745 269.175C143.383 269.802 142.883 270.286 142.243 270.627C141.607 270.969 140.878 271.139 140.056 271.139C139.134 271.139 138.326 270.927 137.63 270.503C136.937 270.079 136.397 269.477 136.009 268.698C135.621 267.916 135.427 266.988 135.427 265.914C135.427 265.102 135.54 264.373 135.765 263.727C135.991 263.08 136.307 262.532 136.715 262.081C137.126 261.627 137.608 261.281 138.162 261.042C138.718 260.8 139.327 260.679 139.986 260.679C140.536 260.679 141.048 260.76 141.522 260.923C142 261.085 142.424 261.315 142.795 261.614C143.17 261.912 143.48 262.267 143.725 262.678C143.97 263.085 144.136 263.538 144.222 264.035H142.646ZM149.414 271.154C148.661 271.154 148.013 270.993 147.47 270.672C146.929 270.347 146.512 269.891 146.217 269.305C145.925 268.715 145.779 268.024 145.779 267.232C145.779 266.449 145.925 265.76 146.217 265.163C146.512 264.567 146.923 264.101 147.45 263.766C147.98 263.432 148.6 263.264 149.309 263.264C149.74 263.264 150.158 263.335 150.562 263.478C150.966 263.621 151.329 263.844 151.651 264.149C151.972 264.454 152.226 264.85 152.411 265.337C152.597 265.821 152.69 266.41 152.69 267.102V267.629H146.619V266.516H151.233C151.233 266.125 151.154 265.778 150.994 265.477C150.835 265.172 150.612 264.931 150.323 264.756C150.038 264.58 149.704 264.492 149.319 264.492C148.901 264.492 148.537 264.595 148.225 264.8C147.917 265.003 147.678 265.268 147.509 265.596C147.344 265.921 147.261 266.274 147.261 266.655V267.525C147.261 268.035 147.35 268.469 147.529 268.827C147.712 269.185 147.965 269.459 148.29 269.648C148.615 269.833 148.994 269.926 149.428 269.926C149.71 269.926 149.967 269.886 150.199 269.807C150.431 269.724 150.632 269.601 150.801 269.439C150.97 269.277 151.099 269.076 151.188 268.837L152.595 269.091C152.483 269.505 152.28 269.868 151.989 270.18C151.7 270.488 151.338 270.728 150.9 270.901C150.466 271.07 149.97 271.154 149.414 271.154ZM157.904 263.364V264.557H153.733V263.364H157.904ZM154.851 261.534H156.338V268.758C156.338 269.046 156.381 269.263 156.467 269.409C156.553 269.552 156.664 269.649 156.8 269.702C156.939 269.752 157.09 269.777 157.252 269.777C157.372 269.777 157.476 269.769 157.566 269.752C157.655 269.736 157.725 269.722 157.775 269.712L158.043 270.94C157.957 270.973 157.834 271.007 157.675 271.04C157.516 271.076 157.317 271.096 157.078 271.099C156.687 271.106 156.323 271.036 155.985 270.891C155.647 270.745 155.373 270.519 155.164 270.214C154.956 269.91 154.851 269.527 154.851 269.066V261.534ZM162.587 260.818H164.332L166.992 265.447H167.101L169.761 260.818H171.506L167.812 267.003V271H166.281V267.003L162.587 260.818ZM174.796 271.154C174.08 271.154 173.455 270.99 172.922 270.662C172.388 270.334 171.974 269.875 171.679 269.285C171.384 268.695 171.236 268.005 171.236 267.217C171.236 266.424 171.384 265.732 171.679 265.138C171.974 264.545 172.388 264.085 172.922 263.756C173.455 263.428 174.08 263.264 174.796 263.264C175.512 263.264 176.137 263.428 176.67 263.756C177.204 264.085 177.618 264.545 177.913 265.138C178.208 265.732 178.356 266.424 178.356 267.217C178.356 268.005 178.208 268.695 177.913 269.285C177.618 269.875 177.204 270.334 176.67 270.662C176.137 270.99 175.512 271.154 174.796 271.154ZM174.801 269.906C175.265 269.906 175.649 269.784 175.954 269.538C176.259 269.293 176.485 268.967 176.631 268.559C176.78 268.151 176.854 267.702 176.854 267.212C176.854 266.724 176.78 266.277 176.631 265.869C176.485 265.458 176.259 265.129 175.954 264.88C175.649 264.631 175.265 264.507 174.801 264.507C174.334 264.507 173.946 264.631 173.638 264.88C173.333 265.129 173.106 265.458 172.956 265.869C172.811 266.277 172.738 266.724 172.738 267.212C172.738 267.702 172.811 268.151 172.956 268.559C173.106 268.967 173.333 269.293 173.638 269.538C173.946 269.784 174.334 269.906 174.801 269.906ZM184.852 267.833V263.364H186.344V271H184.882V269.678H184.803C184.627 270.085 184.345 270.425 183.957 270.697C183.573 270.965 183.094 271.099 182.521 271.099C182.03 271.099 181.596 270.992 181.218 270.776C180.844 270.558 180.549 270.234 180.333 269.807C180.121 269.379 180.015 268.851 180.015 268.221V263.364H181.501V268.042C181.501 268.562 181.646 268.977 181.934 269.285C182.222 269.593 182.597 269.747 183.058 269.747C183.336 269.747 183.613 269.678 183.888 269.538C184.166 269.399 184.397 269.189 184.579 268.907C184.764 268.625 184.856 268.267 184.852 267.833ZM192.165 271V260.818H195.894C196.617 260.818 197.215 260.937 197.689 261.176C198.163 261.411 198.518 261.731 198.753 262.136C198.988 262.537 199.106 262.989 199.106 263.493C199.106 263.917 199.028 264.275 198.872 264.567C198.716 264.855 198.508 265.087 198.246 265.263C197.987 265.435 197.702 265.561 197.391 265.641V265.74C197.729 265.757 198.058 265.866 198.38 266.068C198.705 266.267 198.973 266.55 199.185 266.918C199.397 267.286 199.504 267.734 199.504 268.261C199.504 268.781 199.381 269.248 199.136 269.663C198.894 270.074 198.519 270.4 198.012 270.642C197.505 270.881 196.857 271 196.068 271H192.165ZM193.702 269.683H195.919C196.655 269.683 197.182 269.54 197.5 269.255C197.818 268.97 197.977 268.614 197.977 268.186C197.977 267.865 197.896 267.57 197.734 267.301C197.571 267.033 197.339 266.819 197.038 266.66C196.739 266.501 196.385 266.421 195.974 266.421H193.702V269.683ZM193.702 265.223H195.76C196.105 265.223 196.415 265.157 196.69 265.024C196.968 264.892 197.188 264.706 197.351 264.467C197.517 264.225 197.599 263.94 197.599 263.612C197.599 263.191 197.452 262.838 197.157 262.553C196.862 262.268 196.41 262.126 195.8 262.126H193.702V265.223ZM203.429 271.169C202.945 271.169 202.507 271.08 202.116 270.901C201.725 270.718 201.415 270.455 201.186 270.11C200.961 269.765 200.848 269.343 200.848 268.842C200.848 268.411 200.931 268.057 201.097 267.778C201.263 267.5 201.486 267.28 201.768 267.117C202.05 266.955 202.365 266.832 202.713 266.749C203.061 266.666 203.415 266.603 203.777 266.56C204.234 266.507 204.605 266.464 204.89 266.431C205.175 266.395 205.382 266.337 205.512 266.257C205.641 266.178 205.706 266.048 205.706 265.869V265.835C205.706 265.4 205.583 265.064 205.338 264.825C205.096 264.587 204.734 264.467 204.254 264.467C203.753 264.467 203.359 264.578 203.071 264.8C202.786 265.019 202.588 265.263 202.479 265.531L201.082 265.213C201.248 264.749 201.49 264.375 201.808 264.089C202.129 263.801 202.499 263.592 202.917 263.463C203.334 263.33 203.773 263.264 204.234 263.264C204.539 263.264 204.862 263.301 205.203 263.374C205.548 263.443 205.87 263.572 206.168 263.761C206.47 263.95 206.717 264.22 206.909 264.572C207.101 264.92 207.197 265.372 207.197 265.929V271H205.745V269.956H205.686C205.59 270.148 205.445 270.337 205.253 270.523C205.061 270.708 204.814 270.862 204.512 270.985C204.211 271.108 203.85 271.169 203.429 271.169ZM203.752 269.976C204.163 269.976 204.514 269.895 204.806 269.732C205.101 269.57 205.324 269.358 205.477 269.096C205.633 268.831 205.711 268.547 205.711 268.246V267.261C205.658 267.314 205.555 267.364 205.402 267.411C205.253 267.454 205.083 267.492 204.89 267.525C204.698 267.555 204.511 267.583 204.328 267.609C204.146 267.633 203.994 267.652 203.871 267.669C203.583 267.705 203.319 267.767 203.081 267.853C202.845 267.939 202.656 268.063 202.514 268.226C202.375 268.385 202.305 268.597 202.305 268.862C202.305 269.23 202.441 269.509 202.713 269.697C202.984 269.883 203.331 269.976 203.752 269.976ZM212.394 271.154C211.655 271.154 211.018 270.987 210.485 270.652C209.954 270.314 209.547 269.848 209.262 269.255C208.977 268.662 208.834 267.982 208.834 267.217C208.834 266.441 208.98 265.757 209.271 265.163C209.563 264.567 209.974 264.101 210.504 263.766C211.035 263.432 211.66 263.264 212.379 263.264C212.959 263.264 213.476 263.372 213.93 263.587C214.384 263.799 214.75 264.098 215.029 264.482C215.31 264.867 215.478 265.316 215.531 265.83H214.084C214.004 265.472 213.822 265.163 213.537 264.905C213.255 264.646 212.878 264.517 212.404 264.517C211.989 264.517 211.626 264.626 211.315 264.845C211.007 265.061 210.766 265.369 210.594 265.77C210.422 266.168 210.335 266.638 210.335 267.182C210.335 267.739 210.42 268.219 210.589 268.624C210.758 269.028 210.997 269.341 211.305 269.563C211.616 269.785 211.983 269.896 212.404 269.896C212.685 269.896 212.941 269.845 213.169 269.742C213.401 269.636 213.595 269.485 213.751 269.29C213.91 269.094 214.021 268.859 214.084 268.584H215.531C215.478 269.078 215.317 269.518 215.048 269.906C214.78 270.294 214.42 270.599 213.97 270.821C213.522 271.043 212.997 271.154 212.394 271.154ZM218.488 268.41L218.478 266.595H218.736L221.779 263.364H223.559L220.088 267.043H219.855L218.488 268.41ZM217.12 271V260.818H218.607V271H217.12ZM221.943 271L219.208 267.371L220.233 266.332L223.767 271H221.943ZM228.738 271V260.818H230.274V265.243H235.35V260.818H236.891V271H235.35V266.56H230.274V271H228.738ZM242.226 271.154C241.51 271.154 240.885 270.99 240.351 270.662C239.818 270.334 239.403 269.875 239.108 269.285C238.814 268.695 238.666 268.005 238.666 267.217C238.666 266.424 238.814 265.732 239.108 265.138C239.403 264.545 239.818 264.085 240.351 263.756C240.885 263.428 241.51 263.264 242.226 263.264C242.942 263.264 243.566 263.428 244.1 263.756C244.634 264.085 245.048 264.545 245.343 265.138C245.638 265.732 245.785 266.424 245.785 267.217C245.785 268.005 245.638 268.695 245.343 269.285C245.048 269.875 244.634 270.334 244.1 270.662C243.566 270.99 242.942 271.154 242.226 271.154ZM242.231 269.906C242.695 269.906 243.079 269.784 243.384 269.538C243.689 269.293 243.914 268.967 244.06 268.559C244.209 268.151 244.284 267.702 244.284 267.212C244.284 266.724 244.209 266.277 244.06 265.869C243.914 265.458 243.689 265.129 243.384 264.88C243.079 264.631 242.695 264.507 242.231 264.507C241.763 264.507 241.376 264.631 241.067 264.88C240.762 265.129 240.535 265.458 240.386 265.869C240.24 266.277 240.167 266.724 240.167 267.212C240.167 267.702 240.24 268.151 240.386 268.559C240.535 268.967 240.762 269.293 241.067 269.538C241.376 269.784 241.763 269.906 242.231 269.906ZM247.445 271V263.364H248.871V264.607H248.966C249.125 264.186 249.385 263.857 249.746 263.622C250.108 263.384 250.54 263.264 251.044 263.264C251.554 263.264 251.982 263.384 252.327 263.622C252.675 263.861 252.932 264.189 253.097 264.607H253.177C253.359 264.199 253.649 263.874 254.047 263.632C254.445 263.387 254.919 263.264 255.469 263.264C256.161 263.264 256.727 263.481 257.164 263.915C257.605 264.35 257.825 265.004 257.825 265.879V271H256.339V266.018C256.339 265.501 256.198 265.127 255.916 264.895C255.634 264.663 255.298 264.547 254.907 264.547C254.423 264.547 254.047 264.696 253.778 264.994C253.51 265.289 253.376 265.669 253.376 266.133V271H251.894V265.924C251.894 265.51 251.765 265.177 251.506 264.925C251.248 264.673 250.911 264.547 250.497 264.547C250.215 264.547 249.955 264.621 249.717 264.771C249.481 264.916 249.291 265.12 249.145 265.382C249.002 265.644 248.931 265.947 248.931 266.292V271H247.445ZM263.109 271.154C262.356 271.154 261.709 270.993 261.165 270.672C260.625 270.347 260.207 269.891 259.912 269.305C259.62 268.715 259.475 268.024 259.475 267.232C259.475 266.449 259.62 265.76 259.912 265.163C260.207 264.567 260.618 264.101 261.145 263.766C261.675 263.432 262.295 263.264 263.004 263.264C263.435 263.264 263.853 263.335 264.257 263.478C264.662 263.621 265.025 263.844 265.346 264.149C265.668 264.454 265.921 264.85 266.107 265.337C266.292 265.821 266.385 266.41 266.385 267.102V267.629H260.315V266.516H264.928C264.928 266.125 264.849 265.778 264.69 265.477C264.531 265.172 264.307 264.931 264.019 264.756C263.734 264.58 263.399 264.492 263.014 264.492C262.597 264.492 262.232 264.595 261.921 264.8C261.612 265.003 261.374 265.268 261.205 265.596C261.039 265.921 260.956 266.274 260.956 266.655V267.525C260.956 268.035 261.046 268.469 261.225 268.827C261.407 269.185 261.66 269.459 261.985 269.648C262.31 269.833 262.69 269.926 263.124 269.926C263.405 269.926 263.662 269.886 263.894 269.807C264.126 269.724 264.327 269.601 264.496 269.439C264.665 269.277 264.794 269.076 264.884 268.837L266.291 269.091C266.178 269.505 265.976 269.868 265.684 270.18C265.396 270.488 265.033 270.728 264.595 270.901C264.161 271.07 263.666 271.154 263.109 271.154Z" fill="#465551"/>
</svg>
