<svg width="185" height="174" viewBox="0 0 185 174" fill="none" xmlns="http://www.w3.org/2000/svg">
<path d="M15 1.5L25 15.5" stroke="#329164" stroke-width="2" stroke-linecap="round"/>
<path d="M15 1.5L25 15.5" stroke="#329164" stroke-width="2" stroke-linecap="round"/>
<path d="M5 12.2578L20.0069 20.6716" stroke="#329164" stroke-width="2" stroke-linecap="round"/>
<path d="M5 12.2578L20.0069 20.6716" stroke="#329164" stroke-width="2" stroke-linecap="round"/>
<path d="M1 25.3281L18.0628 27.5328" stroke="#329164" stroke-width="2" stroke-linecap="round"/>
<path d="M1 25.3281L18.0628 27.5328" stroke="#329164" stroke-width="2" stroke-linecap="round"/>
<g clip-path="url(#clip0_3364_184600)">
<path d="M118.188 132.25H33.8125C32.5693 132.25 31.377 131.756 30.4979 130.877C29.6189 129.998 29.125 128.806 29.125 127.562V24.4375C29.125 23.1943 29.6189 22.002 30.4979 21.1229C31.377 20.2439 32.5693 19.75 33.8125 19.75H90.0625L122.875 52.5625V127.562C122.875 128.806 122.381 129.998 121.502 130.877C120.623 131.756 119.431 132.25 118.188 132.25Z" fill="white" stroke="#329164" stroke-width="2.5" stroke-linecap="round" stroke-linejoin="round" stroke-dasharray="4 4"/>
<path d="M90.0625 19.75V52.5625H122.875" stroke="#329164" stroke-width="2.5" stroke-linecap="round" stroke-linejoin="round" stroke-dasharray="4 4"/>
</g>
<g clip-path="url(#clip1_3364_184600)">
<path d="M118.188 132.25H33.8125C32.5693 132.25 31.377 131.756 30.4979 130.877C29.6189 129.998 29.125 128.806 29.125 127.562V24.4375C29.125 23.1943 29.6189 22.002 30.4979 21.1229C31.377 20.2439 32.5693 19.75 33.8125 19.75H90.0625L122.875 52.5625V127.562C122.875 128.806 122.381 129.998 121.502 130.877C120.623 131.756 119.431 132.25 118.188 132.25Z" fill="white" stroke="#329164" stroke-width="2.5" stroke-linecap="round" stroke-linejoin="round" stroke-dasharray="4 4"/>
<path d="M90.0625 19.75V52.5625H122.875" stroke="#329164" stroke-width="2.5" stroke-linecap="round" stroke-linejoin="round" stroke-dasharray="4 4"/>
</g>
<g clip-path="url(#clip2_3364_184600)">
<path d="M101.188 136.75C126.903 136.75 147.75 115.903 147.75 90.1875C147.75 64.4717 126.903 43.625 101.188 43.625C75.4717 43.625 54.625 64.4717 54.625 90.1875C54.625 115.903 75.4717 136.75 101.188 136.75Z" fill="white" stroke="#329164" stroke-width="2" stroke-linecap="round" stroke-linejoin="round"/>
<path d="M101.368 131.702C124.197 131.702 142.703 113.196 142.703 90.3667C142.703 67.5378 124.197 49.0312 101.368 49.0312C78.5388 49.0312 60.0322 67.5378 60.0322 90.3667C60.0322 113.196 78.5388 131.702 101.368 131.702Z" fill="white" stroke="#329164" stroke-width="2" stroke-linecap="round" stroke-linejoin="round"/>
<path d="M136 123L159.49 147.453L156.5 150.5" stroke="#329164" stroke-width="2" stroke-linecap="round" stroke-linejoin="round"/>
<path d="M133 126L156.49 150.453" stroke="#329164" stroke-width="2" stroke-linecap="round" stroke-linejoin="round"/>
</g>
<g clip-path="url(#clip3_3364_184600)">
<path d="M101.188 136.75C126.903 136.75 147.75 115.903 147.75 90.1875C147.75 64.4717 126.903 43.625 101.188 43.625C75.4717 43.625 54.625 64.4717 54.625 90.1875C54.625 115.903 75.4717 136.75 101.188 136.75Z" fill="white" stroke="#329164" stroke-width="2" stroke-linecap="round" stroke-linejoin="round"/>
<path d="M101.368 131.702C124.197 131.702 142.703 113.196 142.703 90.3667C142.703 67.5378 124.197 49.0312 101.368 49.0312C78.5388 49.0312 60.0322 67.5378 60.0322 90.3667C60.0322 113.196 78.5388 131.702 101.368 131.702Z" fill="white" stroke="#329164" stroke-width="2" stroke-linecap="round" stroke-linejoin="round"/>
<path d="M136 123L159.49 147.453L156.5 150.5" stroke="#329164" stroke-width="2" stroke-linecap="round" stroke-linejoin="round"/>
<path d="M133 126L156.49 150.453" stroke="#329164" stroke-width="2" stroke-linecap="round" stroke-linejoin="round"/>
</g>
<g clip-path="url(#clip4_3364_184600)">
<path d="M102 99.25V95.125C109.974 95.125 116.438 89.5846 116.438 82.75C116.438 75.9154 109.974 70.375 102 70.375C94.0259 70.375 87.5625 75.9154 87.5625 82.75" stroke="#329164" stroke-width="2" stroke-linecap="round" stroke-linejoin="round"/>
<path d="M102 108.078C103.959 108.078 105.547 109.666 105.547 111.625C105.547 113.584 103.959 115.172 102 115.172C100.041 115.172 98.4531 113.584 98.4531 111.625C98.4531 109.666 100.041 108.078 102 108.078Z" fill="#329164" stroke="#329164" stroke-width="0.125"/>
</g>
<g clip-path="url(#clip5_3364_184600)">
<path d="M102 99.25V95.125C109.974 95.125 116.438 89.5846 116.438 82.75C116.438 75.9154 109.974 70.375 102 70.375C94.0259 70.375 87.5625 75.9154 87.5625 82.75" stroke="#329164" stroke-width="2" stroke-linecap="round" stroke-linejoin="round"/>
<path d="M102 108.078C103.959 108.078 105.547 109.666 105.547 111.625C105.547 113.584 103.959 115.172 102 115.172C100.041 115.172 98.4531 113.584 98.4531 111.625C98.4531 109.666 100.041 108.078 102 108.078Z" fill="#329164" stroke="#329164" stroke-width="0.125"/>
</g>
<defs>
<clipPath id="clip0_3364_184600">
<rect width="150" height="150" fill="white" transform="translate(1 1)"/>
</clipPath>
<clipPath id="clip1_3364_184600">
<rect width="150" height="150" fill="white" transform="translate(1 1)"/>
</clipPath>
<clipPath id="clip2_3364_184600">
<rect width="149" height="149" fill="white" transform="translate(36 25)"/>
</clipPath>
<clipPath id="clip3_3364_184600">
<rect width="149" height="149" fill="white" transform="translate(36 25)"/>
</clipPath>
<clipPath id="clip4_3364_184600">
<rect width="66" height="66" fill="white" transform="translate(69 58)"/>
</clipPath>
<clipPath id="clip5_3364_184600">
<rect width="66" height="66" fill="white" transform="translate(69 58)"/>
</clipPath>
</defs>
</svg>
