<svg width="24" height="24" viewBox="0 0 24 24" fill="none" xmlns="http://www.w3.org/2000/svg">
<g id="Icons/24/Notification">
<path id="Vector" d="M13.5298 20.7033C13.355 21.0047 13.104 21.2549 12.8021 21.4288C12.5002 21.6027 12.1578 21.6942 11.8094 21.6942C11.461 21.6942 11.1186 21.6027 10.8167 21.4288C10.5148 21.2549 10.2638 21.0047 10.089 20.7033M17.7762 7.77543C17.7762 6.19296 17.1475 4.6753 16.0286 3.55633C14.9096 2.43735 13.3919 1.80872 11.8094 1.80872C10.227 1.80872 8.70932 2.43735 7.59034 3.55633C6.47137 4.6753 5.84273 6.19296 5.84273 7.77543C5.84273 14.7366 2.85938 16.7255 2.85938 16.7255H20.7595C20.7595 16.7255 17.7762 14.7366 17.7762 7.77543Z" stroke="#2C3641" stroke-width="1.98891" stroke-linecap="round" stroke-linejoin="round"/>
</g>
</svg>
