<svg width="24" height="24" viewBox="0 0 24 24" fill="none" xmlns="http://www.w3.org/2000/svg">
<path d="M12.0093 6.80253L12.0049 10.1275M6.70955 12.0047L10.0248 12.0237M13.8209 12.017L17.3129 11.9703M11.9973 13.9886V17.194M10.063 12.0177C10.063 10.9883 10.8984 10.1536 11.9285 10.1536C12.9587 10.1536 13.794 10.9883 13.794 12.0177C13.794 13.047 12.9587 13.8817 11.9285 13.8817C10.8984 13.8817 10.063 13.047 10.063 12.0177ZM17.2693 11.9612C17.2693 10.9319 18.1047 10.0972 19.1348 10.0972C20.165 10.0972 21 10.9319 21 11.9612C21 12.9905 20.165 13.8252 19.1348 13.8252C18.1047 13.8252 17.2693 12.9905 17.2693 11.9612ZM10.141 4.86404C10.141 3.8347 10.9764 3 12.0065 3C13.0367 3 13.872 3.8347 13.872 4.86404C13.872 5.89338 13.0367 6.72776 12.0065 6.72776C10.9764 6.72776 10.141 5.89338 10.141 4.86404ZM3 12.0177C3 10.9883 3.83504 10.1536 4.86551 10.1536C5.89566 10.1536 6.7307 10.9883 6.7307 12.0177C6.7307 13.047 5.89566 13.8817 4.86551 13.8817C3.83504 13.8817 3 13.047 3 12.0177ZM10.141 19.136C10.141 18.1066 10.9764 17.2719 12.0065 17.2719C13.0367 17.2719 13.872 18.1066 13.872 19.136C13.872 20.1653 13.0367 21 12.0065 21C10.9764 21 10.141 20.1653 10.141 19.136Z" stroke="#2C3641" stroke-width="1.5" stroke-miterlimit="10" stroke-linejoin="round"/>
</svg>
