<svg width="24" height="24" viewBox="0 0 24 24" fill="none" xmlns="http://www.w3.org/2000/svg">
<path fill-rule="evenodd" clip-rule="evenodd" d="M4.8 11.1C4.8 7.62061 7.62061 4.8 11.1 4.8C14.5794 4.8 17.4 7.62061 17.4 11.1C17.4 12.7973 16.7288 14.3379 15.6373 15.4707C15.6065 15.4944 15.5768 15.5204 15.5485 15.5487C15.5203 15.5769 15.4943 15.6066 15.4706 15.6374C14.3377 16.7288 12.7973 17.4 11.1 17.4C7.62061 17.4 4.8 14.5794 4.8 11.1ZM16.1558 17.4288C14.7702 18.5372 13.0125 19.2 11.1 19.2C6.62649 19.2 3 15.5735 3 11.1C3 6.62649 6.62649 3 11.1 3C15.5735 3 19.2 6.62649 19.2 11.1C19.2 13.0125 18.5372 14.7703 17.4286 16.156L20.7363 19.4637C21.0878 19.8151 21.0878 20.385 20.7363 20.7364C20.3848 21.0879 19.815 21.0879 19.4635 20.7364L16.1558 17.4288Z" fill="#2C3641"/>
</svg>
