<svg xmlns="http://www.w3.org/2000/svg" width="24" height="24" viewBox="0 0 24 24" fill="none">
<mask id="mask0_164_37" style="mask-type:luminance" maskUnits="userSpaceOnUse" x="2" y="2" width="20" height="20">
<path d="M2 2.00001H22V22H2V2.00001Z" fill="white"/>
</mask>
<g >
<path d="M13.8828 4.7063C14.5735 4.88454 15.2259 5.15817 15.825 5.51247C15.825 5.51247 16.1136 5.22375 16.4378 4.89958C16.6732 4.66395 16.9926 4.5318 17.3255 4.5318C17.6581 4.5318 17.9776 4.66395 18.213 4.89958C18.4985 5.18516 18.8148 5.50145 19.1004 5.78704C19.336 6.02239 19.4682 6.34184 19.4682 6.67446C19.4682 7.00743 19.336 7.32684 19.1004 7.56219C18.7762 7.88637 18.4875 8.17504 18.4875 8.17504C18.8418 8.77411 19.1154 9.42649 19.2937 10.1172H20.1588C20.852 10.1172 21.4141 10.6792 21.4141 11.3724V12.6276C21.4141 13.3208 20.852 13.8828 20.1588 13.8828H19.2937C19.1154 14.5735 18.8418 15.2259 18.4875 15.8249C18.4875 15.8249 18.7762 16.1136 19.1004 16.4378C19.336 16.6732 19.4682 16.9926 19.4682 17.3255C19.4682 17.6582 19.336 17.9776 19.1004 18.213C18.8148 18.4985 18.4985 18.8148 18.213 19.1004C17.9776 19.3361 17.6581 19.4682 17.3255 19.4682C16.9926 19.4682 16.6732 19.3361 16.4378 19.1004C16.1136 18.7762 15.825 18.4875 15.825 18.4875C15.2259 18.8418 14.5735 19.1155 13.8828 19.2937V20.1588C13.8828 20.852 13.3208 21.4141 12.6276 21.4141H11.3724C10.6792 21.4141 10.1172 20.852 10.1172 20.1588V19.2937C9.42652 19.1155 8.7741 18.8418 8.17504 18.4875C8.17504 18.4875 7.88637 18.7762 7.56219 19.1004C7.32683 19.3361 7.00738 19.4682 6.67445 19.4682C6.34184 19.4682 6.02234 19.3361 5.78703 19.1004C5.50148 18.8148 5.18516 18.4985 4.89957 18.213C4.66395 17.9776 4.5318 17.6582 4.5318 17.3255C4.5318 16.9926 4.66395 16.6732 4.89957 16.4378C5.22375 16.1136 5.51246 15.8249 5.51246 15.8249C5.15816 15.2259 4.88457 14.5735 4.70629 13.8828H3.84117C3.14797 13.8828 2.58594 13.3208 2.58594 12.6276V11.3724C2.58594 10.6792 3.14797 10.1172 3.84117 10.1172H4.70629C4.88457 9.42649 5.15816 8.77411 5.51246 8.17504C5.51246 8.17504 5.22375 7.88637 4.89957 7.56219C4.66395 7.32684 4.5318 7.00743 4.5318 6.67446C4.5318 6.34184 4.66395 6.02239 4.89957 5.78704C5.18516 5.50145 5.50148 5.18516 5.78703 4.89958C6.02234 4.66395 6.34184 4.5318 6.67445 4.5318C7.00738 4.5318 7.32683 4.66395 7.56219 4.89958C7.88637 5.22375 8.17504 5.51247 8.17504 5.51247C8.7741 5.15817 9.42652 4.88454 10.1172 4.7063V3.84114C10.1172 3.14794 10.6792 2.58594 11.3724 2.58594H12.6276C13.3208 2.58594 13.8828 3.14794 13.8828 3.84114V4.7063Z" stroke="#2C3641" stroke-width="1.5" stroke-miterlimit="10" stroke-linecap="round" stroke-linejoin="round"/>
<path d="M12 8.23438C14.0783 8.23438 15.7656 9.92168 15.7656 12C15.7656 14.0783 14.0783 15.7656 12 15.7656C9.92168 15.7656 8.23438 14.0783 8.23438 12C8.23438 9.92168 9.92168 8.23438 12 8.23438Z" stroke="#2C3641" stroke-width="1.5" stroke-miterlimit="10" stroke-linecap="round" stroke-linejoin="round"/>
</g>
</svg>