<svg width="24" height="24" viewBox="0 0 24 24" fill="none" xmlns="http://www.w3.org/2000/svg">
<path d="M19.6335 6.34726C19.5276 6.23723 19.4017 6.14989 19.263 6.09029C19.1243 6.03069 18.9755 6 18.8252 6C18.6749 6 18.5261 6.03069 18.3873 6.09029C18.2486 6.14989 18.1227 6.23723 18.0168 6.34726L9.53519 15.1052L5.97176 11.4189C5.86187 11.3094 5.73215 11.2233 5.59 11.1656C5.44786 11.1078 5.29607 11.0795 5.14331 11.0822C4.99055 11.0849 4.8398 11.1187 4.69968 11.1815C4.55956 11.2443 4.4328 11.3349 4.32665 11.4482C4.2205 11.5615 4.13704 11.6953 4.08102 11.8419C4.025 11.9885 3.99753 12.145 4.00017 12.3025C4.00282 12.46 4.03552 12.6155 4.09642 12.76C4.15733 12.9045 4.24523 13.0352 4.35512 13.1446L8.72687 17.6527C8.83271 17.7628 8.95862 17.8501 9.09736 17.9097C9.23609 17.9693 9.3849 18 9.53519 18C9.68548 18 9.83429 17.9693 9.97302 17.9097C10.1118 17.8501 10.2377 17.7628 10.3435 17.6527L19.6335 8.07302C19.749 7.96309 19.8413 7.82966 19.9044 7.68115C19.9674 7.53264 20 7.37227 20 7.21014C20 7.04801 19.9674 6.88764 19.9044 6.73913C19.8413 6.59062 19.749 6.4572 19.6335 6.34726V6.34726Z" fill="#2C3641"/>
</svg>
