<svg width="24" height="24" viewBox="0 0 24 24" fill="none" xmlns="http://www.w3.org/2000/svg">
<path d="M12 16.2C13.5471 16.2 15.0308 15.5679 16.1248 14.4426C17.2188 13.3174 17.8333 11.7913 17.8333 10.2V4.2C17.8333 3.88174 17.7104 3.57652 17.4916 3.35147C17.2728 3.12643 16.9761 3 16.6667 3C16.3572 3 16.0605 3.12643 15.8417 3.35147C15.6229 3.57652 15.5 3.88174 15.5 4.2V10.2C15.5 11.1548 15.1313 12.0705 14.4749 12.7456C13.8185 13.4207 12.9283 13.8 12 13.8C11.0717 13.8 10.1815 13.4207 9.52513 12.7456C8.86875 12.0705 8.5 11.1548 8.5 10.2V4.2C8.5 3.88174 8.37708 3.57652 8.15829 3.35147C7.9395 3.12643 7.64275 3 7.33333 3C7.02391 3 6.72717 3.12643 6.50838 3.35147C6.28958 3.57652 6.16667 3.88174 6.16667 4.2V10.2C6.16667 11.7913 6.78125 13.3174 7.87521 14.4426C8.96917 15.5679 10.4529 16.2 12 16.2ZM17.8333 18.6H6.16667C5.85725 18.6 5.5605 18.7264 5.34171 18.9515C5.12292 19.1765 5 19.4817 5 19.8C5 20.1183 5.12292 20.4235 5.34171 20.6485C5.5605 20.8736 5.85725 21 6.16667 21H17.8333C18.1428 21 18.4395 20.8736 18.6583 20.6485C18.8771 20.4235 19 20.1183 19 19.8C19 19.4817 18.8771 19.1765 18.6583 18.9515C18.4395 18.7264 18.1428 18.6 17.8333 18.6Z" fill="#2C3641"/>
</svg>
