<svg width="24" height="24" viewBox="0 0 24 24" fill="none" xmlns="http://www.w3.org/2000/svg">
<path d="M3 4.25232C3 3.63303 3.50199 3.13093 4.12114 3.13093H10.7373C11.3564 3.13093 11.8584 3.63303 11.8584 4.25232V10.8839C11.8584 11.5032 11.3564 12.0053 10.7373 12.0053H4.12114C3.50199 12.0053 3 11.5032 3 10.8839V4.25232Z" stroke="#2C3641" stroke-width="1.5" stroke-miterlimit="10" stroke-linejoin="round"/>
<path d="M14.1394 4.12139C14.1394 3.5021 14.6414 3 15.2606 3H19.8536C20.4728 3 20.9748 3.5021 20.9748 4.12139V6.44687C20.9748 7.06616 20.4728 7.56826 19.8536 7.56826H15.2606C14.6414 7.56826 14.1394 7.06616 14.1394 6.44687V4.12139Z" stroke="#2C3641" stroke-width="1.5" stroke-miterlimit="10" stroke-linejoin="round"/>
<path d="M14.1394 10.926C14.1394 10.3067 14.6414 9.8046 15.2606 9.8046H19.8789C20.498 9.8046 21 10.3067 21 10.926V19.8786C21 20.4979 20.498 21 19.8789 21H15.2606C14.6414 21 14.1394 20.4979 14.1394 19.8786V10.926Z" stroke="#2C3641" stroke-width="1.5" stroke-miterlimit="10" stroke-linejoin="round"/>
<path d="M3 15.5885C3 14.9692 3.50199 14.4671 4.12114 14.4671H10.8788C11.498 14.4671 12 14.9692 12 15.5885V19.8786C12 20.4979 11.498 21 10.8788 21H4.12114C3.50199 21 3 20.4979 3 19.8786V15.5885Z" stroke="#2C3641" stroke-width="1.5" stroke-miterlimit="10" stroke-linejoin="round"/>
</svg>
